SplineFontDB: 3.2
FontName: Sorazora-Regular
FullName: Sorazora
FamilyName: Sorazora
Weight: Regular
Copyright: Copyright (c) 2023 Maxwell Kussmann
UComments: "Created for Xymyric 9. Drawn in Inkscape and compiled using FontForge."
FontLog: "Sorazora is a serif font designed for the 9th Edition of the Xymyric alphabet. It includes two styles (Roman, Italic) for one weight (Regular). The design of the serifs is inspired by Han characters and is descended from Xymyric 8. The most noticeable feature compared to V8 is the thin headline and shallow pen angle. This font can be regarded as a transitional style. The direction of the serifs is flipped to reflect the pen angle, which is opposite that of V8. The contextual substitution rules follow those outlined in the Unicode PUA, Contextual and Ligature Guidelines for Xymyric 9, included within the font source folder.+AAoACgAA-This font:+AAoA    sorazora_serif_w4.otf+AAoACgAA-Versions 0.1-0.5: Drawing phase.+AAoA-Version 1.0: FontForge project created.+AAoA    - Glyphs imported:"
Version: 0.1.16
DefaultBaseFilename: sorazora_serif_w4
ItalicAngle: 0
UnderlinePosition: -79
UnderlineWidth: 39
Ascent: 735
Descent: 265
InvalidEm: 0
LayerCount: 2
Layer: 0 0 "Back" 1
Layer: 1 0 "Fore" 0
XUID: [1021 177 139733406 4461]
FSType: 0
OS2Version: 0
OS2_WeightWidthSlopeOnly: 0
OS2_UseTypoMetrics: 1
CreationTime: 1673642421
ModificationTime: 1673678902
PfmFamily: 17
TTFWeight: 400
TTFWidth: 5
LineGap: 72
VLineGap: 0
OS2TypoAscent: 0
OS2TypoAOffset: 1
OS2TypoDescent: 0
OS2TypoDOffset: 1
OS2TypoLinegap: 72
OS2WinAscent: 0
OS2WinAOffset: 1
OS2WinDescent: 0
OS2WinDOffset: 1
HheadAscent: 0
HheadAOffset: 1
HheadDescent: 0
HheadDOffset: 1
OS2Vendor: 'PfEd'
MarkAttachClasses: 1
DEI: 91125
LangName: 1033
GaspTable: 3 9 10 16 5 65535 15 1
Encoding: ISO8859-1
UnicodeInterp: none
NameList: AGL For New Fonts
DisplaySize: -96
AntiAlias: 1
FitToEm: 0
WinInfo: 70 10 7
BeginPrivate: 11
BlueValues 2 []
BlueScale 8 0.039625
BlueShift 1 2
StdHW 4 [18]

StartChar: H
Encoding: 72 72 0
Width: 321
VWidth: 800
Flags: W
HStem: -188 86<0 17 305 322> -188 17<17 70 83 154 167 238 250 305> -85 77<0 17 305 322> 14 81<0 17 305 322> 108 79<0 17 305 322> 126 8<61.9468 66 114.094 131.906 205.824 210> 170 8<45.2812 50 60 78 87 98 108 132 142 153 162 173 183 194 204 222 231 246 253.586 278 278.001 280.86> 200 17<107.758 111 111.001 113> 204 86<0 17 305 322> 228 9<106.464 130.053> 249 7<268 287.769> 274 8<63 74.9932 102 114.486 146.01 157.938 186 195.618 226 238 247 257.993> 306 77<0 17 305 322> 405 81<0 17 305 322> 498 90<0 17 305 322> 570 18<17 70 83 154 167 238 250 305>
VStem: 0 70<-188 -171 570 588> 0 17<-171 -102 -85 -8 10 90 108 187 204 290 306 383 401 481 498 570> 53 9<134.336 170 229.571 274> 75 10<134.417 170 203.875 273.926> 83 71<-188 -171 570 588> 98 10<135.019 170> 117 10<250.183 272.437> 127 15<193.23 201.967> 137 9<125.99 129 228.577 236 243.665 273> 153 9<125.477 170> 158 9<203.298 229 238 269.801> 167 71<-188 -171 570 588> 173 10<99.866 170 178 193 198 200> 194 10<134.857 170> 216 10<205.232 274> 222 9<134.872 170> 238 9<229.25 274> 250 72<-188 -171 570 588> 258 10<203.505 249 256 274> 305 17<-171 -98 -81 -4 14 95 112 191 209 294 311 387 405 486 502 570>
LayerCount: 2
Fore
SplineSet
0 481 m 1x300c40
 17 482 l 1
 17 401 l 1
 0 400 l 1
 0 481 l 1x300c40
0 383 m 1
 17 383 l 1
 17 306 l 1
 0 306 l 1
 0 383 l 1
0 290 m 1x308c40
 17 290 l 1
 17 204 l 1
 0 204 l 1
 0 290 l 1x308c40
0 187 m 1x380c40
 17 187 l 1
 17 108 l 1
 0 108 l 1
 0 187 l 1x380c40
0 90 m 1
 17 91 l 1
 17 10 l 1
 0 10 l 1
 0 90 l 1
0 -8 m 1
 17 -8 l 1
 17 -85 l 1
 0 -85 l 1
 0 -8 l 1
0 -102 m 1xb00c40
 17 -102 l 1xb00c40
 17 -171 l 1x700c40
 70 -171 l 1
 70 -188 l 1x700c80
 0 -188 l 1xb00c80
 0 -102 l 1xb00c40
0 588 m 1x300e80
 70 588 l 1
 70 570 l 1x300d80
 17 570 l 1x300d40
 17 498 l 1
 0 498 l 1x300e40
 0 528 0 558 0 588 c 1x300e80
83 588 m 1x300d08
 154 588 l 1
 154 570 l 1
 83 570 l 1
 83 588 l 1x300d08
167 588 m 1x300d0010
 238 588 l 1
 238 570 l 1
 167 570 l 1
 167 588 l 1x300d0010
250 588 m 1x300d000040
 322 588 l 1x300e000040
 322 502 l 1
 305 502 l 1
 305 570 l 1x300d000010
 250 570 l 1
 250 588 l 1x300d000040
322 486 m 1x300c000010
 322 405 l 1
 305 405 l 1
 305 486 l 1
 322 486 l 1x300c000010
322 387 m 1
 322 311 l 1
 305 310 l 1
 305 387 l 1
 322 387 l 1
322 294 m 1
 322 209 l 1
 305 208 l 1
 305 294 l 1
 322 294 l 1
132 280 m 2
 133 281 133 280 144 286 c 1
 144 287 l 1
 146 285 146 286 147 282 c 1
 156 282 l 1
 158 283 158 283 168 285 c 1
 168 276 l 1
 174 278 180 280 186 282 c 1
 191 282 l 2
 212 282 217 249 184 235 c 0
 180 234 167 229 167 229 c 2
 167 206 l 1
 160 203 161 203 158 202 c 1
 158 274 l 1
 146 274 l 1
 146 231 l 1
 143 229 140 229 137 228 c 1
 137 236 l 1
 135 235 134 234 132 233 c 0
 127 231 123 230 118 228 c 0
 112 228 97 228 91 240 c 1
 91 243 l 1
 99 245 100 246 100 246 c 0
 112 246 117 254 117 262 c 0
 117 267 115 275 102 275 c 1
 102 280 l 1
 105 280 107 282 108 282 c 2
 110 282 l 2
 112 282 127 282 127 262 c 0
 127 247 114 242 106 239 c 1
 113 237 113 237 114 237 c 0
 123 235 134 242 137 250 c 1
 137 273 l 2x305c06a0
 137 273 132 278 132 279 c 2
 132 280 l 2
48 280 m 2
 49 281 49 280 60 286 c 0
 63 282 l 2
 74 282 l 1
 76 283 76 283 86 285 c 1
 85 282 85 278 85 273 c 2
 85 206 l 1
 78 203 78 203 75 202 c 1
 75 274 l 1
 62 274 l 1
 62 231 l 1
 59 229 56 229 53 228 c 1
 53 273 l 1x305c30
 50 278 48 277 48 279 c 2
 48 280 l 2
211 281 m 0
 214 283 222 286 222 286 c 0x303c0001
 224 284 224 285 226 282 c 1
 257 282 l 1
 259 283 259 283 269 285 c 1
 269 283 268 280 268 276 c 2
 268 256 l 1
 270 256 l 2
 275 256 280 257 284 257 c 2
 289 257 l 1
 289 256 288 253 286 247 c 0
 285 247 284 248 282 248 c 0
 280 248 275 249 268 249 c 1
 268 206 l 1
 261 203 261 203 258 202 c 1
 258 274 l 1
 247 274 l 1
 247 231 l 1
 240 228 241 228 238 227 c 1
 238 274 l 1
 226 274 l 1
 226 206 l 1
 219 203 219 203 216 202 c 1
 216 273 l 1x303c0002a0
 211 278 211 277 211 279 c 0
 211 280 211 280 211 281 c 0
170 238 m 0
 195 242 197 262 197 262 c 0
 198 264 200 274 185 274 c 0
 179 274 169 269 167 267 c 1
 167 238 l 1x301c0020
 168 238 169 238 170 238 c 0
117 220 m 0x310c02
 118 220 117 221 118 221 c 0
 119 221 120 221 120 220 c 2
 120 218 l 2
 120 216 120 216 114 204 c 1x308c02
 114 202 l 2
 114 201 113 201 113 201 c 2
 112 200 111 200 111 200 c 0
 109 206 103 219 103 219 c 2
 103 220 l 2
 103 221 105 221 106 221 c 0
 106 221 107 220 112 217 c 0
 113 217 113 218 114 218 c 0
 116 218 115 220 117 220 c 0x310c02
173 193 m 2x368c0508
 169 198 l 2
 169 200 l 1
 170 200 l 1x330c0508
 175 202 179 203 183 204 c 1
 183 178 l 1
 278 178 l 1
 278 178 280 179 282 179 c 0
 284 179 284 178 284 178 c 2
 284 177 283 176 281 170 c 1
 278 171 276 171 274 171 c 0
 269 172 266 172 263 171 c 0
 261 171 250 167 250 158 c 2
 250 153 l 2
 250 153 252 129 281 134 c 1
 281 129 l 1
 278 129 276 126 274 126 c 0
 270 125 266 126 263 126 c 0
 240 126 233 157 246 170 c 1
 231 170 l 1
 231 141 l 1
 227 127 210 126 210 126 c 0
 196 126 194 138 194 142 c 2
 194 170 l 1
 183 170 l 1
 183 103 l 1
 180 101 177 100 173 99 c 1
 173 170 l 1
 162 170 l 1
 162 128 l 1
 159 126 157 126 153 125 c 1
 153 170 l 1
 142 170 l 1
 142 137 l 1x368c054d40
 144 135 144 133 144 133 c 2
 145 131 146 131 146 130 c 2x368c0080
 145 129 l 1
 145 128 l 1
 142 126 138 126 134 125 c 1
 134 126 133 126 133 127 c 2
 133 129 l 1
 130 127 119 125 114 125 c 0
 99 125 98 142 98 144 c 2
 98 170 l 1
 87 170 l 1
 87 141 l 1
 83 127 66 126 66 126 c 0
 57 124 50 132 50 142 c 2
 50 170 l 1
 31 170 l 2
 29 171 l 0
 29 174 29 175 42 186 c 1
 44 184 46 181 48 178 c 1
 132 178 l 1
 132 193 l 1
 127 198 127 197 127 198 c 0
 128 200 128 201 140 203 c 0
 141 203 141 204 141 204 c 1
 142 204 l 1
 142 178 l 1
 173 178 l 1
 173 193 l 2x368c0508
322 191 m 1x300c000010
 322 112 l 1
 305 112 l 1
 305 191 l 1
 322 191 l 1x300c000010
69 134 m 0x360c
 74 134 78 136 78 143 c 2
 78 170 l 1
 60 170 l 1
 60 161 60 154 60 145 c 0
 60 134 68 134 69 134 c 0x360c
108 170 m 1x360c04
 108 146 l 2
 108 144 111 136 114 134 c 0
 116 133 119 134 123 134 c 2
 126 134 l 1
 128 135 130 136 132 138 c 1
 132 170 l 1
 108 170 l 1x360c04
213 134 m 0
 216 134 222 134 222 143 c 2
 222 170 l 1
 204 170 l 1
 204 147 l 2x360c0005
 204 143 204 134 213 134 c 0
151 118 m 2
 151 118 152 117 158 114 c 1
 158 114 160 115 163 117 c 0
 164 117 l 0
 164 118 l 0
 165 118 166 118 166 117 c 2
 166 114 l 1
 161 104 160 104 159 101 c 1
 159 99 l 2
 159 98 158 98 158 98 c 2x300c0020
 157 97 157 97 157 98 c 0
 156 100 155 102 149 116 c 1
 149 117 l 2
 149 118 150 118 151 118 c 2
322 95 m 1x300c000010
 322 14 l 1
 305 14 l 1
 305 95 l 1
 322 95 l 1x300c000010
322 -4 m 1
 322 -81 l 1
 305 -81 l 1
 305 -4 l 1
 322 -4 l 1
322 -98 m 1
 322 -188 l 1xb00c000040
 250 -188 l 1
 250 -171 l 1x700c000040
 305 -171 l 1x700c000010
 305 -98 l 1
 322 -98 l 1
83 -171 m 1x700c08
 154 -171 l 1
 154 -188 l 1
 83 -188 l 1
 83 -171 l 1x700c08
167 -171 m 1x700c0010
 238 -171 l 1
 238 -188 l 1
 167 -188 l 1
 167 -171 l 1x700c0010
EndSplineSet
Validated: 33
EndChar

StartChar: A
Encoding: 65 65 1
Width: 321
VWidth: 800
Flags: W
HStem: -188 86<0 17 305 322> -188 17<17 70 83 154 167 238 250 305> -85 77<0 17 305 322> 14 81<0 17 305 322> 108 79<0 17 305 322> 126 8<61.9468 66 114.094 131.906 205.824 210> 170 8<45.2812 50 60 78 87 98 108 132 142 153 162 173 183 194 204 222 231 246 253.586 278 278.001 280.86> 200 17<107.758 111 111.001 113> 204 86<0 17 305 322> 228 9<106.464 130.053> 249 7<268 287.769> 274 8<63 74.9932 102 114.486 146.01 157.938 186 195.618 226 238 247 257.993> 306 77<0 17 305 322> 405 81<0 17 305 322> 498 90<0 17 305 322> 570 18<17 70 83 154 167 238 250 305>
VStem: 0 70<-188 -171 570 588> 0 17<-171 -102 -85 -8 10 90 108 187 204 290 306 383 401 481 498 570> 53 9<134.336 170 229.571 274> 75 10<134.417 170 203.875 273.926> 83 71<-188 -171 570 588> 98 10<135.019 170> 117 10<250.183 272.437> 127 15<193.23 201.967> 137 9<125.99 129 228.577 236 243.665 273> 153 9<125.477 170> 158 9<203.298 229 238 269.801> 167 71<-188 -171 570 588> 173 10<99.866 170 178 193 198 200> 194 10<134.857 170> 216 10<205.232 274> 222 9<134.872 170> 238 9<229.25 274> 250 72<-188 -171 570 588> 258 10<203.505 249 256 274> 305 17<-171 -98 -81 -4 14 95 112 191 209 294 311 387 405 486 502 570>
LayerCount: 2
Fore
SplineSet
0 481 m 1x300c40
 17 482 l 1
 17 401 l 1
 0 400 l 1
 0 481 l 1x300c40
0 383 m 1
 17 383 l 1
 17 306 l 1
 0 306 l 1
 0 383 l 1
0 290 m 1x308c40
 17 290 l 1
 17 204 l 1
 0 204 l 1
 0 290 l 1x308c40
0 187 m 1x380c40
 17 187 l 1
 17 108 l 1
 0 108 l 1
 0 187 l 1x380c40
0 90 m 1
 17 91 l 1
 17 10 l 1
 0 10 l 1
 0 90 l 1
0 -8 m 1
 17 -8 l 1
 17 -85 l 1
 0 -85 l 1
 0 -8 l 1
0 -102 m 1xb00c40
 17 -102 l 1xb00c40
 17 -171 l 1x700c40
 70 -171 l 1
 70 -188 l 1x700c80
 0 -188 l 1xb00c80
 0 -102 l 1xb00c40
0 588 m 1x300e80
 70 588 l 1
 70 570 l 1x300d80
 17 570 l 1x300d40
 17 498 l 1
 0 498 l 1x300e40
 0 528 0 558 0 588 c 1x300e80
83 588 m 1x300d08
 154 588 l 1
 154 570 l 1
 83 570 l 1
 83 588 l 1x300d08
167 588 m 1x300d0010
 238 588 l 1
 238 570 l 1
 167 570 l 1
 167 588 l 1x300d0010
250 588 m 1x300d000040
 322 588 l 1x300e000040
 322 502 l 1
 305 502 l 1
 305 570 l 1x300d000010
 250 570 l 1
 250 588 l 1x300d000040
322 486 m 1x300c000010
 322 405 l 1
 305 405 l 1
 305 486 l 1
 322 486 l 1x300c000010
322 387 m 1
 322 311 l 1
 305 310 l 1
 305 387 l 1
 322 387 l 1
322 294 m 1
 322 209 l 1
 305 208 l 1
 305 294 l 1
 322 294 l 1
132 280 m 2
 133 281 133 280 144 286 c 1
 144 287 l 1
 146 285 146 286 147 282 c 1
 156 282 l 1
 158 283 158 283 168 285 c 1
 168 276 l 1
 174 278 180 280 186 282 c 1
 191 282 l 2
 212 282 217 249 184 235 c 0
 180 234 167 229 167 229 c 2
 167 206 l 1
 160 203 161 203 158 202 c 1
 158 274 l 1
 146 274 l 1
 146 231 l 1
 143 229 140 229 137 228 c 1
 137 236 l 1
 135 235 134 234 132 233 c 0
 127 231 123 230 118 228 c 0
 112 228 97 228 91 240 c 1
 91 243 l 1
 99 245 100 246 100 246 c 0
 112 246 117 254 117 262 c 0
 117 267 115 275 102 275 c 1
 102 280 l 1
 105 280 107 282 108 282 c 2
 110 282 l 2
 112 282 127 282 127 262 c 0
 127 247 114 242 106 239 c 1
 113 237 113 237 114 237 c 0
 123 235 134 242 137 250 c 1
 137 273 l 2x305c06a0
 137 273 132 278 132 279 c 2
 132 280 l 2
48 280 m 2
 49 281 49 280 60 286 c 0
 63 282 l 2
 74 282 l 1
 76 283 76 283 86 285 c 1
 85 282 85 278 85 273 c 2
 85 206 l 1
 78 203 78 203 75 202 c 1
 75 274 l 1
 62 274 l 1
 62 231 l 1
 59 229 56 229 53 228 c 1
 53 273 l 1x305c30
 50 278 48 277 48 279 c 2
 48 280 l 2
211 281 m 0
 214 283 222 286 222 286 c 0x303c0001
 224 284 224 285 226 282 c 1
 257 282 l 1
 259 283 259 283 269 285 c 1
 269 283 268 280 268 276 c 2
 268 256 l 1
 270 256 l 2
 275 256 280 257 284 257 c 2
 289 257 l 1
 289 256 288 253 286 247 c 0
 285 247 284 248 282 248 c 0
 280 248 275 249 268 249 c 1
 268 206 l 1
 261 203 261 203 258 202 c 1
 258 274 l 1
 247 274 l 1
 247 231 l 1
 240 228 241 228 238 227 c 1
 238 274 l 1
 226 274 l 1
 226 206 l 1
 219 203 219 203 216 202 c 1
 216 273 l 1x303c0002a0
 211 278 211 277 211 279 c 0
 211 280 211 280 211 281 c 0
170 238 m 0
 195 242 197 262 197 262 c 0
 198 264 200 274 185 274 c 0
 179 274 169 269 167 267 c 1
 167 238 l 1x301c0020
 168 238 169 238 170 238 c 0
117 220 m 0x310c02
 118 220 117 221 118 221 c 0
 119 221 120 221 120 220 c 2
 120 218 l 2
 120 216 120 216 114 204 c 1x308c02
 114 202 l 2
 114 201 113 201 113 201 c 2
 112 200 111 200 111 200 c 0
 109 206 103 219 103 219 c 2
 103 220 l 2
 103 221 105 221 106 221 c 0
 106 221 107 220 112 217 c 0
 113 217 113 218 114 218 c 0
 116 218 115 220 117 220 c 0x310c02
173 193 m 2x368c0508
 169 198 l 2
 169 200 l 1
 170 200 l 1x330c0508
 175 202 179 203 183 204 c 1
 183 178 l 1
 278 178 l 1
 278 178 280 179 282 179 c 0
 284 179 284 178 284 178 c 2
 284 177 283 176 281 170 c 1
 278 171 276 171 274 171 c 0
 269 172 266 172 263 171 c 0
 261 171 250 167 250 158 c 2
 250 153 l 2
 250 153 252 129 281 134 c 1
 281 129 l 1
 278 129 276 126 274 126 c 0
 270 125 266 126 263 126 c 0
 240 126 233 157 246 170 c 1
 231 170 l 1
 231 141 l 1
 227 127 210 126 210 126 c 0
 196 126 194 138 194 142 c 2
 194 170 l 1
 183 170 l 1
 183 103 l 1
 180 101 177 100 173 99 c 1
 173 170 l 1
 162 170 l 1
 162 128 l 1
 159 126 157 126 153 125 c 1
 153 170 l 1
 142 170 l 1
 142 137 l 1x368c054d40
 144 135 144 133 144 133 c 2
 145 131 146 131 146 130 c 2x368c0080
 145 129 l 1
 145 128 l 1
 142 126 138 126 134 125 c 1
 134 126 133 126 133 127 c 2
 133 129 l 1
 130 127 119 125 114 125 c 0
 99 125 98 142 98 144 c 2
 98 170 l 1
 87 170 l 1
 87 141 l 1
 83 127 66 126 66 126 c 0
 57 124 50 132 50 142 c 2
 50 170 l 1
 31 170 l 2
 29 171 l 0
 29 174 29 175 42 186 c 1
 44 184 46 181 48 178 c 1
 132 178 l 1
 132 193 l 1
 127 198 127 197 127 198 c 0
 128 200 128 201 140 203 c 0
 141 203 141 204 141 204 c 1
 142 204 l 1
 142 178 l 1
 173 178 l 1
 173 193 l 2x368c0508
322 191 m 1x300c000010
 322 112 l 1
 305 112 l 1
 305 191 l 1
 322 191 l 1x300c000010
69 134 m 0x360c
 74 134 78 136 78 143 c 2
 78 170 l 1
 60 170 l 1
 60 161 60 154 60 145 c 0
 60 134 68 134 69 134 c 0x360c
108 170 m 1x360c04
 108 146 l 2
 108 144 111 136 114 134 c 0
 116 133 119 134 123 134 c 2
 126 134 l 1
 128 135 130 136 132 138 c 1
 132 170 l 1
 108 170 l 1x360c04
213 134 m 0
 216 134 222 134 222 143 c 2
 222 170 l 1
 204 170 l 1
 204 147 l 2x360c0005
 204 143 204 134 213 134 c 0
151 118 m 2
 151 118 152 117 158 114 c 1
 158 114 160 115 163 117 c 0
 164 117 l 0
 164 118 l 0
 165 118 166 118 166 117 c 2
 166 114 l 1
 161 104 160 104 159 101 c 1
 159 99 l 2
 159 98 158 98 158 98 c 2x300c0020
 157 97 157 97 157 98 c 0
 156 100 155 102 149 116 c 1
 149 117 l 2
 149 118 150 118 151 118 c 2
322 95 m 1x300c000010
 322 14 l 1
 305 14 l 1
 305 95 l 1
 322 95 l 1x300c000010
322 -4 m 1
 322 -81 l 1
 305 -81 l 1
 305 -4 l 1
 322 -4 l 1
322 -98 m 1
 322 -188 l 1xb00c000040
 250 -188 l 1
 250 -171 l 1x700c000040
 305 -171 l 1x700c000010
 305 -98 l 1
 322 -98 l 1
83 -171 m 1x700c08
 154 -171 l 1
 154 -188 l 1
 83 -188 l 1
 83 -171 l 1x700c08
167 -171 m 1x700c0010
 238 -171 l 1
 238 -188 l 1
 167 -188 l 1
 167 -171 l 1x700c0010
EndSplineSet
Validated: 33
EndChar

StartChar: B
Encoding: 66 66 2
Width: 321
VWidth: 800
Flags: W
HStem: -188 86<0 17 305 322> -188 17<17 70 83 154 167 238 250 305> -85 77<0 17 305 322> 14 81<0 17 305 322> 108 79<0 17 305 322> 126 8<61.9468 66 114.094 131.906 205.824 210> 170 8<45.2812 50 60 78 87 98 108 132 142 153 162 173 183 194 204 222 231 246 253.586 278 278.001 280.86> 200 17<107.758 111 111.001 113> 204 86<0 17 305 322> 228 9<106.464 130.053> 249 7<268 287.769> 274 8<63 74.9932 102 114.486 146.01 157.938 186 195.618 226 238 247 257.993> 306 77<0 17 305 322> 405 81<0 17 305 322> 498 90<0 17 305 322> 570 18<17 70 83 154 167 238 250 305>
VStem: 0 70<-188 -171 570 588> 0 17<-171 -102 -85 -8 10 90 108 187 204 290 306 383 401 481 498 570> 53 9<134.336 170 229.571 274> 75 10<134.417 170 203.875 273.926> 83 71<-188 -171 570 588> 98 10<135.019 170> 117 10<250.183 272.437> 127 15<193.23 201.967> 137 9<125.99 129 228.577 236 243.665 273> 153 9<125.477 170> 158 9<203.298 229 238 269.801> 167 71<-188 -171 570 588> 173 10<99.866 170 178 193 198 200> 194 10<134.857 170> 216 10<205.232 274> 222 9<134.872 170> 238 9<229.25 274> 250 72<-188 -171 570 588> 258 10<203.505 249 256 274> 305 17<-171 -98 -81 -4 14 95 112 191 209 294 311 387 405 486 502 570>
LayerCount: 2
Fore
SplineSet
0 481 m 1x300c40
 17 482 l 1
 17 401 l 1
 0 400 l 1
 0 481 l 1x300c40
0 383 m 1
 17 383 l 1
 17 306 l 1
 0 306 l 1
 0 383 l 1
0 290 m 1x308c40
 17 290 l 1
 17 204 l 1
 0 204 l 1
 0 290 l 1x308c40
0 187 m 1x380c40
 17 187 l 1
 17 108 l 1
 0 108 l 1
 0 187 l 1x380c40
0 90 m 1
 17 91 l 1
 17 10 l 1
 0 10 l 1
 0 90 l 1
0 -8 m 1
 17 -8 l 1
 17 -85 l 1
 0 -85 l 1
 0 -8 l 1
0 -102 m 1xb00c40
 17 -102 l 1xb00c40
 17 -171 l 1x700c40
 70 -171 l 1
 70 -188 l 1x700c80
 0 -188 l 1xb00c80
 0 -102 l 1xb00c40
0 588 m 1x300e80
 70 588 l 1
 70 570 l 1x300d80
 17 570 l 1x300d40
 17 498 l 1
 0 498 l 1x300e40
 0 528 0 558 0 588 c 1x300e80
83 588 m 1x300d08
 154 588 l 1
 154 570 l 1
 83 570 l 1
 83 588 l 1x300d08
167 588 m 1x300d0010
 238 588 l 1
 238 570 l 1
 167 570 l 1
 167 588 l 1x300d0010
250 588 m 1x300d000040
 322 588 l 1x300e000040
 322 502 l 1
 305 502 l 1
 305 570 l 1x300d000010
 250 570 l 1
 250 588 l 1x300d000040
322 486 m 1x300c000010
 322 405 l 1
 305 405 l 1
 305 486 l 1
 322 486 l 1x300c000010
322 387 m 1
 322 311 l 1
 305 310 l 1
 305 387 l 1
 322 387 l 1
322 294 m 1
 322 209 l 1
 305 208 l 1
 305 294 l 1
 322 294 l 1
132 280 m 2
 133 281 133 280 144 286 c 1
 144 287 l 1
 146 285 146 286 147 282 c 1
 156 282 l 1
 158 283 158 283 168 285 c 1
 168 276 l 1
 174 278 180 280 186 282 c 1
 191 282 l 2
 212 282 217 249 184 235 c 0
 180 234 167 229 167 229 c 2
 167 206 l 1
 160 203 161 203 158 202 c 1
 158 274 l 1
 146 274 l 1
 146 231 l 1
 143 229 140 229 137 228 c 1
 137 236 l 1
 135 235 134 234 132 233 c 0
 127 231 123 230 118 228 c 0
 112 228 97 228 91 240 c 1
 91 243 l 1
 99 245 100 246 100 246 c 0
 112 246 117 254 117 262 c 0
 117 267 115 275 102 275 c 1
 102 280 l 1
 105 280 107 282 108 282 c 2
 110 282 l 2
 112 282 127 282 127 262 c 0
 127 247 114 242 106 239 c 1
 113 237 113 237 114 237 c 0
 123 235 134 242 137 250 c 1
 137 273 l 2x305c06a0
 137 273 132 278 132 279 c 2
 132 280 l 2
48 280 m 2
 49 281 49 280 60 286 c 0
 63 282 l 2
 74 282 l 1
 76 283 76 283 86 285 c 1
 85 282 85 278 85 273 c 2
 85 206 l 1
 78 203 78 203 75 202 c 1
 75 274 l 1
 62 274 l 1
 62 231 l 1
 59 229 56 229 53 228 c 1
 53 273 l 1x305c30
 50 278 48 277 48 279 c 2
 48 280 l 2
211 281 m 0
 214 283 222 286 222 286 c 0x303c0001
 224 284 224 285 226 282 c 1
 257 282 l 1
 259 283 259 283 269 285 c 1
 269 283 268 280 268 276 c 2
 268 256 l 1
 270 256 l 2
 275 256 280 257 284 257 c 2
 289 257 l 1
 289 256 288 253 286 247 c 0
 285 247 284 248 282 248 c 0
 280 248 275 249 268 249 c 1
 268 206 l 1
 261 203 261 203 258 202 c 1
 258 274 l 1
 247 274 l 1
 247 231 l 1
 240 228 241 228 238 227 c 1
 238 274 l 1
 226 274 l 1
 226 206 l 1
 219 203 219 203 216 202 c 1
 216 273 l 1x303c0002a0
 211 278 211 277 211 279 c 0
 211 280 211 280 211 281 c 0
170 238 m 0
 195 242 197 262 197 262 c 0
 198 264 200 274 185 274 c 0
 179 274 169 269 167 267 c 1
 167 238 l 1x301c0020
 168 238 169 238 170 238 c 0
117 220 m 0x310c02
 118 220 117 221 118 221 c 0
 119 221 120 221 120 220 c 2
 120 218 l 2
 120 216 120 216 114 204 c 1x308c02
 114 202 l 2
 114 201 113 201 113 201 c 2
 112 200 111 200 111 200 c 0
 109 206 103 219 103 219 c 2
 103 220 l 2
 103 221 105 221 106 221 c 0
 106 221 107 220 112 217 c 0
 113 217 113 218 114 218 c 0
 116 218 115 220 117 220 c 0x310c02
173 193 m 2x368c0508
 169 198 l 2
 169 200 l 1
 170 200 l 1x330c0508
 175 202 179 203 183 204 c 1
 183 178 l 1
 278 178 l 1
 278 178 280 179 282 179 c 0
 284 179 284 178 284 178 c 2
 284 177 283 176 281 170 c 1
 278 171 276 171 274 171 c 0
 269 172 266 172 263 171 c 0
 261 171 250 167 250 158 c 2
 250 153 l 2
 250 153 252 129 281 134 c 1
 281 129 l 1
 278 129 276 126 274 126 c 0
 270 125 266 126 263 126 c 0
 240 126 233 157 246 170 c 1
 231 170 l 1
 231 141 l 1
 227 127 210 126 210 126 c 0
 196 126 194 138 194 142 c 2
 194 170 l 1
 183 170 l 1
 183 103 l 1
 180 101 177 100 173 99 c 1
 173 170 l 1
 162 170 l 1
 162 128 l 1
 159 126 157 126 153 125 c 1
 153 170 l 1
 142 170 l 1
 142 137 l 1x368c054d40
 144 135 144 133 144 133 c 2
 145 131 146 131 146 130 c 2x368c0080
 145 129 l 1
 145 128 l 1
 142 126 138 126 134 125 c 1
 134 126 133 126 133 127 c 2
 133 129 l 1
 130 127 119 125 114 125 c 0
 99 125 98 142 98 144 c 2
 98 170 l 1
 87 170 l 1
 87 141 l 1
 83 127 66 126 66 126 c 0
 57 124 50 132 50 142 c 2
 50 170 l 1
 31 170 l 2
 29 171 l 0
 29 174 29 175 42 186 c 1
 44 184 46 181 48 178 c 1
 132 178 l 1
 132 193 l 1
 127 198 127 197 127 198 c 0
 128 200 128 201 140 203 c 0
 141 203 141 204 141 204 c 1
 142 204 l 1
 142 178 l 1
 173 178 l 1
 173 193 l 2x368c0508
322 191 m 1x300c000010
 322 112 l 1
 305 112 l 1
 305 191 l 1
 322 191 l 1x300c000010
69 134 m 0x360c
 74 134 78 136 78 143 c 2
 78 170 l 1
 60 170 l 1
 60 161 60 154 60 145 c 0
 60 134 68 134 69 134 c 0x360c
108 170 m 1x360c04
 108 146 l 2
 108 144 111 136 114 134 c 0
 116 133 119 134 123 134 c 2
 126 134 l 1
 128 135 130 136 132 138 c 1
 132 170 l 1
 108 170 l 1x360c04
213 134 m 0
 216 134 222 134 222 143 c 2
 222 170 l 1
 204 170 l 1
 204 147 l 2x360c0005
 204 143 204 134 213 134 c 0
151 118 m 2
 151 118 152 117 158 114 c 1
 158 114 160 115 163 117 c 0
 164 117 l 0
 164 118 l 0
 165 118 166 118 166 117 c 2
 166 114 l 1
 161 104 160 104 159 101 c 1
 159 99 l 2
 159 98 158 98 158 98 c 2x300c0020
 157 97 157 97 157 98 c 0
 156 100 155 102 149 116 c 1
 149 117 l 2
 149 118 150 118 151 118 c 2
322 95 m 1x300c000010
 322 14 l 1
 305 14 l 1
 305 95 l 1
 322 95 l 1x300c000010
322 -4 m 1
 322 -81 l 1
 305 -81 l 1
 305 -4 l 1
 322 -4 l 1
322 -98 m 1
 322 -188 l 1xb00c000040
 250 -188 l 1
 250 -171 l 1x700c000040
 305 -171 l 1x700c000010
 305 -98 l 1
 322 -98 l 1
83 -171 m 1x700c08
 154 -171 l 1
 154 -188 l 1
 83 -188 l 1
 83 -171 l 1x700c08
167 -171 m 1x700c0010
 238 -171 l 1
 238 -188 l 1
 167 -188 l 1
 167 -171 l 1x700c0010
EndSplineSet
Validated: 33
EndChar

StartChar: C
Encoding: 67 67 3
Width: 321
VWidth: 800
Flags: W
HStem: -188 86<0 17 305 322> -188 17<17 70 83 154 167 238 250 305> -85 77<0 17 305 322> 14 81<0 17 305 322> 108 79<0 17 305 322> 126 8<61.9468 66 114.094 131.906 205.824 210> 170 8<45.2812 50 60 78 87 98 108 132 142 153 162 173 183 194 204 222 231 246 253.586 278 278.001 280.86> 200 17<107.758 111 111.001 113> 204 86<0 17 305 322> 228 9<106.464 130.053> 249 7<268 287.769> 274 8<63 74.9932 102 114.486 146.01 157.938 186 195.618 226 238 247 257.993> 306 77<0 17 305 322> 405 81<0 17 305 322> 498 90<0 17 305 322> 570 18<17 70 83 154 167 238 250 305>
VStem: 0 70<-188 -171 570 588> 0 17<-171 -102 -85 -8 10 90 108 187 204 290 306 383 401 481 498 570> 53 9<134.336 170 229.571 274> 75 10<134.417 170 203.875 273.926> 83 71<-188 -171 570 588> 98 10<135.019 170> 117 10<250.183 272.437> 127 15<193.23 201.967> 137 9<125.99 129 228.577 236 243.665 273> 153 9<125.477 170> 158 9<203.298 229 238 269.801> 167 71<-188 -171 570 588> 173 10<99.866 170 178 193 198 200> 194 10<134.857 170> 216 10<205.232 274> 222 9<134.872 170> 238 9<229.25 274> 250 72<-188 -171 570 588> 258 10<203.505 249 256 274> 305 17<-171 -98 -81 -4 14 95 112 191 209 294 311 387 405 486 502 570>
LayerCount: 2
Fore
SplineSet
0 481 m 1x300c40
 17 482 l 1
 17 401 l 1
 0 400 l 1
 0 481 l 1x300c40
0 383 m 1
 17 383 l 1
 17 306 l 1
 0 306 l 1
 0 383 l 1
0 290 m 1x308c40
 17 290 l 1
 17 204 l 1
 0 204 l 1
 0 290 l 1x308c40
0 187 m 1x380c40
 17 187 l 1
 17 108 l 1
 0 108 l 1
 0 187 l 1x380c40
0 90 m 1
 17 91 l 1
 17 10 l 1
 0 10 l 1
 0 90 l 1
0 -8 m 1
 17 -8 l 1
 17 -85 l 1
 0 -85 l 1
 0 -8 l 1
0 -102 m 1xb00c40
 17 -102 l 1xb00c40
 17 -171 l 1x700c40
 70 -171 l 1
 70 -188 l 1x700c80
 0 -188 l 1xb00c80
 0 -102 l 1xb00c40
0 588 m 1x300e80
 70 588 l 1
 70 570 l 1x300d80
 17 570 l 1x300d40
 17 498 l 1
 0 498 l 1x300e40
 0 528 0 558 0 588 c 1x300e80
83 588 m 1x300d08
 154 588 l 1
 154 570 l 1
 83 570 l 1
 83 588 l 1x300d08
167 588 m 1x300d0010
 238 588 l 1
 238 570 l 1
 167 570 l 1
 167 588 l 1x300d0010
250 588 m 1x300d000040
 322 588 l 1x300e000040
 322 502 l 1
 305 502 l 1
 305 570 l 1x300d000010
 250 570 l 1
 250 588 l 1x300d000040
322 486 m 1x300c000010
 322 405 l 1
 305 405 l 1
 305 486 l 1
 322 486 l 1x300c000010
322 387 m 1
 322 311 l 1
 305 310 l 1
 305 387 l 1
 322 387 l 1
322 294 m 1
 322 209 l 1
 305 208 l 1
 305 294 l 1
 322 294 l 1
132 280 m 2
 133 281 133 280 144 286 c 1
 144 287 l 1
 146 285 146 286 147 282 c 1
 156 282 l 1
 158 283 158 283 168 285 c 1
 168 276 l 1
 174 278 180 280 186 282 c 1
 191 282 l 2
 212 282 217 249 184 235 c 0
 180 234 167 229 167 229 c 2
 167 206 l 1
 160 203 161 203 158 202 c 1
 158 274 l 1
 146 274 l 1
 146 231 l 1
 143 229 140 229 137 228 c 1
 137 236 l 1
 135 235 134 234 132 233 c 0
 127 231 123 230 118 228 c 0
 112 228 97 228 91 240 c 1
 91 243 l 1
 99 245 100 246 100 246 c 0
 112 246 117 254 117 262 c 0
 117 267 115 275 102 275 c 1
 102 280 l 1
 105 280 107 282 108 282 c 2
 110 282 l 2
 112 282 127 282 127 262 c 0
 127 247 114 242 106 239 c 1
 113 237 113 237 114 237 c 0
 123 235 134 242 137 250 c 1
 137 273 l 2x305c06a0
 137 273 132 278 132 279 c 2
 132 280 l 2
48 280 m 2
 49 281 49 280 60 286 c 0
 63 282 l 2
 74 282 l 1
 76 283 76 283 86 285 c 1
 85 282 85 278 85 273 c 2
 85 206 l 1
 78 203 78 203 75 202 c 1
 75 274 l 1
 62 274 l 1
 62 231 l 1
 59 229 56 229 53 228 c 1
 53 273 l 1x305c30
 50 278 48 277 48 279 c 2
 48 280 l 2
211 281 m 0
 214 283 222 286 222 286 c 0x303c0001
 224 284 224 285 226 282 c 1
 257 282 l 1
 259 283 259 283 269 285 c 1
 269 283 268 280 268 276 c 2
 268 256 l 1
 270 256 l 2
 275 256 280 257 284 257 c 2
 289 257 l 1
 289 256 288 253 286 247 c 0
 285 247 284 248 282 248 c 0
 280 248 275 249 268 249 c 1
 268 206 l 1
 261 203 261 203 258 202 c 1
 258 274 l 1
 247 274 l 1
 247 231 l 1
 240 228 241 228 238 227 c 1
 238 274 l 1
 226 274 l 1
 226 206 l 1
 219 203 219 203 216 202 c 1
 216 273 l 1x303c0002a0
 211 278 211 277 211 279 c 0
 211 280 211 280 211 281 c 0
170 238 m 0
 195 242 197 262 197 262 c 0
 198 264 200 274 185 274 c 0
 179 274 169 269 167 267 c 1
 167 238 l 1x301c0020
 168 238 169 238 170 238 c 0
117 220 m 0x310c02
 118 220 117 221 118 221 c 0
 119 221 120 221 120 220 c 2
 120 218 l 2
 120 216 120 216 114 204 c 1x308c02
 114 202 l 2
 114 201 113 201 113 201 c 2
 112 200 111 200 111 200 c 0
 109 206 103 219 103 219 c 2
 103 220 l 2
 103 221 105 221 106 221 c 0
 106 221 107 220 112 217 c 0
 113 217 113 218 114 218 c 0
 116 218 115 220 117 220 c 0x310c02
173 193 m 2x368c0508
 169 198 l 2
 169 200 l 1
 170 200 l 1x330c0508
 175 202 179 203 183 204 c 1
 183 178 l 1
 278 178 l 1
 278 178 280 179 282 179 c 0
 284 179 284 178 284 178 c 2
 284 177 283 176 281 170 c 1
 278 171 276 171 274 171 c 0
 269 172 266 172 263 171 c 0
 261 171 250 167 250 158 c 2
 250 153 l 2
 250 153 252 129 281 134 c 1
 281 129 l 1
 278 129 276 126 274 126 c 0
 270 125 266 126 263 126 c 0
 240 126 233 157 246 170 c 1
 231 170 l 1
 231 141 l 1
 227 127 210 126 210 126 c 0
 196 126 194 138 194 142 c 2
 194 170 l 1
 183 170 l 1
 183 103 l 1
 180 101 177 100 173 99 c 1
 173 170 l 1
 162 170 l 1
 162 128 l 1
 159 126 157 126 153 125 c 1
 153 170 l 1
 142 170 l 1
 142 137 l 1x368c054d40
 144 135 144 133 144 133 c 2
 145 131 146 131 146 130 c 2x368c0080
 145 129 l 1
 145 128 l 1
 142 126 138 126 134 125 c 1
 134 126 133 126 133 127 c 2
 133 129 l 1
 130 127 119 125 114 125 c 0
 99 125 98 142 98 144 c 2
 98 170 l 1
 87 170 l 1
 87 141 l 1
 83 127 66 126 66 126 c 0
 57 124 50 132 50 142 c 2
 50 170 l 1
 31 170 l 2
 29 171 l 0
 29 174 29 175 42 186 c 1
 44 184 46 181 48 178 c 1
 132 178 l 1
 132 193 l 1
 127 198 127 197 127 198 c 0
 128 200 128 201 140 203 c 0
 141 203 141 204 141 204 c 1
 142 204 l 1
 142 178 l 1
 173 178 l 1
 173 193 l 2x368c0508
322 191 m 1x300c000010
 322 112 l 1
 305 112 l 1
 305 191 l 1
 322 191 l 1x300c000010
69 134 m 0x360c
 74 134 78 136 78 143 c 2
 78 170 l 1
 60 170 l 1
 60 161 60 154 60 145 c 0
 60 134 68 134 69 134 c 0x360c
108 170 m 1x360c04
 108 146 l 2
 108 144 111 136 114 134 c 0
 116 133 119 134 123 134 c 2
 126 134 l 1
 128 135 130 136 132 138 c 1
 132 170 l 1
 108 170 l 1x360c04
213 134 m 0
 216 134 222 134 222 143 c 2
 222 170 l 1
 204 170 l 1
 204 147 l 2x360c0005
 204 143 204 134 213 134 c 0
151 118 m 2
 151 118 152 117 158 114 c 1
 158 114 160 115 163 117 c 0
 164 117 l 0
 164 118 l 0
 165 118 166 118 166 117 c 2
 166 114 l 1
 161 104 160 104 159 101 c 1
 159 99 l 2
 159 98 158 98 158 98 c 2x300c0020
 157 97 157 97 157 98 c 0
 156 100 155 102 149 116 c 1
 149 117 l 2
 149 118 150 118 151 118 c 2
322 95 m 1x300c000010
 322 14 l 1
 305 14 l 1
 305 95 l 1
 322 95 l 1x300c000010
322 -4 m 1
 322 -81 l 1
 305 -81 l 1
 305 -4 l 1
 322 -4 l 1
322 -98 m 1
 322 -188 l 1xb00c000040
 250 -188 l 1
 250 -171 l 1x700c000040
 305 -171 l 1x700c000010
 305 -98 l 1
 322 -98 l 1
83 -171 m 1x700c08
 154 -171 l 1
 154 -188 l 1
 83 -188 l 1
 83 -171 l 1x700c08
167 -171 m 1x700c0010
 238 -171 l 1
 238 -188 l 1
 167 -188 l 1
 167 -171 l 1x700c0010
EndSplineSet
Validated: 33
EndChar

StartChar: D
Encoding: 68 68 4
Width: 321
VWidth: 800
Flags: W
HStem: -188 86<0 17 305 322> -188 17<17 70 83 154 167 238 250 305> -85 77<0 17 305 322> 14 81<0 17 305 322> 108 79<0 17 305 322> 126 8<61.9468 66 114.094 131.906 205.824 210> 170 8<45.2812 50 60 78 87 98 108 132 142 153 162 173 183 194 204 222 231 246 253.586 278 278.001 280.86> 200 17<107.758 111 111.001 113> 204 86<0 17 305 322> 228 9<106.464 130.053> 249 7<268 287.769> 274 8<63 74.9932 102 114.486 146.01 157.938 186 195.618 226 238 247 257.993> 306 77<0 17 305 322> 405 81<0 17 305 322> 498 90<0 17 305 322> 570 18<17 70 83 154 167 238 250 305>
VStem: 0 70<-188 -171 570 588> 0 17<-171 -102 -85 -8 10 90 108 187 204 290 306 383 401 481 498 570> 53 9<134.336 170 229.571 274> 75 10<134.417 170 203.875 273.926> 83 71<-188 -171 570 588> 98 10<135.019 170> 117 10<250.183 272.437> 127 15<193.23 201.967> 137 9<125.99 129 228.577 236 243.665 273> 153 9<125.477 170> 158 9<203.298 229 238 269.801> 167 71<-188 -171 570 588> 173 10<99.866 170 178 193 198 200> 194 10<134.857 170> 216 10<205.232 274> 222 9<134.872 170> 238 9<229.25 274> 250 72<-188 -171 570 588> 258 10<203.505 249 256 274> 305 17<-171 -98 -81 -4 14 95 112 191 209 294 311 387 405 486 502 570>
LayerCount: 2
Fore
SplineSet
0 481 m 1x300c40
 17 482 l 1
 17 401 l 1
 0 400 l 1
 0 481 l 1x300c40
0 383 m 1
 17 383 l 1
 17 306 l 1
 0 306 l 1
 0 383 l 1
0 290 m 1x308c40
 17 290 l 1
 17 204 l 1
 0 204 l 1
 0 290 l 1x308c40
0 187 m 1x380c40
 17 187 l 1
 17 108 l 1
 0 108 l 1
 0 187 l 1x380c40
0 90 m 1
 17 91 l 1
 17 10 l 1
 0 10 l 1
 0 90 l 1
0 -8 m 1
 17 -8 l 1
 17 -85 l 1
 0 -85 l 1
 0 -8 l 1
0 -102 m 1xb00c40
 17 -102 l 1xb00c40
 17 -171 l 1x700c40
 70 -171 l 1
 70 -188 l 1x700c80
 0 -188 l 1xb00c80
 0 -102 l 1xb00c40
0 588 m 1x300e80
 70 588 l 1
 70 570 l 1x300d80
 17 570 l 1x300d40
 17 498 l 1
 0 498 l 1x300e40
 0 528 0 558 0 588 c 1x300e80
83 588 m 1x300d08
 154 588 l 1
 154 570 l 1
 83 570 l 1
 83 588 l 1x300d08
167 588 m 1x300d0010
 238 588 l 1
 238 570 l 1
 167 570 l 1
 167 588 l 1x300d0010
250 588 m 1x300d000040
 322 588 l 1x300e000040
 322 502 l 1
 305 502 l 1
 305 570 l 1x300d000010
 250 570 l 1
 250 588 l 1x300d000040
322 486 m 1x300c000010
 322 405 l 1
 305 405 l 1
 305 486 l 1
 322 486 l 1x300c000010
322 387 m 1
 322 311 l 1
 305 310 l 1
 305 387 l 1
 322 387 l 1
322 294 m 1
 322 209 l 1
 305 208 l 1
 305 294 l 1
 322 294 l 1
132 280 m 2
 133 281 133 280 144 286 c 1
 144 287 l 1
 146 285 146 286 147 282 c 1
 156 282 l 1
 158 283 158 283 168 285 c 1
 168 276 l 1
 174 278 180 280 186 282 c 1
 191 282 l 2
 212 282 217 249 184 235 c 0
 180 234 167 229 167 229 c 2
 167 206 l 1
 160 203 161 203 158 202 c 1
 158 274 l 1
 146 274 l 1
 146 231 l 1
 143 229 140 229 137 228 c 1
 137 236 l 1
 135 235 134 234 132 233 c 0
 127 231 123 230 118 228 c 0
 112 228 97 228 91 240 c 1
 91 243 l 1
 99 245 100 246 100 246 c 0
 112 246 117 254 117 262 c 0
 117 267 115 275 102 275 c 1
 102 280 l 1
 105 280 107 282 108 282 c 2
 110 282 l 2
 112 282 127 282 127 262 c 0
 127 247 114 242 106 239 c 1
 113 237 113 237 114 237 c 0
 123 235 134 242 137 250 c 1
 137 273 l 2x305c06a0
 137 273 132 278 132 279 c 2
 132 280 l 2
48 280 m 2
 49 281 49 280 60 286 c 0
 63 282 l 2
 74 282 l 1
 76 283 76 283 86 285 c 1
 85 282 85 278 85 273 c 2
 85 206 l 1
 78 203 78 203 75 202 c 1
 75 274 l 1
 62 274 l 1
 62 231 l 1
 59 229 56 229 53 228 c 1
 53 273 l 1x305c30
 50 278 48 277 48 279 c 2
 48 280 l 2
211 281 m 0
 214 283 222 286 222 286 c 0x303c0001
 224 284 224 285 226 282 c 1
 257 282 l 1
 259 283 259 283 269 285 c 1
 269 283 268 280 268 276 c 2
 268 256 l 1
 270 256 l 2
 275 256 280 257 284 257 c 2
 289 257 l 1
 289 256 288 253 286 247 c 0
 285 247 284 248 282 248 c 0
 280 248 275 249 268 249 c 1
 268 206 l 1
 261 203 261 203 258 202 c 1
 258 274 l 1
 247 274 l 1
 247 231 l 1
 240 228 241 228 238 227 c 1
 238 274 l 1
 226 274 l 1
 226 206 l 1
 219 203 219 203 216 202 c 1
 216 273 l 1x303c0002a0
 211 278 211 277 211 279 c 0
 211 280 211 280 211 281 c 0
170 238 m 0
 195 242 197 262 197 262 c 0
 198 264 200 274 185 274 c 0
 179 274 169 269 167 267 c 1
 167 238 l 1x301c0020
 168 238 169 238 170 238 c 0
117 220 m 0x310c02
 118 220 117 221 118 221 c 0
 119 221 120 221 120 220 c 2
 120 218 l 2
 120 216 120 216 114 204 c 1x308c02
 114 202 l 2
 114 201 113 201 113 201 c 2
 112 200 111 200 111 200 c 0
 109 206 103 219 103 219 c 2
 103 220 l 2
 103 221 105 221 106 221 c 0
 106 221 107 220 112 217 c 0
 113 217 113 218 114 218 c 0
 116 218 115 220 117 220 c 0x310c02
173 193 m 2x368c0508
 169 198 l 2
 169 200 l 1
 170 200 l 1x330c0508
 175 202 179 203 183 204 c 1
 183 178 l 1
 278 178 l 1
 278 178 280 179 282 179 c 0
 284 179 284 178 284 178 c 2
 284 177 283 176 281 170 c 1
 278 171 276 171 274 171 c 0
 269 172 266 172 263 171 c 0
 261 171 250 167 250 158 c 2
 250 153 l 2
 250 153 252 129 281 134 c 1
 281 129 l 1
 278 129 276 126 274 126 c 0
 270 125 266 126 263 126 c 0
 240 126 233 157 246 170 c 1
 231 170 l 1
 231 141 l 1
 227 127 210 126 210 126 c 0
 196 126 194 138 194 142 c 2
 194 170 l 1
 183 170 l 1
 183 103 l 1
 180 101 177 100 173 99 c 1
 173 170 l 1
 162 170 l 1
 162 128 l 1
 159 126 157 126 153 125 c 1
 153 170 l 1
 142 170 l 1
 142 137 l 1x368c054d40
 144 135 144 133 144 133 c 2
 145 131 146 131 146 130 c 2x368c0080
 145 129 l 1
 145 128 l 1
 142 126 138 126 134 125 c 1
 134 126 133 126 133 127 c 2
 133 129 l 1
 130 127 119 125 114 125 c 0
 99 125 98 142 98 144 c 2
 98 170 l 1
 87 170 l 1
 87 141 l 1
 83 127 66 126 66 126 c 0
 57 124 50 132 50 142 c 2
 50 170 l 1
 31 170 l 2
 29 171 l 0
 29 174 29 175 42 186 c 1
 44 184 46 181 48 178 c 1
 132 178 l 1
 132 193 l 1
 127 198 127 197 127 198 c 0
 128 200 128 201 140 203 c 0
 141 203 141 204 141 204 c 1
 142 204 l 1
 142 178 l 1
 173 178 l 1
 173 193 l 2x368c0508
322 191 m 1x300c000010
 322 112 l 1
 305 112 l 1
 305 191 l 1
 322 191 l 1x300c000010
69 134 m 0x360c
 74 134 78 136 78 143 c 2
 78 170 l 1
 60 170 l 1
 60 161 60 154 60 145 c 0
 60 134 68 134 69 134 c 0x360c
108 170 m 1x360c04
 108 146 l 2
 108 144 111 136 114 134 c 0
 116 133 119 134 123 134 c 2
 126 134 l 1
 128 135 130 136 132 138 c 1
 132 170 l 1
 108 170 l 1x360c04
213 134 m 0
 216 134 222 134 222 143 c 2
 222 170 l 1
 204 170 l 1
 204 147 l 2x360c0005
 204 143 204 134 213 134 c 0
151 118 m 2
 151 118 152 117 158 114 c 1
 158 114 160 115 163 117 c 0
 164 117 l 0
 164 118 l 0
 165 118 166 118 166 117 c 2
 166 114 l 1
 161 104 160 104 159 101 c 1
 159 99 l 2
 159 98 158 98 158 98 c 2x300c0020
 157 97 157 97 157 98 c 0
 156 100 155 102 149 116 c 1
 149 117 l 2
 149 118 150 118 151 118 c 2
322 95 m 1x300c000010
 322 14 l 1
 305 14 l 1
 305 95 l 1
 322 95 l 1x300c000010
322 -4 m 1
 322 -81 l 1
 305 -81 l 1
 305 -4 l 1
 322 -4 l 1
322 -98 m 1
 322 -188 l 1xb00c000040
 250 -188 l 1
 250 -171 l 1x700c000040
 305 -171 l 1x700c000010
 305 -98 l 1
 322 -98 l 1
83 -171 m 1x700c08
 154 -171 l 1
 154 -188 l 1
 83 -188 l 1
 83 -171 l 1x700c08
167 -171 m 1x700c0010
 238 -171 l 1
 238 -188 l 1
 167 -188 l 1
 167 -171 l 1x700c0010
EndSplineSet
Validated: 33
EndChar

StartChar: E
Encoding: 69 69 5
Width: 321
VWidth: 800
Flags: W
HStem: -188 86<0 17 305 322> -188 17<17 70 83 154 167 238 250 305> -85 77<0 17 305 322> 14 81<0 17 305 322> 108 79<0 17 305 322> 126 8<61.9468 66 114.094 131.906 205.824 210> 170 8<45.2812 50 60 78 87 98 108 132 142 153 162 173 183 194 204 222 231 246 253.586 278 278.001 280.86> 200 17<107.758 111 111.001 113> 204 86<0 17 305 322> 228 9<106.464 130.053> 249 7<268 287.769> 274 8<63 74.9932 102 114.486 146.01 157.938 186 195.618 226 238 247 257.993> 306 77<0 17 305 322> 405 81<0 17 305 322> 498 90<0 17 305 322> 570 18<17 70 83 154 167 238 250 305>
VStem: 0 70<-188 -171 570 588> 0 17<-171 -102 -85 -8 10 90 108 187 204 290 306 383 401 481 498 570> 53 9<134.336 170 229.571 274> 75 10<134.417 170 203.875 273.926> 83 71<-188 -171 570 588> 98 10<135.019 170> 117 10<250.183 272.437> 127 15<193.23 201.967> 137 9<125.99 129 228.577 236 243.665 273> 153 9<125.477 170> 158 9<203.298 229 238 269.801> 167 71<-188 -171 570 588> 173 10<99.866 170 178 193 198 200> 194 10<134.857 170> 216 10<205.232 274> 222 9<134.872 170> 238 9<229.25 274> 250 72<-188 -171 570 588> 258 10<203.505 249 256 274> 305 17<-171 -98 -81 -4 14 95 112 191 209 294 311 387 405 486 502 570>
LayerCount: 2
Fore
SplineSet
0 481 m 1x300c40
 17 482 l 1
 17 401 l 1
 0 400 l 1
 0 481 l 1x300c40
0 383 m 1
 17 383 l 1
 17 306 l 1
 0 306 l 1
 0 383 l 1
0 290 m 1x308c40
 17 290 l 1
 17 204 l 1
 0 204 l 1
 0 290 l 1x308c40
0 187 m 1x380c40
 17 187 l 1
 17 108 l 1
 0 108 l 1
 0 187 l 1x380c40
0 90 m 1
 17 91 l 1
 17 10 l 1
 0 10 l 1
 0 90 l 1
0 -8 m 1
 17 -8 l 1
 17 -85 l 1
 0 -85 l 1
 0 -8 l 1
0 -102 m 1xb00c40
 17 -102 l 1xb00c40
 17 -171 l 1x700c40
 70 -171 l 1
 70 -188 l 1x700c80
 0 -188 l 1xb00c80
 0 -102 l 1xb00c40
0 588 m 1x300e80
 70 588 l 1
 70 570 l 1x300d80
 17 570 l 1x300d40
 17 498 l 1
 0 498 l 1x300e40
 0 528 0 558 0 588 c 1x300e80
83 588 m 1x300d08
 154 588 l 1
 154 570 l 1
 83 570 l 1
 83 588 l 1x300d08
167 588 m 1x300d0010
 238 588 l 1
 238 570 l 1
 167 570 l 1
 167 588 l 1x300d0010
250 588 m 1x300d000040
 322 588 l 1x300e000040
 322 502 l 1
 305 502 l 1
 305 570 l 1x300d000010
 250 570 l 1
 250 588 l 1x300d000040
322 486 m 1x300c000010
 322 405 l 1
 305 405 l 1
 305 486 l 1
 322 486 l 1x300c000010
322 387 m 1
 322 311 l 1
 305 310 l 1
 305 387 l 1
 322 387 l 1
322 294 m 1
 322 209 l 1
 305 208 l 1
 305 294 l 1
 322 294 l 1
132 280 m 2
 133 281 133 280 144 286 c 1
 144 287 l 1
 146 285 146 286 147 282 c 1
 156 282 l 1
 158 283 158 283 168 285 c 1
 168 276 l 1
 174 278 180 280 186 282 c 1
 191 282 l 2
 212 282 217 249 184 235 c 0
 180 234 167 229 167 229 c 2
 167 206 l 1
 160 203 161 203 158 202 c 1
 158 274 l 1
 146 274 l 1
 146 231 l 1
 143 229 140 229 137 228 c 1
 137 236 l 1
 135 235 134 234 132 233 c 0
 127 231 123 230 118 228 c 0
 112 228 97 228 91 240 c 1
 91 243 l 1
 99 245 100 246 100 246 c 0
 112 246 117 254 117 262 c 0
 117 267 115 275 102 275 c 1
 102 280 l 1
 105 280 107 282 108 282 c 2
 110 282 l 2
 112 282 127 282 127 262 c 0
 127 247 114 242 106 239 c 1
 113 237 113 237 114 237 c 0
 123 235 134 242 137 250 c 1
 137 273 l 2x305c06a0
 137 273 132 278 132 279 c 2
 132 280 l 2
48 280 m 2
 49 281 49 280 60 286 c 0
 63 282 l 2
 74 282 l 1
 76 283 76 283 86 285 c 1
 85 282 85 278 85 273 c 2
 85 206 l 1
 78 203 78 203 75 202 c 1
 75 274 l 1
 62 274 l 1
 62 231 l 1
 59 229 56 229 53 228 c 1
 53 273 l 1x305c30
 50 278 48 277 48 279 c 2
 48 280 l 2
211 281 m 0
 214 283 222 286 222 286 c 0x303c0001
 224 284 224 285 226 282 c 1
 257 282 l 1
 259 283 259 283 269 285 c 1
 269 283 268 280 268 276 c 2
 268 256 l 1
 270 256 l 2
 275 256 280 257 284 257 c 2
 289 257 l 1
 289 256 288 253 286 247 c 0
 285 247 284 248 282 248 c 0
 280 248 275 249 268 249 c 1
 268 206 l 1
 261 203 261 203 258 202 c 1
 258 274 l 1
 247 274 l 1
 247 231 l 1
 240 228 241 228 238 227 c 1
 238 274 l 1
 226 274 l 1
 226 206 l 1
 219 203 219 203 216 202 c 1
 216 273 l 1x303c0002a0
 211 278 211 277 211 279 c 0
 211 280 211 280 211 281 c 0
170 238 m 0
 195 242 197 262 197 262 c 0
 198 264 200 274 185 274 c 0
 179 274 169 269 167 267 c 1
 167 238 l 1x301c0020
 168 238 169 238 170 238 c 0
117 220 m 0x310c02
 118 220 117 221 118 221 c 0
 119 221 120 221 120 220 c 2
 120 218 l 2
 120 216 120 216 114 204 c 1x308c02
 114 202 l 2
 114 201 113 201 113 201 c 2
 112 200 111 200 111 200 c 0
 109 206 103 219 103 219 c 2
 103 220 l 2
 103 221 105 221 106 221 c 0
 106 221 107 220 112 217 c 0
 113 217 113 218 114 218 c 0
 116 218 115 220 117 220 c 0x310c02
173 193 m 2x368c0508
 169 198 l 2
 169 200 l 1
 170 200 l 1x330c0508
 175 202 179 203 183 204 c 1
 183 178 l 1
 278 178 l 1
 278 178 280 179 282 179 c 0
 284 179 284 178 284 178 c 2
 284 177 283 176 281 170 c 1
 278 171 276 171 274 171 c 0
 269 172 266 172 263 171 c 0
 261 171 250 167 250 158 c 2
 250 153 l 2
 250 153 252 129 281 134 c 1
 281 129 l 1
 278 129 276 126 274 126 c 0
 270 125 266 126 263 126 c 0
 240 126 233 157 246 170 c 1
 231 170 l 1
 231 141 l 1
 227 127 210 126 210 126 c 0
 196 126 194 138 194 142 c 2
 194 170 l 1
 183 170 l 1
 183 103 l 1
 180 101 177 100 173 99 c 1
 173 170 l 1
 162 170 l 1
 162 128 l 1
 159 126 157 126 153 125 c 1
 153 170 l 1
 142 170 l 1
 142 137 l 1x368c054d40
 144 135 144 133 144 133 c 2
 145 131 146 131 146 130 c 2x368c0080
 145 129 l 1
 145 128 l 1
 142 126 138 126 134 125 c 1
 134 126 133 126 133 127 c 2
 133 129 l 1
 130 127 119 125 114 125 c 0
 99 125 98 142 98 144 c 2
 98 170 l 1
 87 170 l 1
 87 141 l 1
 83 127 66 126 66 126 c 0
 57 124 50 132 50 142 c 2
 50 170 l 1
 31 170 l 2
 29 171 l 0
 29 174 29 175 42 186 c 1
 44 184 46 181 48 178 c 1
 132 178 l 1
 132 193 l 1
 127 198 127 197 127 198 c 0
 128 200 128 201 140 203 c 0
 141 203 141 204 141 204 c 1
 142 204 l 1
 142 178 l 1
 173 178 l 1
 173 193 l 2x368c0508
322 191 m 1x300c000010
 322 112 l 1
 305 112 l 1
 305 191 l 1
 322 191 l 1x300c000010
69 134 m 0x360c
 74 134 78 136 78 143 c 2
 78 170 l 1
 60 170 l 1
 60 161 60 154 60 145 c 0
 60 134 68 134 69 134 c 0x360c
108 170 m 1x360c04
 108 146 l 2
 108 144 111 136 114 134 c 0
 116 133 119 134 123 134 c 2
 126 134 l 1
 128 135 130 136 132 138 c 1
 132 170 l 1
 108 170 l 1x360c04
213 134 m 0
 216 134 222 134 222 143 c 2
 222 170 l 1
 204 170 l 1
 204 147 l 2x360c0005
 204 143 204 134 213 134 c 0
151 118 m 2
 151 118 152 117 158 114 c 1
 158 114 160 115 163 117 c 0
 164 117 l 0
 164 118 l 0
 165 118 166 118 166 117 c 2
 166 114 l 1
 161 104 160 104 159 101 c 1
 159 99 l 2
 159 98 158 98 158 98 c 2x300c0020
 157 97 157 97 157 98 c 0
 156 100 155 102 149 116 c 1
 149 117 l 2
 149 118 150 118 151 118 c 2
322 95 m 1x300c000010
 322 14 l 1
 305 14 l 1
 305 95 l 1
 322 95 l 1x300c000010
322 -4 m 1
 322 -81 l 1
 305 -81 l 1
 305 -4 l 1
 322 -4 l 1
322 -98 m 1
 322 -188 l 1xb00c000040
 250 -188 l 1
 250 -171 l 1x700c000040
 305 -171 l 1x700c000010
 305 -98 l 1
 322 -98 l 1
83 -171 m 1x700c08
 154 -171 l 1
 154 -188 l 1
 83 -188 l 1
 83 -171 l 1x700c08
167 -171 m 1x700c0010
 238 -171 l 1
 238 -188 l 1
 167 -188 l 1
 167 -171 l 1x700c0010
EndSplineSet
Validated: 33
EndChar

StartChar: F
Encoding: 70 70 6
Width: 321
VWidth: 800
Flags: W
HStem: -188 86<0 17 305 322> -188 17<17 70 83 154 167 238 250 305> -85 77<0 17 305 322> 14 81<0 17 305 322> 108 79<0 17 305 322> 126 8<61.9468 66 114.094 131.906 205.824 210> 170 8<45.2812 50 60 78 87 98 108 132 142 153 162 173 183 194 204 222 231 246 253.586 278 278.001 280.86> 200 17<107.758 111 111.001 113> 204 86<0 17 305 322> 228 9<106.464 130.053> 249 7<268 287.769> 274 8<63 74.9932 102 114.486 146.01 157.938 186 195.618 226 238 247 257.993> 306 77<0 17 305 322> 405 81<0 17 305 322> 498 90<0 17 305 322> 570 18<17 70 83 154 167 238 250 305>
VStem: 0 70<-188 -171 570 588> 0 17<-171 -102 -85 -8 10 90 108 187 204 290 306 383 401 481 498 570> 53 9<134.336 170 229.571 274> 75 10<134.417 170 203.875 273.926> 83 71<-188 -171 570 588> 98 10<135.019 170> 117 10<250.183 272.437> 127 15<193.23 201.967> 137 9<125.99 129 228.577 236 243.665 273> 153 9<125.477 170> 158 9<203.298 229 238 269.801> 167 71<-188 -171 570 588> 173 10<99.866 170 178 193 198 200> 194 10<134.857 170> 216 10<205.232 274> 222 9<134.872 170> 238 9<229.25 274> 250 72<-188 -171 570 588> 258 10<203.505 249 256 274> 305 17<-171 -98 -81 -4 14 95 112 191 209 294 311 387 405 486 502 570>
LayerCount: 2
Fore
SplineSet
0 481 m 1x300c40
 17 482 l 1
 17 401 l 1
 0 400 l 1
 0 481 l 1x300c40
0 383 m 1
 17 383 l 1
 17 306 l 1
 0 306 l 1
 0 383 l 1
0 290 m 1x308c40
 17 290 l 1
 17 204 l 1
 0 204 l 1
 0 290 l 1x308c40
0 187 m 1x380c40
 17 187 l 1
 17 108 l 1
 0 108 l 1
 0 187 l 1x380c40
0 90 m 1
 17 91 l 1
 17 10 l 1
 0 10 l 1
 0 90 l 1
0 -8 m 1
 17 -8 l 1
 17 -85 l 1
 0 -85 l 1
 0 -8 l 1
0 -102 m 1xb00c40
 17 -102 l 1xb00c40
 17 -171 l 1x700c40
 70 -171 l 1
 70 -188 l 1x700c80
 0 -188 l 1xb00c80
 0 -102 l 1xb00c40
0 588 m 1x300e80
 70 588 l 1
 70 570 l 1x300d80
 17 570 l 1x300d40
 17 498 l 1
 0 498 l 1x300e40
 0 528 0 558 0 588 c 1x300e80
83 588 m 1x300d08
 154 588 l 1
 154 570 l 1
 83 570 l 1
 83 588 l 1x300d08
167 588 m 1x300d0010
 238 588 l 1
 238 570 l 1
 167 570 l 1
 167 588 l 1x300d0010
250 588 m 1x300d000040
 322 588 l 1x300e000040
 322 502 l 1
 305 502 l 1
 305 570 l 1x300d000010
 250 570 l 1
 250 588 l 1x300d000040
322 486 m 1x300c000010
 322 405 l 1
 305 405 l 1
 305 486 l 1
 322 486 l 1x300c000010
322 387 m 1
 322 311 l 1
 305 310 l 1
 305 387 l 1
 322 387 l 1
322 294 m 1
 322 209 l 1
 305 208 l 1
 305 294 l 1
 322 294 l 1
132 280 m 2
 133 281 133 280 144 286 c 1
 144 287 l 1
 146 285 146 286 147 282 c 1
 156 282 l 1
 158 283 158 283 168 285 c 1
 168 276 l 1
 174 278 180 280 186 282 c 1
 191 282 l 2
 212 282 217 249 184 235 c 0
 180 234 167 229 167 229 c 2
 167 206 l 1
 160 203 161 203 158 202 c 1
 158 274 l 1
 146 274 l 1
 146 231 l 1
 143 229 140 229 137 228 c 1
 137 236 l 1
 135 235 134 234 132 233 c 0
 127 231 123 230 118 228 c 0
 112 228 97 228 91 240 c 1
 91 243 l 1
 99 245 100 246 100 246 c 0
 112 246 117 254 117 262 c 0
 117 267 115 275 102 275 c 1
 102 280 l 1
 105 280 107 282 108 282 c 2
 110 282 l 2
 112 282 127 282 127 262 c 0
 127 247 114 242 106 239 c 1
 113 237 113 237 114 237 c 0
 123 235 134 242 137 250 c 1
 137 273 l 2x305c06a0
 137 273 132 278 132 279 c 2
 132 280 l 2
48 280 m 2
 49 281 49 280 60 286 c 0
 63 282 l 2
 74 282 l 1
 76 283 76 283 86 285 c 1
 85 282 85 278 85 273 c 2
 85 206 l 1
 78 203 78 203 75 202 c 1
 75 274 l 1
 62 274 l 1
 62 231 l 1
 59 229 56 229 53 228 c 1
 53 273 l 1x305c30
 50 278 48 277 48 279 c 2
 48 280 l 2
211 281 m 0
 214 283 222 286 222 286 c 0x303c0001
 224 284 224 285 226 282 c 1
 257 282 l 1
 259 283 259 283 269 285 c 1
 269 283 268 280 268 276 c 2
 268 256 l 1
 270 256 l 2
 275 256 280 257 284 257 c 2
 289 257 l 1
 289 256 288 253 286 247 c 0
 285 247 284 248 282 248 c 0
 280 248 275 249 268 249 c 1
 268 206 l 1
 261 203 261 203 258 202 c 1
 258 274 l 1
 247 274 l 1
 247 231 l 1
 240 228 241 228 238 227 c 1
 238 274 l 1
 226 274 l 1
 226 206 l 1
 219 203 219 203 216 202 c 1
 216 273 l 1x303c0002a0
 211 278 211 277 211 279 c 0
 211 280 211 280 211 281 c 0
170 238 m 0
 195 242 197 262 197 262 c 0
 198 264 200 274 185 274 c 0
 179 274 169 269 167 267 c 1
 167 238 l 1x301c0020
 168 238 169 238 170 238 c 0
117 220 m 0x310c02
 118 220 117 221 118 221 c 0
 119 221 120 221 120 220 c 2
 120 218 l 2
 120 216 120 216 114 204 c 1x308c02
 114 202 l 2
 114 201 113 201 113 201 c 2
 112 200 111 200 111 200 c 0
 109 206 103 219 103 219 c 2
 103 220 l 2
 103 221 105 221 106 221 c 0
 106 221 107 220 112 217 c 0
 113 217 113 218 114 218 c 0
 116 218 115 220 117 220 c 0x310c02
173 193 m 2x368c0508
 169 198 l 2
 169 200 l 1
 170 200 l 1x330c0508
 175 202 179 203 183 204 c 1
 183 178 l 1
 278 178 l 1
 278 178 280 179 282 179 c 0
 284 179 284 178 284 178 c 2
 284 177 283 176 281 170 c 1
 278 171 276 171 274 171 c 0
 269 172 266 172 263 171 c 0
 261 171 250 167 250 158 c 2
 250 153 l 2
 250 153 252 129 281 134 c 1
 281 129 l 1
 278 129 276 126 274 126 c 0
 270 125 266 126 263 126 c 0
 240 126 233 157 246 170 c 1
 231 170 l 1
 231 141 l 1
 227 127 210 126 210 126 c 0
 196 126 194 138 194 142 c 2
 194 170 l 1
 183 170 l 1
 183 103 l 1
 180 101 177 100 173 99 c 1
 173 170 l 1
 162 170 l 1
 162 128 l 1
 159 126 157 126 153 125 c 1
 153 170 l 1
 142 170 l 1
 142 137 l 1x368c054d40
 144 135 144 133 144 133 c 2
 145 131 146 131 146 130 c 2x368c0080
 145 129 l 1
 145 128 l 1
 142 126 138 126 134 125 c 1
 134 126 133 126 133 127 c 2
 133 129 l 1
 130 127 119 125 114 125 c 0
 99 125 98 142 98 144 c 2
 98 170 l 1
 87 170 l 1
 87 141 l 1
 83 127 66 126 66 126 c 0
 57 124 50 132 50 142 c 2
 50 170 l 1
 31 170 l 2
 29 171 l 0
 29 174 29 175 42 186 c 1
 44 184 46 181 48 178 c 1
 132 178 l 1
 132 193 l 1
 127 198 127 197 127 198 c 0
 128 200 128 201 140 203 c 0
 141 203 141 204 141 204 c 1
 142 204 l 1
 142 178 l 1
 173 178 l 1
 173 193 l 2x368c0508
322 191 m 1x300c000010
 322 112 l 1
 305 112 l 1
 305 191 l 1
 322 191 l 1x300c000010
69 134 m 0x360c
 74 134 78 136 78 143 c 2
 78 170 l 1
 60 170 l 1
 60 161 60 154 60 145 c 0
 60 134 68 134 69 134 c 0x360c
108 170 m 1x360c04
 108 146 l 2
 108 144 111 136 114 134 c 0
 116 133 119 134 123 134 c 2
 126 134 l 1
 128 135 130 136 132 138 c 1
 132 170 l 1
 108 170 l 1x360c04
213 134 m 0
 216 134 222 134 222 143 c 2
 222 170 l 1
 204 170 l 1
 204 147 l 2x360c0005
 204 143 204 134 213 134 c 0
151 118 m 2
 151 118 152 117 158 114 c 1
 158 114 160 115 163 117 c 0
 164 117 l 0
 164 118 l 0
 165 118 166 118 166 117 c 2
 166 114 l 1
 161 104 160 104 159 101 c 1
 159 99 l 2
 159 98 158 98 158 98 c 2x300c0020
 157 97 157 97 157 98 c 0
 156 100 155 102 149 116 c 1
 149 117 l 2
 149 118 150 118 151 118 c 2
322 95 m 1x300c000010
 322 14 l 1
 305 14 l 1
 305 95 l 1
 322 95 l 1x300c000010
322 -4 m 1
 322 -81 l 1
 305 -81 l 1
 305 -4 l 1
 322 -4 l 1
322 -98 m 1
 322 -188 l 1xb00c000040
 250 -188 l 1
 250 -171 l 1x700c000040
 305 -171 l 1x700c000010
 305 -98 l 1
 322 -98 l 1
83 -171 m 1x700c08
 154 -171 l 1
 154 -188 l 1
 83 -188 l 1
 83 -171 l 1x700c08
167 -171 m 1x700c0010
 238 -171 l 1
 238 -188 l 1
 167 -188 l 1
 167 -171 l 1x700c0010
EndSplineSet
Validated: 33
EndChar

StartChar: G
Encoding: 71 71 7
Width: 321
VWidth: 800
Flags: W
HStem: -188 86<0 17 305 322> -188 17<17 70 83 154 167 238 250 305> -85 77<0 17 305 322> 14 81<0 17 305 322> 108 79<0 17 305 322> 126 8<61.9468 66 114.094 131.906 205.824 210> 170 8<45.2812 50 60 78 87 98 108 132 142 153 162 173 183 194 204 222 231 246 253.586 278 278.001 280.86> 200 17<107.758 111 111.001 113> 204 86<0 17 305 322> 228 9<106.464 130.053> 249 7<268 287.769> 274 8<63 74.9932 102 114.486 146.01 157.938 186 195.618 226 238 247 257.993> 306 77<0 17 305 322> 405 81<0 17 305 322> 498 90<0 17 305 322> 570 18<17 70 83 154 167 238 250 305>
VStem: 0 70<-188 -171 570 588> 0 17<-171 -102 -85 -8 10 90 108 187 204 290 306 383 401 481 498 570> 53 9<134.336 170 229.571 274> 75 10<134.417 170 203.875 273.926> 83 71<-188 -171 570 588> 98 10<135.019 170> 117 10<250.183 272.437> 127 15<193.23 201.967> 137 9<125.99 129 228.577 236 243.665 273> 153 9<125.477 170> 158 9<203.298 229 238 269.801> 167 71<-188 -171 570 588> 173 10<99.866 170 178 193 198 200> 194 10<134.857 170> 216 10<205.232 274> 222 9<134.872 170> 238 9<229.25 274> 250 72<-188 -171 570 588> 258 10<203.505 249 256 274> 305 17<-171 -98 -81 -4 14 95 112 191 209 294 311 387 405 486 502 570>
LayerCount: 2
Fore
SplineSet
0 481 m 1x300c40
 17 482 l 1
 17 401 l 1
 0 400 l 1
 0 481 l 1x300c40
0 383 m 1
 17 383 l 1
 17 306 l 1
 0 306 l 1
 0 383 l 1
0 290 m 1x308c40
 17 290 l 1
 17 204 l 1
 0 204 l 1
 0 290 l 1x308c40
0 187 m 1x380c40
 17 187 l 1
 17 108 l 1
 0 108 l 1
 0 187 l 1x380c40
0 90 m 1
 17 91 l 1
 17 10 l 1
 0 10 l 1
 0 90 l 1
0 -8 m 1
 17 -8 l 1
 17 -85 l 1
 0 -85 l 1
 0 -8 l 1
0 -102 m 1xb00c40
 17 -102 l 1xb00c40
 17 -171 l 1x700c40
 70 -171 l 1
 70 -188 l 1x700c80
 0 -188 l 1xb00c80
 0 -102 l 1xb00c40
0 588 m 1x300e80
 70 588 l 1
 70 570 l 1x300d80
 17 570 l 1x300d40
 17 498 l 1
 0 498 l 1x300e40
 0 528 0 558 0 588 c 1x300e80
83 588 m 1x300d08
 154 588 l 1
 154 570 l 1
 83 570 l 1
 83 588 l 1x300d08
167 588 m 1x300d0010
 238 588 l 1
 238 570 l 1
 167 570 l 1
 167 588 l 1x300d0010
250 588 m 1x300d000040
 322 588 l 1x300e000040
 322 502 l 1
 305 502 l 1
 305 570 l 1x300d000010
 250 570 l 1
 250 588 l 1x300d000040
322 486 m 1x300c000010
 322 405 l 1
 305 405 l 1
 305 486 l 1
 322 486 l 1x300c000010
322 387 m 1
 322 311 l 1
 305 310 l 1
 305 387 l 1
 322 387 l 1
322 294 m 1
 322 209 l 1
 305 208 l 1
 305 294 l 1
 322 294 l 1
132 280 m 2
 133 281 133 280 144 286 c 1
 144 287 l 1
 146 285 146 286 147 282 c 1
 156 282 l 1
 158 283 158 283 168 285 c 1
 168 276 l 1
 174 278 180 280 186 282 c 1
 191 282 l 2
 212 282 217 249 184 235 c 0
 180 234 167 229 167 229 c 2
 167 206 l 1
 160 203 161 203 158 202 c 1
 158 274 l 1
 146 274 l 1
 146 231 l 1
 143 229 140 229 137 228 c 1
 137 236 l 1
 135 235 134 234 132 233 c 0
 127 231 123 230 118 228 c 0
 112 228 97 228 91 240 c 1
 91 243 l 1
 99 245 100 246 100 246 c 0
 112 246 117 254 117 262 c 0
 117 267 115 275 102 275 c 1
 102 280 l 1
 105 280 107 282 108 282 c 2
 110 282 l 2
 112 282 127 282 127 262 c 0
 127 247 114 242 106 239 c 1
 113 237 113 237 114 237 c 0
 123 235 134 242 137 250 c 1
 137 273 l 2x305c06a0
 137 273 132 278 132 279 c 2
 132 280 l 2
48 280 m 2
 49 281 49 280 60 286 c 0
 63 282 l 2
 74 282 l 1
 76 283 76 283 86 285 c 1
 85 282 85 278 85 273 c 2
 85 206 l 1
 78 203 78 203 75 202 c 1
 75 274 l 1
 62 274 l 1
 62 231 l 1
 59 229 56 229 53 228 c 1
 53 273 l 1x305c30
 50 278 48 277 48 279 c 2
 48 280 l 2
211 281 m 0
 214 283 222 286 222 286 c 0x303c0001
 224 284 224 285 226 282 c 1
 257 282 l 1
 259 283 259 283 269 285 c 1
 269 283 268 280 268 276 c 2
 268 256 l 1
 270 256 l 2
 275 256 280 257 284 257 c 2
 289 257 l 1
 289 256 288 253 286 247 c 0
 285 247 284 248 282 248 c 0
 280 248 275 249 268 249 c 1
 268 206 l 1
 261 203 261 203 258 202 c 1
 258 274 l 1
 247 274 l 1
 247 231 l 1
 240 228 241 228 238 227 c 1
 238 274 l 1
 226 274 l 1
 226 206 l 1
 219 203 219 203 216 202 c 1
 216 273 l 1x303c0002a0
 211 278 211 277 211 279 c 0
 211 280 211 280 211 281 c 0
170 238 m 0
 195 242 197 262 197 262 c 0
 198 264 200 274 185 274 c 0
 179 274 169 269 167 267 c 1
 167 238 l 1x301c0020
 168 238 169 238 170 238 c 0
117 220 m 0x310c02
 118 220 117 221 118 221 c 0
 119 221 120 221 120 220 c 2
 120 218 l 2
 120 216 120 216 114 204 c 1x308c02
 114 202 l 2
 114 201 113 201 113 201 c 2
 112 200 111 200 111 200 c 0
 109 206 103 219 103 219 c 2
 103 220 l 2
 103 221 105 221 106 221 c 0
 106 221 107 220 112 217 c 0
 113 217 113 218 114 218 c 0
 116 218 115 220 117 220 c 0x310c02
173 193 m 2x368c0508
 169 198 l 2
 169 200 l 1
 170 200 l 1x330c0508
 175 202 179 203 183 204 c 1
 183 178 l 1
 278 178 l 1
 278 178 280 179 282 179 c 0
 284 179 284 178 284 178 c 2
 284 177 283 176 281 170 c 1
 278 171 276 171 274 171 c 0
 269 172 266 172 263 171 c 0
 261 171 250 167 250 158 c 2
 250 153 l 2
 250 153 252 129 281 134 c 1
 281 129 l 1
 278 129 276 126 274 126 c 0
 270 125 266 126 263 126 c 0
 240 126 233 157 246 170 c 1
 231 170 l 1
 231 141 l 1
 227 127 210 126 210 126 c 0
 196 126 194 138 194 142 c 2
 194 170 l 1
 183 170 l 1
 183 103 l 1
 180 101 177 100 173 99 c 1
 173 170 l 1
 162 170 l 1
 162 128 l 1
 159 126 157 126 153 125 c 1
 153 170 l 1
 142 170 l 1
 142 137 l 1x368c054d40
 144 135 144 133 144 133 c 2
 145 131 146 131 146 130 c 2x368c0080
 145 129 l 1
 145 128 l 1
 142 126 138 126 134 125 c 1
 134 126 133 126 133 127 c 2
 133 129 l 1
 130 127 119 125 114 125 c 0
 99 125 98 142 98 144 c 2
 98 170 l 1
 87 170 l 1
 87 141 l 1
 83 127 66 126 66 126 c 0
 57 124 50 132 50 142 c 2
 50 170 l 1
 31 170 l 2
 29 171 l 0
 29 174 29 175 42 186 c 1
 44 184 46 181 48 178 c 1
 132 178 l 1
 132 193 l 1
 127 198 127 197 127 198 c 0
 128 200 128 201 140 203 c 0
 141 203 141 204 141 204 c 1
 142 204 l 1
 142 178 l 1
 173 178 l 1
 173 193 l 2x368c0508
322 191 m 1x300c000010
 322 112 l 1
 305 112 l 1
 305 191 l 1
 322 191 l 1x300c000010
69 134 m 0x360c
 74 134 78 136 78 143 c 2
 78 170 l 1
 60 170 l 1
 60 161 60 154 60 145 c 0
 60 134 68 134 69 134 c 0x360c
108 170 m 1x360c04
 108 146 l 2
 108 144 111 136 114 134 c 0
 116 133 119 134 123 134 c 2
 126 134 l 1
 128 135 130 136 132 138 c 1
 132 170 l 1
 108 170 l 1x360c04
213 134 m 0
 216 134 222 134 222 143 c 2
 222 170 l 1
 204 170 l 1
 204 147 l 2x360c0005
 204 143 204 134 213 134 c 0
151 118 m 2
 151 118 152 117 158 114 c 1
 158 114 160 115 163 117 c 0
 164 117 l 0
 164 118 l 0
 165 118 166 118 166 117 c 2
 166 114 l 1
 161 104 160 104 159 101 c 1
 159 99 l 2
 159 98 158 98 158 98 c 2x300c0020
 157 97 157 97 157 98 c 0
 156 100 155 102 149 116 c 1
 149 117 l 2
 149 118 150 118 151 118 c 2
322 95 m 1x300c000010
 322 14 l 1
 305 14 l 1
 305 95 l 1
 322 95 l 1x300c000010
322 -4 m 1
 322 -81 l 1
 305 -81 l 1
 305 -4 l 1
 322 -4 l 1
322 -98 m 1
 322 -188 l 1xb00c000040
 250 -188 l 1
 250 -171 l 1x700c000040
 305 -171 l 1x700c000010
 305 -98 l 1
 322 -98 l 1
83 -171 m 1x700c08
 154 -171 l 1
 154 -188 l 1
 83 -188 l 1
 83 -171 l 1x700c08
167 -171 m 1x700c0010
 238 -171 l 1
 238 -188 l 1
 167 -188 l 1
 167 -171 l 1x700c0010
EndSplineSet
Validated: 33
EndChar

StartChar: I
Encoding: 73 73 8
Width: 321
VWidth: 800
Flags: W
HStem: -188 86<0 17 305 322> -188 17<17 70 83 154 167 238 250 305> -85 77<0 17 305 322> 14 81<0 17 305 322> 108 79<0 17 305 322> 126 8<61.9468 66 114.094 131.906 205.824 210> 170 8<45.2812 50 60 78 87 98 108 132 142 153 162 173 183 194 204 222 231 246 253.586 278 278.001 280.86> 200 17<107.758 111 111.001 113> 204 86<0 17 305 322> 228 9<106.464 130.053> 249 7<268 287.769> 274 8<63 74.9932 102 114.486 146.01 157.938 186 195.618 226 238 247 257.993> 306 77<0 17 305 322> 405 81<0 17 305 322> 498 90<0 17 305 322> 570 18<17 70 83 154 167 238 250 305>
VStem: 0 70<-188 -171 570 588> 0 17<-171 -102 -85 -8 10 90 108 187 204 290 306 383 401 481 498 570> 53 9<134.336 170 229.571 274> 75 10<134.417 170 203.875 273.926> 83 71<-188 -171 570 588> 98 10<135.019 170> 117 10<250.183 272.437> 127 15<193.23 201.967> 137 9<125.99 129 228.577 236 243.665 273> 153 9<125.477 170> 158 9<203.298 229 238 269.801> 167 71<-188 -171 570 588> 173 10<99.866 170 178 193 198 200> 194 10<134.857 170> 216 10<205.232 274> 222 9<134.872 170> 238 9<229.25 274> 250 72<-188 -171 570 588> 258 10<203.505 249 256 274> 305 17<-171 -98 -81 -4 14 95 112 191 209 294 311 387 405 486 502 570>
LayerCount: 2
Fore
SplineSet
0 481 m 1x300c40
 17 482 l 1
 17 401 l 1
 0 400 l 1
 0 481 l 1x300c40
0 383 m 1
 17 383 l 1
 17 306 l 1
 0 306 l 1
 0 383 l 1
0 290 m 1x308c40
 17 290 l 1
 17 204 l 1
 0 204 l 1
 0 290 l 1x308c40
0 187 m 1x380c40
 17 187 l 1
 17 108 l 1
 0 108 l 1
 0 187 l 1x380c40
0 90 m 1
 17 91 l 1
 17 10 l 1
 0 10 l 1
 0 90 l 1
0 -8 m 1
 17 -8 l 1
 17 -85 l 1
 0 -85 l 1
 0 -8 l 1
0 -102 m 1xb00c40
 17 -102 l 1xb00c40
 17 -171 l 1x700c40
 70 -171 l 1
 70 -188 l 1x700c80
 0 -188 l 1xb00c80
 0 -102 l 1xb00c40
0 588 m 1x300e80
 70 588 l 1
 70 570 l 1x300d80
 17 570 l 1x300d40
 17 498 l 1
 0 498 l 1x300e40
 0 528 0 558 0 588 c 1x300e80
83 588 m 1x300d08
 154 588 l 1
 154 570 l 1
 83 570 l 1
 83 588 l 1x300d08
167 588 m 1x300d0010
 238 588 l 1
 238 570 l 1
 167 570 l 1
 167 588 l 1x300d0010
250 588 m 1x300d000040
 322 588 l 1x300e000040
 322 502 l 1
 305 502 l 1
 305 570 l 1x300d000010
 250 570 l 1
 250 588 l 1x300d000040
322 486 m 1x300c000010
 322 405 l 1
 305 405 l 1
 305 486 l 1
 322 486 l 1x300c000010
322 387 m 1
 322 311 l 1
 305 310 l 1
 305 387 l 1
 322 387 l 1
322 294 m 1
 322 209 l 1
 305 208 l 1
 305 294 l 1
 322 294 l 1
132 280 m 2
 133 281 133 280 144 286 c 1
 144 287 l 1
 146 285 146 286 147 282 c 1
 156 282 l 1
 158 283 158 283 168 285 c 1
 168 276 l 1
 174 278 180 280 186 282 c 1
 191 282 l 2
 212 282 217 249 184 235 c 0
 180 234 167 229 167 229 c 2
 167 206 l 1
 160 203 161 203 158 202 c 1
 158 274 l 1
 146 274 l 1
 146 231 l 1
 143 229 140 229 137 228 c 1
 137 236 l 1
 135 235 134 234 132 233 c 0
 127 231 123 230 118 228 c 0
 112 228 97 228 91 240 c 1
 91 243 l 1
 99 245 100 246 100 246 c 0
 112 246 117 254 117 262 c 0
 117 267 115 275 102 275 c 1
 102 280 l 1
 105 280 107 282 108 282 c 2
 110 282 l 2
 112 282 127 282 127 262 c 0
 127 247 114 242 106 239 c 1
 113 237 113 237 114 237 c 0
 123 235 134 242 137 250 c 1
 137 273 l 2x305c06a0
 137 273 132 278 132 279 c 2
 132 280 l 2
48 280 m 2
 49 281 49 280 60 286 c 0
 63 282 l 2
 74 282 l 1
 76 283 76 283 86 285 c 1
 85 282 85 278 85 273 c 2
 85 206 l 1
 78 203 78 203 75 202 c 1
 75 274 l 1
 62 274 l 1
 62 231 l 1
 59 229 56 229 53 228 c 1
 53 273 l 1x305c30
 50 278 48 277 48 279 c 2
 48 280 l 2
211 281 m 0
 214 283 222 286 222 286 c 0x303c0001
 224 284 224 285 226 282 c 1
 257 282 l 1
 259 283 259 283 269 285 c 1
 269 283 268 280 268 276 c 2
 268 256 l 1
 270 256 l 2
 275 256 280 257 284 257 c 2
 289 257 l 1
 289 256 288 253 286 247 c 0
 285 247 284 248 282 248 c 0
 280 248 275 249 268 249 c 1
 268 206 l 1
 261 203 261 203 258 202 c 1
 258 274 l 1
 247 274 l 1
 247 231 l 1
 240 228 241 228 238 227 c 1
 238 274 l 1
 226 274 l 1
 226 206 l 1
 219 203 219 203 216 202 c 1
 216 273 l 1x303c0002a0
 211 278 211 277 211 279 c 0
 211 280 211 280 211 281 c 0
170 238 m 0
 195 242 197 262 197 262 c 0
 198 264 200 274 185 274 c 0
 179 274 169 269 167 267 c 1
 167 238 l 1x301c0020
 168 238 169 238 170 238 c 0
117 220 m 0x310c02
 118 220 117 221 118 221 c 0
 119 221 120 221 120 220 c 2
 120 218 l 2
 120 216 120 216 114 204 c 1x308c02
 114 202 l 2
 114 201 113 201 113 201 c 2
 112 200 111 200 111 200 c 0
 109 206 103 219 103 219 c 2
 103 220 l 2
 103 221 105 221 106 221 c 0
 106 221 107 220 112 217 c 0
 113 217 113 218 114 218 c 0
 116 218 115 220 117 220 c 0x310c02
173 193 m 2x368c0508
 169 198 l 2
 169 200 l 1
 170 200 l 1x330c0508
 175 202 179 203 183 204 c 1
 183 178 l 1
 278 178 l 1
 278 178 280 179 282 179 c 0
 284 179 284 178 284 178 c 2
 284 177 283 176 281 170 c 1
 278 171 276 171 274 171 c 0
 269 172 266 172 263 171 c 0
 261 171 250 167 250 158 c 2
 250 153 l 2
 250 153 252 129 281 134 c 1
 281 129 l 1
 278 129 276 126 274 126 c 0
 270 125 266 126 263 126 c 0
 240 126 233 157 246 170 c 1
 231 170 l 1
 231 141 l 1
 227 127 210 126 210 126 c 0
 196 126 194 138 194 142 c 2
 194 170 l 1
 183 170 l 1
 183 103 l 1
 180 101 177 100 173 99 c 1
 173 170 l 1
 162 170 l 1
 162 128 l 1
 159 126 157 126 153 125 c 1
 153 170 l 1
 142 170 l 1
 142 137 l 1x368c054d40
 144 135 144 133 144 133 c 2
 145 131 146 131 146 130 c 2x368c0080
 145 129 l 1
 145 128 l 1
 142 126 138 126 134 125 c 1
 134 126 133 126 133 127 c 2
 133 129 l 1
 130 127 119 125 114 125 c 0
 99 125 98 142 98 144 c 2
 98 170 l 1
 87 170 l 1
 87 141 l 1
 83 127 66 126 66 126 c 0
 57 124 50 132 50 142 c 2
 50 170 l 1
 31 170 l 2
 29 171 l 0
 29 174 29 175 42 186 c 1
 44 184 46 181 48 178 c 1
 132 178 l 1
 132 193 l 1
 127 198 127 197 127 198 c 0
 128 200 128 201 140 203 c 0
 141 203 141 204 141 204 c 1
 142 204 l 1
 142 178 l 1
 173 178 l 1
 173 193 l 2x368c0508
322 191 m 1x300c000010
 322 112 l 1
 305 112 l 1
 305 191 l 1
 322 191 l 1x300c000010
69 134 m 0x360c
 74 134 78 136 78 143 c 2
 78 170 l 1
 60 170 l 1
 60 161 60 154 60 145 c 0
 60 134 68 134 69 134 c 0x360c
108 170 m 1x360c04
 108 146 l 2
 108 144 111 136 114 134 c 0
 116 133 119 134 123 134 c 2
 126 134 l 1
 128 135 130 136 132 138 c 1
 132 170 l 1
 108 170 l 1x360c04
213 134 m 0
 216 134 222 134 222 143 c 2
 222 170 l 1
 204 170 l 1
 204 147 l 2x360c0005
 204 143 204 134 213 134 c 0
151 118 m 2
 151 118 152 117 158 114 c 1
 158 114 160 115 163 117 c 0
 164 117 l 0
 164 118 l 0
 165 118 166 118 166 117 c 2
 166 114 l 1
 161 104 160 104 159 101 c 1
 159 99 l 2
 159 98 158 98 158 98 c 2x300c0020
 157 97 157 97 157 98 c 0
 156 100 155 102 149 116 c 1
 149 117 l 2
 149 118 150 118 151 118 c 2
322 95 m 1x300c000010
 322 14 l 1
 305 14 l 1
 305 95 l 1
 322 95 l 1x300c000010
322 -4 m 1
 322 -81 l 1
 305 -81 l 1
 305 -4 l 1
 322 -4 l 1
322 -98 m 1
 322 -188 l 1xb00c000040
 250 -188 l 1
 250 -171 l 1x700c000040
 305 -171 l 1x700c000010
 305 -98 l 1
 322 -98 l 1
83 -171 m 1x700c08
 154 -171 l 1
 154 -188 l 1
 83 -188 l 1
 83 -171 l 1x700c08
167 -171 m 1x700c0010
 238 -171 l 1
 238 -188 l 1
 167 -188 l 1
 167 -171 l 1x700c0010
EndSplineSet
Validated: 33
EndChar

StartChar: J
Encoding: 74 74 9
Width: 321
VWidth: 800
Flags: W
HStem: -188 86<0 17 305 322> -188 17<17 70 83 154 167 238 250 305> -85 77<0 17 305 322> 14 81<0 17 305 322> 108 79<0 17 305 322> 126 8<61.9468 66 114.094 131.906 205.824 210> 170 8<45.2812 50 60 78 87 98 108 132 142 153 162 173 183 194 204 222 231 246 253.586 278 278.001 280.86> 200 17<107.758 111 111.001 113> 204 86<0 17 305 322> 228 9<106.464 130.053> 249 7<268 287.769> 274 8<63 74.9932 102 114.486 146.01 157.938 186 195.618 226 238 247 257.993> 306 77<0 17 305 322> 405 81<0 17 305 322> 498 90<0 17 305 322> 570 18<17 70 83 154 167 238 250 305>
VStem: 0 70<-188 -171 570 588> 0 17<-171 -102 -85 -8 10 90 108 187 204 290 306 383 401 481 498 570> 53 9<134.336 170 229.571 274> 75 10<134.417 170 203.875 273.926> 83 71<-188 -171 570 588> 98 10<135.019 170> 117 10<250.183 272.437> 127 15<193.23 201.967> 137 9<125.99 129 228.577 236 243.665 273> 153 9<125.477 170> 158 9<203.298 229 238 269.801> 167 71<-188 -171 570 588> 173 10<99.866 170 178 193 198 200> 194 10<134.857 170> 216 10<205.232 274> 222 9<134.872 170> 238 9<229.25 274> 250 72<-188 -171 570 588> 258 10<203.505 249 256 274> 305 17<-171 -98 -81 -4 14 95 112 191 209 294 311 387 405 486 502 570>
LayerCount: 2
Fore
SplineSet
0 481 m 1x300c40
 17 482 l 1
 17 401 l 1
 0 400 l 1
 0 481 l 1x300c40
0 383 m 1
 17 383 l 1
 17 306 l 1
 0 306 l 1
 0 383 l 1
0 290 m 1x308c40
 17 290 l 1
 17 204 l 1
 0 204 l 1
 0 290 l 1x308c40
0 187 m 1x380c40
 17 187 l 1
 17 108 l 1
 0 108 l 1
 0 187 l 1x380c40
0 90 m 1
 17 91 l 1
 17 10 l 1
 0 10 l 1
 0 90 l 1
0 -8 m 1
 17 -8 l 1
 17 -85 l 1
 0 -85 l 1
 0 -8 l 1
0 -102 m 1xb00c40
 17 -102 l 1xb00c40
 17 -171 l 1x700c40
 70 -171 l 1
 70 -188 l 1x700c80
 0 -188 l 1xb00c80
 0 -102 l 1xb00c40
0 588 m 1x300e80
 70 588 l 1
 70 570 l 1x300d80
 17 570 l 1x300d40
 17 498 l 1
 0 498 l 1x300e40
 0 528 0 558 0 588 c 1x300e80
83 588 m 1x300d08
 154 588 l 1
 154 570 l 1
 83 570 l 1
 83 588 l 1x300d08
167 588 m 1x300d0010
 238 588 l 1
 238 570 l 1
 167 570 l 1
 167 588 l 1x300d0010
250 588 m 1x300d000040
 322 588 l 1x300e000040
 322 502 l 1
 305 502 l 1
 305 570 l 1x300d000010
 250 570 l 1
 250 588 l 1x300d000040
322 486 m 1x300c000010
 322 405 l 1
 305 405 l 1
 305 486 l 1
 322 486 l 1x300c000010
322 387 m 1
 322 311 l 1
 305 310 l 1
 305 387 l 1
 322 387 l 1
322 294 m 1
 322 209 l 1
 305 208 l 1
 305 294 l 1
 322 294 l 1
132 280 m 2
 133 281 133 280 144 286 c 1
 144 287 l 1
 146 285 146 286 147 282 c 1
 156 282 l 1
 158 283 158 283 168 285 c 1
 168 276 l 1
 174 278 180 280 186 282 c 1
 191 282 l 2
 212 282 217 249 184 235 c 0
 180 234 167 229 167 229 c 2
 167 206 l 1
 160 203 161 203 158 202 c 1
 158 274 l 1
 146 274 l 1
 146 231 l 1
 143 229 140 229 137 228 c 1
 137 236 l 1
 135 235 134 234 132 233 c 0
 127 231 123 230 118 228 c 0
 112 228 97 228 91 240 c 1
 91 243 l 1
 99 245 100 246 100 246 c 0
 112 246 117 254 117 262 c 0
 117 267 115 275 102 275 c 1
 102 280 l 1
 105 280 107 282 108 282 c 2
 110 282 l 2
 112 282 127 282 127 262 c 0
 127 247 114 242 106 239 c 1
 113 237 113 237 114 237 c 0
 123 235 134 242 137 250 c 1
 137 273 l 2x305c06a0
 137 273 132 278 132 279 c 2
 132 280 l 2
48 280 m 2
 49 281 49 280 60 286 c 0
 63 282 l 2
 74 282 l 1
 76 283 76 283 86 285 c 1
 85 282 85 278 85 273 c 2
 85 206 l 1
 78 203 78 203 75 202 c 1
 75 274 l 1
 62 274 l 1
 62 231 l 1
 59 229 56 229 53 228 c 1
 53 273 l 1x305c30
 50 278 48 277 48 279 c 2
 48 280 l 2
211 281 m 0
 214 283 222 286 222 286 c 0x303c0001
 224 284 224 285 226 282 c 1
 257 282 l 1
 259 283 259 283 269 285 c 1
 269 283 268 280 268 276 c 2
 268 256 l 1
 270 256 l 2
 275 256 280 257 284 257 c 2
 289 257 l 1
 289 256 288 253 286 247 c 0
 285 247 284 248 282 248 c 0
 280 248 275 249 268 249 c 1
 268 206 l 1
 261 203 261 203 258 202 c 1
 258 274 l 1
 247 274 l 1
 247 231 l 1
 240 228 241 228 238 227 c 1
 238 274 l 1
 226 274 l 1
 226 206 l 1
 219 203 219 203 216 202 c 1
 216 273 l 1x303c0002a0
 211 278 211 277 211 279 c 0
 211 280 211 280 211 281 c 0
170 238 m 0
 195 242 197 262 197 262 c 0
 198 264 200 274 185 274 c 0
 179 274 169 269 167 267 c 1
 167 238 l 1x301c0020
 168 238 169 238 170 238 c 0
117 220 m 0x310c02
 118 220 117 221 118 221 c 0
 119 221 120 221 120 220 c 2
 120 218 l 2
 120 216 120 216 114 204 c 1x308c02
 114 202 l 2
 114 201 113 201 113 201 c 2
 112 200 111 200 111 200 c 0
 109 206 103 219 103 219 c 2
 103 220 l 2
 103 221 105 221 106 221 c 0
 106 221 107 220 112 217 c 0
 113 217 113 218 114 218 c 0
 116 218 115 220 117 220 c 0x310c02
173 193 m 2x368c0508
 169 198 l 2
 169 200 l 1
 170 200 l 1x330c0508
 175 202 179 203 183 204 c 1
 183 178 l 1
 278 178 l 1
 278 178 280 179 282 179 c 0
 284 179 284 178 284 178 c 2
 284 177 283 176 281 170 c 1
 278 171 276 171 274 171 c 0
 269 172 266 172 263 171 c 0
 261 171 250 167 250 158 c 2
 250 153 l 2
 250 153 252 129 281 134 c 1
 281 129 l 1
 278 129 276 126 274 126 c 0
 270 125 266 126 263 126 c 0
 240 126 233 157 246 170 c 1
 231 170 l 1
 231 141 l 1
 227 127 210 126 210 126 c 0
 196 126 194 138 194 142 c 2
 194 170 l 1
 183 170 l 1
 183 103 l 1
 180 101 177 100 173 99 c 1
 173 170 l 1
 162 170 l 1
 162 128 l 1
 159 126 157 126 153 125 c 1
 153 170 l 1
 142 170 l 1
 142 137 l 1x368c054d40
 144 135 144 133 144 133 c 2
 145 131 146 131 146 130 c 2x368c0080
 145 129 l 1
 145 128 l 1
 142 126 138 126 134 125 c 1
 134 126 133 126 133 127 c 2
 133 129 l 1
 130 127 119 125 114 125 c 0
 99 125 98 142 98 144 c 2
 98 170 l 1
 87 170 l 1
 87 141 l 1
 83 127 66 126 66 126 c 0
 57 124 50 132 50 142 c 2
 50 170 l 1
 31 170 l 2
 29 171 l 0
 29 174 29 175 42 186 c 1
 44 184 46 181 48 178 c 1
 132 178 l 1
 132 193 l 1
 127 198 127 197 127 198 c 0
 128 200 128 201 140 203 c 0
 141 203 141 204 141 204 c 1
 142 204 l 1
 142 178 l 1
 173 178 l 1
 173 193 l 2x368c0508
322 191 m 1x300c000010
 322 112 l 1
 305 112 l 1
 305 191 l 1
 322 191 l 1x300c000010
69 134 m 0x360c
 74 134 78 136 78 143 c 2
 78 170 l 1
 60 170 l 1
 60 161 60 154 60 145 c 0
 60 134 68 134 69 134 c 0x360c
108 170 m 1x360c04
 108 146 l 2
 108 144 111 136 114 134 c 0
 116 133 119 134 123 134 c 2
 126 134 l 1
 128 135 130 136 132 138 c 1
 132 170 l 1
 108 170 l 1x360c04
213 134 m 0
 216 134 222 134 222 143 c 2
 222 170 l 1
 204 170 l 1
 204 147 l 2x360c0005
 204 143 204 134 213 134 c 0
151 118 m 2
 151 118 152 117 158 114 c 1
 158 114 160 115 163 117 c 0
 164 117 l 0
 164 118 l 0
 165 118 166 118 166 117 c 2
 166 114 l 1
 161 104 160 104 159 101 c 1
 159 99 l 2
 159 98 158 98 158 98 c 2x300c0020
 157 97 157 97 157 98 c 0
 156 100 155 102 149 116 c 1
 149 117 l 2
 149 118 150 118 151 118 c 2
322 95 m 1x300c000010
 322 14 l 1
 305 14 l 1
 305 95 l 1
 322 95 l 1x300c000010
322 -4 m 1
 322 -81 l 1
 305 -81 l 1
 305 -4 l 1
 322 -4 l 1
322 -98 m 1
 322 -188 l 1xb00c000040
 250 -188 l 1
 250 -171 l 1x700c000040
 305 -171 l 1x700c000010
 305 -98 l 1
 322 -98 l 1
83 -171 m 1x700c08
 154 -171 l 1
 154 -188 l 1
 83 -188 l 1
 83 -171 l 1x700c08
167 -171 m 1x700c0010
 238 -171 l 1
 238 -188 l 1
 167 -188 l 1
 167 -171 l 1x700c0010
EndSplineSet
Validated: 33
EndChar

StartChar: K
Encoding: 75 75 10
Width: 321
VWidth: 800
Flags: W
HStem: -188 86<0 17 305 322> -188 17<17 70 83 154 167 238 250 305> -85 77<0 17 305 322> 14 81<0 17 305 322> 108 79<0 17 305 322> 126 8<61.9468 66 114.094 131.906 205.824 210> 170 8<45.2812 50 60 78 87 98 108 132 142 153 162 173 183 194 204 222 231 246 253.586 278 278.001 280.86> 200 17<107.758 111 111.001 113> 204 86<0 17 305 322> 228 9<106.464 130.053> 249 7<268 287.769> 274 8<63 74.9932 102 114.486 146.01 157.938 186 195.618 226 238 247 257.993> 306 77<0 17 305 322> 405 81<0 17 305 322> 498 90<0 17 305 322> 570 18<17 70 83 154 167 238 250 305>
VStem: 0 70<-188 -171 570 588> 0 17<-171 -102 -85 -8 10 90 108 187 204 290 306 383 401 481 498 570> 53 9<134.336 170 229.571 274> 75 10<134.417 170 203.875 273.926> 83 71<-188 -171 570 588> 98 10<135.019 170> 117 10<250.183 272.437> 127 15<193.23 201.967> 137 9<125.99 129 228.577 236 243.665 273> 153 9<125.477 170> 158 9<203.298 229 238 269.801> 167 71<-188 -171 570 588> 173 10<99.866 170 178 193 198 200> 194 10<134.857 170> 216 10<205.232 274> 222 9<134.872 170> 238 9<229.25 274> 250 72<-188 -171 570 588> 258 10<203.505 249 256 274> 305 17<-171 -98 -81 -4 14 95 112 191 209 294 311 387 405 486 502 570>
LayerCount: 2
Fore
SplineSet
0 481 m 1x300c40
 17 482 l 1
 17 401 l 1
 0 400 l 1
 0 481 l 1x300c40
0 383 m 1
 17 383 l 1
 17 306 l 1
 0 306 l 1
 0 383 l 1
0 290 m 1x308c40
 17 290 l 1
 17 204 l 1
 0 204 l 1
 0 290 l 1x308c40
0 187 m 1x380c40
 17 187 l 1
 17 108 l 1
 0 108 l 1
 0 187 l 1x380c40
0 90 m 1
 17 91 l 1
 17 10 l 1
 0 10 l 1
 0 90 l 1
0 -8 m 1
 17 -8 l 1
 17 -85 l 1
 0 -85 l 1
 0 -8 l 1
0 -102 m 1xb00c40
 17 -102 l 1xb00c40
 17 -171 l 1x700c40
 70 -171 l 1
 70 -188 l 1x700c80
 0 -188 l 1xb00c80
 0 -102 l 1xb00c40
0 588 m 1x300e80
 70 588 l 1
 70 570 l 1x300d80
 17 570 l 1x300d40
 17 498 l 1
 0 498 l 1x300e40
 0 528 0 558 0 588 c 1x300e80
83 588 m 1x300d08
 154 588 l 1
 154 570 l 1
 83 570 l 1
 83 588 l 1x300d08
167 588 m 1x300d0010
 238 588 l 1
 238 570 l 1
 167 570 l 1
 167 588 l 1x300d0010
250 588 m 1x300d000040
 322 588 l 1x300e000040
 322 502 l 1
 305 502 l 1
 305 570 l 1x300d000010
 250 570 l 1
 250 588 l 1x300d000040
322 486 m 1x300c000010
 322 405 l 1
 305 405 l 1
 305 486 l 1
 322 486 l 1x300c000010
322 387 m 1
 322 311 l 1
 305 310 l 1
 305 387 l 1
 322 387 l 1
322 294 m 1
 322 209 l 1
 305 208 l 1
 305 294 l 1
 322 294 l 1
132 280 m 2
 133 281 133 280 144 286 c 1
 144 287 l 1
 146 285 146 286 147 282 c 1
 156 282 l 1
 158 283 158 283 168 285 c 1
 168 276 l 1
 174 278 180 280 186 282 c 1
 191 282 l 2
 212 282 217 249 184 235 c 0
 180 234 167 229 167 229 c 2
 167 206 l 1
 160 203 161 203 158 202 c 1
 158 274 l 1
 146 274 l 1
 146 231 l 1
 143 229 140 229 137 228 c 1
 137 236 l 1
 135 235 134 234 132 233 c 0
 127 231 123 230 118 228 c 0
 112 228 97 228 91 240 c 1
 91 243 l 1
 99 245 100 246 100 246 c 0
 112 246 117 254 117 262 c 0
 117 267 115 275 102 275 c 1
 102 280 l 1
 105 280 107 282 108 282 c 2
 110 282 l 2
 112 282 127 282 127 262 c 0
 127 247 114 242 106 239 c 1
 113 237 113 237 114 237 c 0
 123 235 134 242 137 250 c 1
 137 273 l 2x305c06a0
 137 273 132 278 132 279 c 2
 132 280 l 2
48 280 m 2
 49 281 49 280 60 286 c 0
 63 282 l 2
 74 282 l 1
 76 283 76 283 86 285 c 1
 85 282 85 278 85 273 c 2
 85 206 l 1
 78 203 78 203 75 202 c 1
 75 274 l 1
 62 274 l 1
 62 231 l 1
 59 229 56 229 53 228 c 1
 53 273 l 1x305c30
 50 278 48 277 48 279 c 2
 48 280 l 2
211 281 m 0
 214 283 222 286 222 286 c 0x303c0001
 224 284 224 285 226 282 c 1
 257 282 l 1
 259 283 259 283 269 285 c 1
 269 283 268 280 268 276 c 2
 268 256 l 1
 270 256 l 2
 275 256 280 257 284 257 c 2
 289 257 l 1
 289 256 288 253 286 247 c 0
 285 247 284 248 282 248 c 0
 280 248 275 249 268 249 c 1
 268 206 l 1
 261 203 261 203 258 202 c 1
 258 274 l 1
 247 274 l 1
 247 231 l 1
 240 228 241 228 238 227 c 1
 238 274 l 1
 226 274 l 1
 226 206 l 1
 219 203 219 203 216 202 c 1
 216 273 l 1x303c0002a0
 211 278 211 277 211 279 c 0
 211 280 211 280 211 281 c 0
170 238 m 0
 195 242 197 262 197 262 c 0
 198 264 200 274 185 274 c 0
 179 274 169 269 167 267 c 1
 167 238 l 1x301c0020
 168 238 169 238 170 238 c 0
117 220 m 0x310c02
 118 220 117 221 118 221 c 0
 119 221 120 221 120 220 c 2
 120 218 l 2
 120 216 120 216 114 204 c 1x308c02
 114 202 l 2
 114 201 113 201 113 201 c 2
 112 200 111 200 111 200 c 0
 109 206 103 219 103 219 c 2
 103 220 l 2
 103 221 105 221 106 221 c 0
 106 221 107 220 112 217 c 0
 113 217 113 218 114 218 c 0
 116 218 115 220 117 220 c 0x310c02
173 193 m 2x368c0508
 169 198 l 2
 169 200 l 1
 170 200 l 1x330c0508
 175 202 179 203 183 204 c 1
 183 178 l 1
 278 178 l 1
 278 178 280 179 282 179 c 0
 284 179 284 178 284 178 c 2
 284 177 283 176 281 170 c 1
 278 171 276 171 274 171 c 0
 269 172 266 172 263 171 c 0
 261 171 250 167 250 158 c 2
 250 153 l 2
 250 153 252 129 281 134 c 1
 281 129 l 1
 278 129 276 126 274 126 c 0
 270 125 266 126 263 126 c 0
 240 126 233 157 246 170 c 1
 231 170 l 1
 231 141 l 1
 227 127 210 126 210 126 c 0
 196 126 194 138 194 142 c 2
 194 170 l 1
 183 170 l 1
 183 103 l 1
 180 101 177 100 173 99 c 1
 173 170 l 1
 162 170 l 1
 162 128 l 1
 159 126 157 126 153 125 c 1
 153 170 l 1
 142 170 l 1
 142 137 l 1x368c054d40
 144 135 144 133 144 133 c 2
 145 131 146 131 146 130 c 2x368c0080
 145 129 l 1
 145 128 l 1
 142 126 138 126 134 125 c 1
 134 126 133 126 133 127 c 2
 133 129 l 1
 130 127 119 125 114 125 c 0
 99 125 98 142 98 144 c 2
 98 170 l 1
 87 170 l 1
 87 141 l 1
 83 127 66 126 66 126 c 0
 57 124 50 132 50 142 c 2
 50 170 l 1
 31 170 l 2
 29 171 l 0
 29 174 29 175 42 186 c 1
 44 184 46 181 48 178 c 1
 132 178 l 1
 132 193 l 1
 127 198 127 197 127 198 c 0
 128 200 128 201 140 203 c 0
 141 203 141 204 141 204 c 1
 142 204 l 1
 142 178 l 1
 173 178 l 1
 173 193 l 2x368c0508
322 191 m 1x300c000010
 322 112 l 1
 305 112 l 1
 305 191 l 1
 322 191 l 1x300c000010
69 134 m 0x360c
 74 134 78 136 78 143 c 2
 78 170 l 1
 60 170 l 1
 60 161 60 154 60 145 c 0
 60 134 68 134 69 134 c 0x360c
108 170 m 1x360c04
 108 146 l 2
 108 144 111 136 114 134 c 0
 116 133 119 134 123 134 c 2
 126 134 l 1
 128 135 130 136 132 138 c 1
 132 170 l 1
 108 170 l 1x360c04
213 134 m 0
 216 134 222 134 222 143 c 2
 222 170 l 1
 204 170 l 1
 204 147 l 2x360c0005
 204 143 204 134 213 134 c 0
151 118 m 2
 151 118 152 117 158 114 c 1
 158 114 160 115 163 117 c 0
 164 117 l 0
 164 118 l 0
 165 118 166 118 166 117 c 2
 166 114 l 1
 161 104 160 104 159 101 c 1
 159 99 l 2
 159 98 158 98 158 98 c 2x300c0020
 157 97 157 97 157 98 c 0
 156 100 155 102 149 116 c 1
 149 117 l 2
 149 118 150 118 151 118 c 2
322 95 m 1x300c000010
 322 14 l 1
 305 14 l 1
 305 95 l 1
 322 95 l 1x300c000010
322 -4 m 1
 322 -81 l 1
 305 -81 l 1
 305 -4 l 1
 322 -4 l 1
322 -98 m 1
 322 -188 l 1xb00c000040
 250 -188 l 1
 250 -171 l 1x700c000040
 305 -171 l 1x700c000010
 305 -98 l 1
 322 -98 l 1
83 -171 m 1x700c08
 154 -171 l 1
 154 -188 l 1
 83 -188 l 1
 83 -171 l 1x700c08
167 -171 m 1x700c0010
 238 -171 l 1
 238 -188 l 1
 167 -188 l 1
 167 -171 l 1x700c0010
EndSplineSet
Validated: 33
EndChar

StartChar: L
Encoding: 76 76 11
Width: 321
VWidth: 800
Flags: W
HStem: -188 86<0 17 305 322> -188 17<17 70 83 154 167 238 250 305> -85 77<0 17 305 322> 14 81<0 17 305 322> 108 79<0 17 305 322> 126 8<61.9468 66 114.094 131.906 205.824 210> 170 8<45.2812 50 60 78 87 98 108 132 142 153 162 173 183 194 204 222 231 246 253.586 278 278.001 280.86> 200 17<107.758 111 111.001 113> 204 86<0 17 305 322> 228 9<106.464 130.053> 249 7<268 287.769> 274 8<63 74.9932 102 114.486 146.01 157.938 186 195.618 226 238 247 257.993> 306 77<0 17 305 322> 405 81<0 17 305 322> 498 90<0 17 305 322> 570 18<17 70 83 154 167 238 250 305>
VStem: 0 70<-188 -171 570 588> 0 17<-171 -102 -85 -8 10 90 108 187 204 290 306 383 401 481 498 570> 53 9<134.336 170 229.571 274> 75 10<134.417 170 203.875 273.926> 83 71<-188 -171 570 588> 98 10<135.019 170> 117 10<250.183 272.437> 127 15<193.23 201.967> 137 9<125.99 129 228.577 236 243.665 273> 153 9<125.477 170> 158 9<203.298 229 238 269.801> 167 71<-188 -171 570 588> 173 10<99.866 170 178 193 198 200> 194 10<134.857 170> 216 10<205.232 274> 222 9<134.872 170> 238 9<229.25 274> 250 72<-188 -171 570 588> 258 10<203.505 249 256 274> 305 17<-171 -98 -81 -4 14 95 112 191 209 294 311 387 405 486 502 570>
LayerCount: 2
Fore
SplineSet
0 481 m 1x300c40
 17 482 l 1
 17 401 l 1
 0 400 l 1
 0 481 l 1x300c40
0 383 m 1
 17 383 l 1
 17 306 l 1
 0 306 l 1
 0 383 l 1
0 290 m 1x308c40
 17 290 l 1
 17 204 l 1
 0 204 l 1
 0 290 l 1x308c40
0 187 m 1x380c40
 17 187 l 1
 17 108 l 1
 0 108 l 1
 0 187 l 1x380c40
0 90 m 1
 17 91 l 1
 17 10 l 1
 0 10 l 1
 0 90 l 1
0 -8 m 1
 17 -8 l 1
 17 -85 l 1
 0 -85 l 1
 0 -8 l 1
0 -102 m 1xb00c40
 17 -102 l 1xb00c40
 17 -171 l 1x700c40
 70 -171 l 1
 70 -188 l 1x700c80
 0 -188 l 1xb00c80
 0 -102 l 1xb00c40
0 588 m 1x300e80
 70 588 l 1
 70 570 l 1x300d80
 17 570 l 1x300d40
 17 498 l 1
 0 498 l 1x300e40
 0 528 0 558 0 588 c 1x300e80
83 588 m 1x300d08
 154 588 l 1
 154 570 l 1
 83 570 l 1
 83 588 l 1x300d08
167 588 m 1x300d0010
 238 588 l 1
 238 570 l 1
 167 570 l 1
 167 588 l 1x300d0010
250 588 m 1x300d000040
 322 588 l 1x300e000040
 322 502 l 1
 305 502 l 1
 305 570 l 1x300d000010
 250 570 l 1
 250 588 l 1x300d000040
322 486 m 1x300c000010
 322 405 l 1
 305 405 l 1
 305 486 l 1
 322 486 l 1x300c000010
322 387 m 1
 322 311 l 1
 305 310 l 1
 305 387 l 1
 322 387 l 1
322 294 m 1
 322 209 l 1
 305 208 l 1
 305 294 l 1
 322 294 l 1
132 280 m 2
 133 281 133 280 144 286 c 1
 144 287 l 1
 146 285 146 286 147 282 c 1
 156 282 l 1
 158 283 158 283 168 285 c 1
 168 276 l 1
 174 278 180 280 186 282 c 1
 191 282 l 2
 212 282 217 249 184 235 c 0
 180 234 167 229 167 229 c 2
 167 206 l 1
 160 203 161 203 158 202 c 1
 158 274 l 1
 146 274 l 1
 146 231 l 1
 143 229 140 229 137 228 c 1
 137 236 l 1
 135 235 134 234 132 233 c 0
 127 231 123 230 118 228 c 0
 112 228 97 228 91 240 c 1
 91 243 l 1
 99 245 100 246 100 246 c 0
 112 246 117 254 117 262 c 0
 117 267 115 275 102 275 c 1
 102 280 l 1
 105 280 107 282 108 282 c 2
 110 282 l 2
 112 282 127 282 127 262 c 0
 127 247 114 242 106 239 c 1
 113 237 113 237 114 237 c 0
 123 235 134 242 137 250 c 1
 137 273 l 2x305c06a0
 137 273 132 278 132 279 c 2
 132 280 l 2
48 280 m 2
 49 281 49 280 60 286 c 0
 63 282 l 2
 74 282 l 1
 76 283 76 283 86 285 c 1
 85 282 85 278 85 273 c 2
 85 206 l 1
 78 203 78 203 75 202 c 1
 75 274 l 1
 62 274 l 1
 62 231 l 1
 59 229 56 229 53 228 c 1
 53 273 l 1x305c30
 50 278 48 277 48 279 c 2
 48 280 l 2
211 281 m 0
 214 283 222 286 222 286 c 0x303c0001
 224 284 224 285 226 282 c 1
 257 282 l 1
 259 283 259 283 269 285 c 1
 269 283 268 280 268 276 c 2
 268 256 l 1
 270 256 l 2
 275 256 280 257 284 257 c 2
 289 257 l 1
 289 256 288 253 286 247 c 0
 285 247 284 248 282 248 c 0
 280 248 275 249 268 249 c 1
 268 206 l 1
 261 203 261 203 258 202 c 1
 258 274 l 1
 247 274 l 1
 247 231 l 1
 240 228 241 228 238 227 c 1
 238 274 l 1
 226 274 l 1
 226 206 l 1
 219 203 219 203 216 202 c 1
 216 273 l 1x303c0002a0
 211 278 211 277 211 279 c 0
 211 280 211 280 211 281 c 0
170 238 m 0
 195 242 197 262 197 262 c 0
 198 264 200 274 185 274 c 0
 179 274 169 269 167 267 c 1
 167 238 l 1x301c0020
 168 238 169 238 170 238 c 0
117 220 m 0x310c02
 118 220 117 221 118 221 c 0
 119 221 120 221 120 220 c 2
 120 218 l 2
 120 216 120 216 114 204 c 1x308c02
 114 202 l 2
 114 201 113 201 113 201 c 2
 112 200 111 200 111 200 c 0
 109 206 103 219 103 219 c 2
 103 220 l 2
 103 221 105 221 106 221 c 0
 106 221 107 220 112 217 c 0
 113 217 113 218 114 218 c 0
 116 218 115 220 117 220 c 0x310c02
173 193 m 2x368c0508
 169 198 l 2
 169 200 l 1
 170 200 l 1x330c0508
 175 202 179 203 183 204 c 1
 183 178 l 1
 278 178 l 1
 278 178 280 179 282 179 c 0
 284 179 284 178 284 178 c 2
 284 177 283 176 281 170 c 1
 278 171 276 171 274 171 c 0
 269 172 266 172 263 171 c 0
 261 171 250 167 250 158 c 2
 250 153 l 2
 250 153 252 129 281 134 c 1
 281 129 l 1
 278 129 276 126 274 126 c 0
 270 125 266 126 263 126 c 0
 240 126 233 157 246 170 c 1
 231 170 l 1
 231 141 l 1
 227 127 210 126 210 126 c 0
 196 126 194 138 194 142 c 2
 194 170 l 1
 183 170 l 1
 183 103 l 1
 180 101 177 100 173 99 c 1
 173 170 l 1
 162 170 l 1
 162 128 l 1
 159 126 157 126 153 125 c 1
 153 170 l 1
 142 170 l 1
 142 137 l 1x368c054d40
 144 135 144 133 144 133 c 2
 145 131 146 131 146 130 c 2x368c0080
 145 129 l 1
 145 128 l 1
 142 126 138 126 134 125 c 1
 134 126 133 126 133 127 c 2
 133 129 l 1
 130 127 119 125 114 125 c 0
 99 125 98 142 98 144 c 2
 98 170 l 1
 87 170 l 1
 87 141 l 1
 83 127 66 126 66 126 c 0
 57 124 50 132 50 142 c 2
 50 170 l 1
 31 170 l 2
 29 171 l 0
 29 174 29 175 42 186 c 1
 44 184 46 181 48 178 c 1
 132 178 l 1
 132 193 l 1
 127 198 127 197 127 198 c 0
 128 200 128 201 140 203 c 0
 141 203 141 204 141 204 c 1
 142 204 l 1
 142 178 l 1
 173 178 l 1
 173 193 l 2x368c0508
322 191 m 1x300c000010
 322 112 l 1
 305 112 l 1
 305 191 l 1
 322 191 l 1x300c000010
69 134 m 0x360c
 74 134 78 136 78 143 c 2
 78 170 l 1
 60 170 l 1
 60 161 60 154 60 145 c 0
 60 134 68 134 69 134 c 0x360c
108 170 m 1x360c04
 108 146 l 2
 108 144 111 136 114 134 c 0
 116 133 119 134 123 134 c 2
 126 134 l 1
 128 135 130 136 132 138 c 1
 132 170 l 1
 108 170 l 1x360c04
213 134 m 0
 216 134 222 134 222 143 c 2
 222 170 l 1
 204 170 l 1
 204 147 l 2x360c0005
 204 143 204 134 213 134 c 0
151 118 m 2
 151 118 152 117 158 114 c 1
 158 114 160 115 163 117 c 0
 164 117 l 0
 164 118 l 0
 165 118 166 118 166 117 c 2
 166 114 l 1
 161 104 160 104 159 101 c 1
 159 99 l 2
 159 98 158 98 158 98 c 2x300c0020
 157 97 157 97 157 98 c 0
 156 100 155 102 149 116 c 1
 149 117 l 2
 149 118 150 118 151 118 c 2
322 95 m 1x300c000010
 322 14 l 1
 305 14 l 1
 305 95 l 1
 322 95 l 1x300c000010
322 -4 m 1
 322 -81 l 1
 305 -81 l 1
 305 -4 l 1
 322 -4 l 1
322 -98 m 1
 322 -188 l 1xb00c000040
 250 -188 l 1
 250 -171 l 1x700c000040
 305 -171 l 1x700c000010
 305 -98 l 1
 322 -98 l 1
83 -171 m 1x700c08
 154 -171 l 1
 154 -188 l 1
 83 -188 l 1
 83 -171 l 1x700c08
167 -171 m 1x700c0010
 238 -171 l 1
 238 -188 l 1
 167 -188 l 1
 167 -171 l 1x700c0010
EndSplineSet
Validated: 33
EndChar

StartChar: M
Encoding: 77 77 12
Width: 321
VWidth: 800
Flags: W
HStem: -188 86<0 17 305 322> -188 17<17 70 83 154 167 238 250 305> -85 77<0 17 305 322> 14 81<0 17 305 322> 108 79<0 17 305 322> 126 8<61.9468 66 114.094 131.906 205.824 210> 170 8<45.2812 50 60 78 87 98 108 132 142 153 162 173 183 194 204 222 231 246 253.586 278 278.001 280.86> 200 17<107.758 111 111.001 113> 204 86<0 17 305 322> 228 9<106.464 130.053> 249 7<268 287.769> 274 8<63 74.9932 102 114.486 146.01 157.938 186 195.618 226 238 247 257.993> 306 77<0 17 305 322> 405 81<0 17 305 322> 498 90<0 17 305 322> 570 18<17 70 83 154 167 238 250 305>
VStem: 0 70<-188 -171 570 588> 0 17<-171 -102 -85 -8 10 90 108 187 204 290 306 383 401 481 498 570> 53 9<134.336 170 229.571 274> 75 10<134.417 170 203.875 273.926> 83 71<-188 -171 570 588> 98 10<135.019 170> 117 10<250.183 272.437> 127 15<193.23 201.967> 137 9<125.99 129 228.577 236 243.665 273> 153 9<125.477 170> 158 9<203.298 229 238 269.801> 167 71<-188 -171 570 588> 173 10<99.866 170 178 193 198 200> 194 10<134.857 170> 216 10<205.232 274> 222 9<134.872 170> 238 9<229.25 274> 250 72<-188 -171 570 588> 258 10<203.505 249 256 274> 305 17<-171 -98 -81 -4 14 95 112 191 209 294 311 387 405 486 502 570>
LayerCount: 2
Fore
SplineSet
0 481 m 1x300c40
 17 482 l 1
 17 401 l 1
 0 400 l 1
 0 481 l 1x300c40
0 383 m 1
 17 383 l 1
 17 306 l 1
 0 306 l 1
 0 383 l 1
0 290 m 1x308c40
 17 290 l 1
 17 204 l 1
 0 204 l 1
 0 290 l 1x308c40
0 187 m 1x380c40
 17 187 l 1
 17 108 l 1
 0 108 l 1
 0 187 l 1x380c40
0 90 m 1
 17 91 l 1
 17 10 l 1
 0 10 l 1
 0 90 l 1
0 -8 m 1
 17 -8 l 1
 17 -85 l 1
 0 -85 l 1
 0 -8 l 1
0 -102 m 1xb00c40
 17 -102 l 1xb00c40
 17 -171 l 1x700c40
 70 -171 l 1
 70 -188 l 1x700c80
 0 -188 l 1xb00c80
 0 -102 l 1xb00c40
0 588 m 1x300e80
 70 588 l 1
 70 570 l 1x300d80
 17 570 l 1x300d40
 17 498 l 1
 0 498 l 1x300e40
 0 528 0 558 0 588 c 1x300e80
83 588 m 1x300d08
 154 588 l 1
 154 570 l 1
 83 570 l 1
 83 588 l 1x300d08
167 588 m 1x300d0010
 238 588 l 1
 238 570 l 1
 167 570 l 1
 167 588 l 1x300d0010
250 588 m 1x300d000040
 322 588 l 1x300e000040
 322 502 l 1
 305 502 l 1
 305 570 l 1x300d000010
 250 570 l 1
 250 588 l 1x300d000040
322 486 m 1x300c000010
 322 405 l 1
 305 405 l 1
 305 486 l 1
 322 486 l 1x300c000010
322 387 m 1
 322 311 l 1
 305 310 l 1
 305 387 l 1
 322 387 l 1
322 294 m 1
 322 209 l 1
 305 208 l 1
 305 294 l 1
 322 294 l 1
132 280 m 2
 133 281 133 280 144 286 c 1
 144 287 l 1
 146 285 146 286 147 282 c 1
 156 282 l 1
 158 283 158 283 168 285 c 1
 168 276 l 1
 174 278 180 280 186 282 c 1
 191 282 l 2
 212 282 217 249 184 235 c 0
 180 234 167 229 167 229 c 2
 167 206 l 1
 160 203 161 203 158 202 c 1
 158 274 l 1
 146 274 l 1
 146 231 l 1
 143 229 140 229 137 228 c 1
 137 236 l 1
 135 235 134 234 132 233 c 0
 127 231 123 230 118 228 c 0
 112 228 97 228 91 240 c 1
 91 243 l 1
 99 245 100 246 100 246 c 0
 112 246 117 254 117 262 c 0
 117 267 115 275 102 275 c 1
 102 280 l 1
 105 280 107 282 108 282 c 2
 110 282 l 2
 112 282 127 282 127 262 c 0
 127 247 114 242 106 239 c 1
 113 237 113 237 114 237 c 0
 123 235 134 242 137 250 c 1
 137 273 l 2x305c06a0
 137 273 132 278 132 279 c 2
 132 280 l 2
48 280 m 2
 49 281 49 280 60 286 c 0
 63 282 l 2
 74 282 l 1
 76 283 76 283 86 285 c 1
 85 282 85 278 85 273 c 2
 85 206 l 1
 78 203 78 203 75 202 c 1
 75 274 l 1
 62 274 l 1
 62 231 l 1
 59 229 56 229 53 228 c 1
 53 273 l 1x305c30
 50 278 48 277 48 279 c 2
 48 280 l 2
211 281 m 0
 214 283 222 286 222 286 c 0x303c0001
 224 284 224 285 226 282 c 1
 257 282 l 1
 259 283 259 283 269 285 c 1
 269 283 268 280 268 276 c 2
 268 256 l 1
 270 256 l 2
 275 256 280 257 284 257 c 2
 289 257 l 1
 289 256 288 253 286 247 c 0
 285 247 284 248 282 248 c 0
 280 248 275 249 268 249 c 1
 268 206 l 1
 261 203 261 203 258 202 c 1
 258 274 l 1
 247 274 l 1
 247 231 l 1
 240 228 241 228 238 227 c 1
 238 274 l 1
 226 274 l 1
 226 206 l 1
 219 203 219 203 216 202 c 1
 216 273 l 1x303c0002a0
 211 278 211 277 211 279 c 0
 211 280 211 280 211 281 c 0
170 238 m 0
 195 242 197 262 197 262 c 0
 198 264 200 274 185 274 c 0
 179 274 169 269 167 267 c 1
 167 238 l 1x301c0020
 168 238 169 238 170 238 c 0
117 220 m 0x310c02
 118 220 117 221 118 221 c 0
 119 221 120 221 120 220 c 2
 120 218 l 2
 120 216 120 216 114 204 c 1x308c02
 114 202 l 2
 114 201 113 201 113 201 c 2
 112 200 111 200 111 200 c 0
 109 206 103 219 103 219 c 2
 103 220 l 2
 103 221 105 221 106 221 c 0
 106 221 107 220 112 217 c 0
 113 217 113 218 114 218 c 0
 116 218 115 220 117 220 c 0x310c02
173 193 m 2x368c0508
 169 198 l 2
 169 200 l 1
 170 200 l 1x330c0508
 175 202 179 203 183 204 c 1
 183 178 l 1
 278 178 l 1
 278 178 280 179 282 179 c 0
 284 179 284 178 284 178 c 2
 284 177 283 176 281 170 c 1
 278 171 276 171 274 171 c 0
 269 172 266 172 263 171 c 0
 261 171 250 167 250 158 c 2
 250 153 l 2
 250 153 252 129 281 134 c 1
 281 129 l 1
 278 129 276 126 274 126 c 0
 270 125 266 126 263 126 c 0
 240 126 233 157 246 170 c 1
 231 170 l 1
 231 141 l 1
 227 127 210 126 210 126 c 0
 196 126 194 138 194 142 c 2
 194 170 l 1
 183 170 l 1
 183 103 l 1
 180 101 177 100 173 99 c 1
 173 170 l 1
 162 170 l 1
 162 128 l 1
 159 126 157 126 153 125 c 1
 153 170 l 1
 142 170 l 1
 142 137 l 1x368c054d40
 144 135 144 133 144 133 c 2
 145 131 146 131 146 130 c 2x368c0080
 145 129 l 1
 145 128 l 1
 142 126 138 126 134 125 c 1
 134 126 133 126 133 127 c 2
 133 129 l 1
 130 127 119 125 114 125 c 0
 99 125 98 142 98 144 c 2
 98 170 l 1
 87 170 l 1
 87 141 l 1
 83 127 66 126 66 126 c 0
 57 124 50 132 50 142 c 2
 50 170 l 1
 31 170 l 2
 29 171 l 0
 29 174 29 175 42 186 c 1
 44 184 46 181 48 178 c 1
 132 178 l 1
 132 193 l 1
 127 198 127 197 127 198 c 0
 128 200 128 201 140 203 c 0
 141 203 141 204 141 204 c 1
 142 204 l 1
 142 178 l 1
 173 178 l 1
 173 193 l 2x368c0508
322 191 m 1x300c000010
 322 112 l 1
 305 112 l 1
 305 191 l 1
 322 191 l 1x300c000010
69 134 m 0x360c
 74 134 78 136 78 143 c 2
 78 170 l 1
 60 170 l 1
 60 161 60 154 60 145 c 0
 60 134 68 134 69 134 c 0x360c
108 170 m 1x360c04
 108 146 l 2
 108 144 111 136 114 134 c 0
 116 133 119 134 123 134 c 2
 126 134 l 1
 128 135 130 136 132 138 c 1
 132 170 l 1
 108 170 l 1x360c04
213 134 m 0
 216 134 222 134 222 143 c 2
 222 170 l 1
 204 170 l 1
 204 147 l 2x360c0005
 204 143 204 134 213 134 c 0
151 118 m 2
 151 118 152 117 158 114 c 1
 158 114 160 115 163 117 c 0
 164 117 l 0
 164 118 l 0
 165 118 166 118 166 117 c 2
 166 114 l 1
 161 104 160 104 159 101 c 1
 159 99 l 2
 159 98 158 98 158 98 c 2x300c0020
 157 97 157 97 157 98 c 0
 156 100 155 102 149 116 c 1
 149 117 l 2
 149 118 150 118 151 118 c 2
322 95 m 1x300c000010
 322 14 l 1
 305 14 l 1
 305 95 l 1
 322 95 l 1x300c000010
322 -4 m 1
 322 -81 l 1
 305 -81 l 1
 305 -4 l 1
 322 -4 l 1
322 -98 m 1
 322 -188 l 1xb00c000040
 250 -188 l 1
 250 -171 l 1x700c000040
 305 -171 l 1x700c000010
 305 -98 l 1
 322 -98 l 1
83 -171 m 1x700c08
 154 -171 l 1
 154 -188 l 1
 83 -188 l 1
 83 -171 l 1x700c08
167 -171 m 1x700c0010
 238 -171 l 1
 238 -188 l 1
 167 -188 l 1
 167 -171 l 1x700c0010
EndSplineSet
Validated: 33
EndChar

StartChar: N
Encoding: 78 78 13
Width: 321
VWidth: 800
Flags: W
HStem: -188 86<0 17 305 322> -188 17<17 70 83 154 167 238 250 305> -85 77<0 17 305 322> 14 81<0 17 305 322> 108 79<0 17 305 322> 126 8<61.9468 66 114.094 131.906 205.824 210 258.876 281> 170 8<45.2812 50 60 78 87 98 108 132 142 153 162 173 183 194 204 222 231 246 253.586 278 278.001 280.86> 200 17<107.758 111 111.001 113> 204 86<0 17 305 322> 229 9<106.464 131.477> 248 9<268 288.25> 274 8<63 74.9932 102 114.486 146.01 157.938 186 195.618 226 238 247 257.993> 306 77<0 17 305 322> 405 81<0 17 305 322> 498 90<0 17 305 322> 570 18<17 70 83 154 167 238 250 305>
VStem: 0 70<-188 -171 570 588> 0 17<-171 -102 -85 -8 10 90 108 187 204 290 306 383 401 481 498 570> 53 9<134.605 170 228.577 274> 75 10<134.417 170 203.875 273.926> 83 71<-188 -171 570 588> 98 10<135.019 170> 117 10<250.183 272.437> 127 15<193.23 201.967> 137 9<125.99 129 228.577 236 243.665 273> 153 9<125.477 170> 158 9<203.298 229 238 269.801> 167 71<-188 -171 570 588> 173 10<99.866 170 178 193 198 200> 194 10<134.857 170> 216 10<205.232 274> 222 9<134.872 170> 238 9<229.25 274> 250 72<-188 -171 570 588> 258 10<203.505 249 256 274> 305 17<-171 -98 -81 -4 14 95 112 191 209 294 311 387 405 486 502 570>
LayerCount: 2
Fore
SplineSet
167 -171 m 1x700c0010
 238 -171 l 1
 238 -188 l 1
 167 -188 l 1
 167 -171 l 1x700c0010
83 -171 m 1x700c08
 154 -171 l 1
 154 -188 l 1
 83 -188 l 1
 83 -171 l 1x700c08
322 -98 m 1x700c000010
 322 -188 l 1xb00c000040
 250 -188 l 1
 250 -171 l 1x700c000040
 305 -171 l 1
 305 -98 l 1
 322 -98 l 1x700c000010
322 -4 m 1x300c000010
 322 -81 l 1
 305 -81 l 1
 305 -4 l 1
 322 -4 l 1x300c000010
322 95 m 1
 322 14 l 1
 305 14 l 1
 305 95 l 1
 322 95 l 1
151 118 m 2
 151 118 152 117 158 114 c 1
 158 114 160 115 163 117 c 0
 164 117 l 0
 164 118 l 0
 165 118 166 118 166 117 c 2
 166 114 l 1
 161 104 160 104 159 101 c 1
 159 99 l 2
 159 98 158 98 158 98 c 2x300c0020
 157 97 157 97 157 98 c 0
 156 100 155 102 149 116 c 1
 149 117 l 2
 149 118 150 118 151 118 c 2
213 134 m 0x360c0005
 216 134 222 134 222 143 c 2
 222 170 l 1
 204 170 l 1
 204 147 l 2
 204 143 204 134 213 134 c 0x360c0005
108 170 m 1x360c04
 108 146 l 2
 108 144 111 136 114 134 c 0
 116 133 119 134 123 134 c 2
 126 134 l 1
 128 135 130 136 132 138 c 1
 132 170 l 1
 108 170 l 1x360c04
69 134 m 0
 74 134 78 136 78 143 c 2
 78 170 l 1
 60 170 l 1
 60 161 60 154 60 145 c 0
 60 134 68 134 69 134 c 0
322 191 m 1x300c000010
 322 112 l 1
 305 112 l 1
 305 191 l 1
 322 191 l 1x300c000010
173 193 m 2x368c0508
 169 198 l 2
 169 200 l 1
 170 200 l 1x330c0508
 175 202 179 203 183 204 c 1
 183 178 l 1
 278 178 l 1
 278 178 280 179 282 179 c 0
 284 179 284 178 284 178 c 2
 284 177 283 176 281 170 c 1
 278 171 276 171 274 171 c 0
 269 172 266 172 263 171 c 0
 261 171 250 167 250 158 c 2
 250 153 l 2
 250 153 252 129 281 134 c 1
 281 129 l 1
 278 129 276 126 274 126 c 0
 270 125 266 126 263 126 c 0
 240 126 233 157 246 170 c 1
 231 170 l 1
 231 141 l 1
 227 127 210 126 210 126 c 0
 196 126 194 138 194 142 c 2
 194 170 l 1
 183 170 l 1
 183 103 l 1
 180 101 177 100 173 99 c 1
 173 170 l 1
 162 170 l 1
 162 128 l 1
 159 126 157 126 153 125 c 1
 153 170 l 1
 142 170 l 1
 142 137 l 1x368c054d40
 144 135 144 133 144 133 c 2
 145 131 146 131 146 130 c 2x368c0080
 145 129 l 1
 145 128 l 1
 142 126 138 126 134 125 c 1
 134 126 133 126 133 127 c 2
 133 129 l 1
 130 127 119 125 114 125 c 0
 99 125 98 142 98 144 c 2
 98 170 l 1
 87 170 l 1
 87 141 l 1
 83 127 66 126 66 126 c 0
 57 124 50 132 50 142 c 2
 50 170 l 1
 31 170 l 2
 29 171 l 0
 29 174 29 175 42 186 c 1
 44 184 46 181 48 178 c 1
 132 178 l 1
 132 193 l 1
 127 198 127 197 127 198 c 0
 128 200 128 201 140 203 c 0
 141 203 141 204 141 204 c 1
 142 204 l 1
 142 178 l 1
 173 178 l 1
 173 193 l 2x368c0508
117 220 m 0x310c02
 118 220 117 221 118 221 c 0
 119 221 120 221 120 220 c 2
 120 218 l 2
 120 216 120 216 114 204 c 1x308c02
 114 202 l 2
 114 201 113 201 113 201 c 2
 112 200 111 200 111 200 c 0
 109 206 103 219 103 219 c 2
 103 220 l 2
 103 221 105 221 106 221 c 0
 106 221 107 220 112 217 c 0
 113 217 113 218 114 218 c 0
 116 218 115 220 117 220 c 0x310c02
170 238 m 0x305c0020
 195 242 197 262 197 262 c 0
 198 264 200 274 185 274 c 0
 179 274 169 269 167 267 c 1
 167 238 l 1
 168 238 169 238 170 238 c 0x305c0020
211 281 m 0
 214 283 222 286 222 286 c 0x303c0001
 224 284 224 285 226 282 c 1
 257 282 l 1
 259 283 259 283 269 285 c 1
 269 283 268 280 268 276 c 2
 268 256 l 1
 270 256 l 2
 275 256 280 257 284 257 c 2
 289 257 l 1
 289 256 288 253 286 247 c 0
 285 247 284 248 282 248 c 0
 280 248 275 249 268 249 c 1
 268 206 l 1
 261 203 261 203 258 202 c 1
 258 274 l 1
 247 274 l 1
 247 231 l 1
 240 228 241 228 238 227 c 1
 238 274 l 1
 226 274 l 1
 226 206 l 1
 219 203 219 203 216 202 c 1
 216 273 l 1x303c0002a0
 211 278 211 277 211 279 c 0
 211 280 211 280 211 281 c 0
48 280 m 2
 49 281 49 280 60 286 c 0
 63 282 l 2
 74 282 l 1
 76 283 76 283 86 285 c 1
 85 282 85 278 85 273 c 2
 85 206 l 1
 78 203 78 203 75 202 c 1
 75 274 l 1
 62 274 l 1
 62 231 l 1
 59 229 56 229 53 228 c 1
 53 273 l 1x301c30
 50 278 48 277 48 279 c 2
 48 280 l 2
132 280 m 2
 133 281 133 280 144 286 c 1
 144 287 l 1
 146 285 146 286 147 282 c 1
 156 282 l 1
 158 283 158 283 168 285 c 1
 168 276 l 1
 174 278 180 280 186 282 c 1
 191 282 l 2
 212 282 217 249 184 235 c 0
 180 234 167 229 167 229 c 2
 167 206 l 1
 160 203 161 203 158 202 c 1
 158 274 l 1
 146 274 l 1
 146 231 l 1
 143 229 140 229 137 228 c 1
 137 236 l 1
 135 235 134 234 132 233 c 0
 127 231 123 230 118 228 c 0
 112 228 97 228 91 240 c 1
 91 243 l 1
 99 245 100 246 100 246 c 0
 112 246 117 254 117 262 c 0
 117 267 115 275 102 275 c 1
 102 280 l 1
 105 280 107 282 108 282 c 2
 110 282 l 2
 112 282 127 282 127 262 c 0
 127 247 114 242 106 239 c 1
 113 237 113 237 114 237 c 0
 123 235 134 242 137 250 c 1
 137 273 l 2x305c06a0
 137 273 132 278 132 279 c 2
 132 280 l 2
322 294 m 1x300c000010
 322 209 l 1
 305 208 l 1
 305 294 l 1
 322 294 l 1x300c000010
322 387 m 1
 322 311 l 1
 305 310 l 1
 305 387 l 1
 322 387 l 1
322 486 m 1
 322 405 l 1
 305 405 l 1
 305 486 l 1
 322 486 l 1
250 588 m 1x300d000040
 322 588 l 1x300e000040
 322 502 l 1
 305 502 l 1
 305 570 l 1x300d000010
 250 570 l 1
 250 588 l 1x300d000040
167 588 m 1x300d0010
 238 588 l 1
 238 570 l 1
 167 570 l 1
 167 588 l 1x300d0010
83 588 m 1x300d08
 154 588 l 1
 154 570 l 1
 83 570 l 1
 83 588 l 1x300d08
0 588 m 1x300e80
 70 588 l 1
 70 570 l 1x300d80
 17 570 l 1x300d40
 17 498 l 1
 0 498 l 1x300e40
 0 528 0 558 0 588 c 1x300e80
0 -102 m 1xb00c40
 17 -102 l 1xb00c40
 17 -171 l 1x700c40
 70 -171 l 1
 70 -188 l 1x700c80
 0 -188 l 1xb00c80
 0 -102 l 1xb00c40
0 -8 m 1
 17 -8 l 1
 17 -85 l 1
 0 -85 l 1
 0 -8 l 1
0 90 m 1
 17 91 l 1
 17 10 l 1
 0 10 l 1
 0 90 l 1
0 187 m 1x380c40
 17 187 l 1
 17 108 l 1
 0 108 l 1
 0 187 l 1x380c40
0 290 m 1x308c40
 17 290 l 1
 17 204 l 1
 0 204 l 1
 0 290 l 1x308c40
0 383 m 1
 17 383 l 1
 17 306 l 1
 0 306 l 1
 0 383 l 1
0 481 m 1
 17 482 l 1
 17 401 l 1
 0 400 l 1
 0 481 l 1
EndSplineSet
Validated: 33
EndChar

StartChar: O
Encoding: 79 79 14
Width: 321
VWidth: 800
Flags: W
HStem: -188 86<0 17 305 322> -188 17<17 70 83 154 167 238 250 305> -85 77<0 17 305 322> 14 81<0 17 305 322> 108 79<0 17 305 322> 126 8<61.9468 66 114.094 131.906 205.824 210> 170 8<45.2812 50 60 78 87 98 108 132 142 153 162 173 183 194 204 222 231 246 253.586 278 278.001 280.86> 200 17<107.758 111 111.001 113> 204 86<0 17 305 322> 228 9<106.464 130.053> 249 7<268 287.769> 274 8<63 74.9932 102 114.486 146.01 157.938 186 195.618 226 238 247 257.993> 306 77<0 17 305 322> 405 81<0 17 305 322> 498 90<0 17 305 322> 570 18<17 70 83 154 167 238 250 305>
VStem: 0 70<-188 -171 570 588> 0 17<-171 -102 -85 -8 10 90 108 187 204 290 306 383 401 481 498 570> 53 9<134.336 170 229.571 274> 75 10<134.417 170 203.875 273.926> 83 71<-188 -171 570 588> 98 10<135.019 170> 117 10<250.183 272.437> 127 15<193.23 201.967> 137 9<125.99 129 228.577 236 243.665 273> 153 9<125.477 170> 158 9<203.298 229 238 269.801> 167 71<-188 -171 570 588> 173 10<99.866 170 178 193 198 200> 194 10<134.857 170> 216 10<205.232 274> 222 9<134.872 170> 238 9<229.25 274> 250 72<-188 -171 570 588> 258 10<203.505 249 256 274> 305 17<-171 -98 -81 -4 14 95 112 191 209 294 311 387 405 486 502 570>
LayerCount: 2
Fore
SplineSet
0 481 m 1x300c40
 17 482 l 1
 17 401 l 1
 0 400 l 1
 0 481 l 1x300c40
0 383 m 1
 17 383 l 1
 17 306 l 1
 0 306 l 1
 0 383 l 1
0 290 m 1x308c40
 17 290 l 1
 17 204 l 1
 0 204 l 1
 0 290 l 1x308c40
0 187 m 1x380c40
 17 187 l 1
 17 108 l 1
 0 108 l 1
 0 187 l 1x380c40
0 90 m 1
 17 91 l 1
 17 10 l 1
 0 10 l 1
 0 90 l 1
0 -8 m 1
 17 -8 l 1
 17 -85 l 1
 0 -85 l 1
 0 -8 l 1
0 -102 m 1xb00c40
 17 -102 l 1xb00c40
 17 -171 l 1x700c40
 70 -171 l 1
 70 -188 l 1x700c80
 0 -188 l 1xb00c80
 0 -102 l 1xb00c40
0 588 m 1x300e80
 70 588 l 1
 70 570 l 1x300d80
 17 570 l 1x300d40
 17 498 l 1
 0 498 l 1x300e40
 0 528 0 558 0 588 c 1x300e80
83 588 m 1x300d08
 154 588 l 1
 154 570 l 1
 83 570 l 1
 83 588 l 1x300d08
167 588 m 1x300d0010
 238 588 l 1
 238 570 l 1
 167 570 l 1
 167 588 l 1x300d0010
250 588 m 1x300d000040
 322 588 l 1x300e000040
 322 502 l 1
 305 502 l 1
 305 570 l 1x300d000010
 250 570 l 1
 250 588 l 1x300d000040
322 486 m 1x300c000010
 322 405 l 1
 305 405 l 1
 305 486 l 1
 322 486 l 1x300c000010
322 387 m 1
 322 311 l 1
 305 310 l 1
 305 387 l 1
 322 387 l 1
322 294 m 1
 322 209 l 1
 305 208 l 1
 305 294 l 1
 322 294 l 1
132 280 m 2
 133 281 133 280 144 286 c 1
 144 287 l 1
 146 285 146 286 147 282 c 1
 156 282 l 1
 158 283 158 283 168 285 c 1
 168 276 l 1
 174 278 180 280 186 282 c 1
 191 282 l 2
 212 282 217 249 184 235 c 0
 180 234 167 229 167 229 c 2
 167 206 l 1
 160 203 161 203 158 202 c 1
 158 274 l 1
 146 274 l 1
 146 231 l 1
 143 229 140 229 137 228 c 1
 137 236 l 1
 135 235 134 234 132 233 c 0
 127 231 123 230 118 228 c 0
 112 228 97 228 91 240 c 1
 91 243 l 1
 99 245 100 246 100 246 c 0
 112 246 117 254 117 262 c 0
 117 267 115 275 102 275 c 1
 102 280 l 1
 105 280 107 282 108 282 c 2
 110 282 l 2
 112 282 127 282 127 262 c 0
 127 247 114 242 106 239 c 1
 113 237 113 237 114 237 c 0
 123 235 134 242 137 250 c 1
 137 273 l 2x305c06a0
 137 273 132 278 132 279 c 2
 132 280 l 2
48 280 m 2
 49 281 49 280 60 286 c 0
 63 282 l 2
 74 282 l 1
 76 283 76 283 86 285 c 1
 85 282 85 278 85 273 c 2
 85 206 l 1
 78 203 78 203 75 202 c 1
 75 274 l 1
 62 274 l 1
 62 231 l 1
 59 229 56 229 53 228 c 1
 53 273 l 1x305c30
 50 278 48 277 48 279 c 2
 48 280 l 2
211 281 m 0
 214 283 222 286 222 286 c 0x303c0001
 224 284 224 285 226 282 c 1
 257 282 l 1
 259 283 259 283 269 285 c 1
 269 283 268 280 268 276 c 2
 268 256 l 1
 270 256 l 2
 275 256 280 257 284 257 c 2
 289 257 l 1
 289 256 288 253 286 247 c 0
 285 247 284 248 282 248 c 0
 280 248 275 249 268 249 c 1
 268 206 l 1
 261 203 261 203 258 202 c 1
 258 274 l 1
 247 274 l 1
 247 231 l 1
 240 228 241 228 238 227 c 1
 238 274 l 1
 226 274 l 1
 226 206 l 1
 219 203 219 203 216 202 c 1
 216 273 l 1x303c0002a0
 211 278 211 277 211 279 c 0
 211 280 211 280 211 281 c 0
170 238 m 0
 195 242 197 262 197 262 c 0
 198 264 200 274 185 274 c 0
 179 274 169 269 167 267 c 1
 167 238 l 1x301c0020
 168 238 169 238 170 238 c 0
117 220 m 0x310c02
 118 220 117 221 118 221 c 0
 119 221 120 221 120 220 c 2
 120 218 l 2
 120 216 120 216 114 204 c 1x308c02
 114 202 l 2
 114 201 113 201 113 201 c 2
 112 200 111 200 111 200 c 0
 109 206 103 219 103 219 c 2
 103 220 l 2
 103 221 105 221 106 221 c 0
 106 221 107 220 112 217 c 0
 113 217 113 218 114 218 c 0
 116 218 115 220 117 220 c 0x310c02
173 193 m 2x368c0508
 169 198 l 2
 169 200 l 1
 170 200 l 1x330c0508
 175 202 179 203 183 204 c 1
 183 178 l 1
 278 178 l 1
 278 178 280 179 282 179 c 0
 284 179 284 178 284 178 c 2
 284 177 283 176 281 170 c 1
 278 171 276 171 274 171 c 0
 269 172 266 172 263 171 c 0
 261 171 250 167 250 158 c 2
 250 153 l 2
 250 153 252 129 281 134 c 1
 281 129 l 1
 278 129 276 126 274 126 c 0
 270 125 266 126 263 126 c 0
 240 126 233 157 246 170 c 1
 231 170 l 1
 231 141 l 1
 227 127 210 126 210 126 c 0
 196 126 194 138 194 142 c 2
 194 170 l 1
 183 170 l 1
 183 103 l 1
 180 101 177 100 173 99 c 1
 173 170 l 1
 162 170 l 1
 162 128 l 1
 159 126 157 126 153 125 c 1
 153 170 l 1
 142 170 l 1
 142 137 l 1x368c054d40
 144 135 144 133 144 133 c 2
 145 131 146 131 146 130 c 2x368c0080
 145 129 l 1
 145 128 l 1
 142 126 138 126 134 125 c 1
 134 126 133 126 133 127 c 2
 133 129 l 1
 130 127 119 125 114 125 c 0
 99 125 98 142 98 144 c 2
 98 170 l 1
 87 170 l 1
 87 141 l 1
 83 127 66 126 66 126 c 0
 57 124 50 132 50 142 c 2
 50 170 l 1
 31 170 l 2
 29 171 l 0
 29 174 29 175 42 186 c 1
 44 184 46 181 48 178 c 1
 132 178 l 1
 132 193 l 1
 127 198 127 197 127 198 c 0
 128 200 128 201 140 203 c 0
 141 203 141 204 141 204 c 1
 142 204 l 1
 142 178 l 1
 173 178 l 1
 173 193 l 2x368c0508
322 191 m 1x300c000010
 322 112 l 1
 305 112 l 1
 305 191 l 1
 322 191 l 1x300c000010
69 134 m 0x360c
 74 134 78 136 78 143 c 2
 78 170 l 1
 60 170 l 1
 60 161 60 154 60 145 c 0
 60 134 68 134 69 134 c 0x360c
108 170 m 1x360c04
 108 146 l 2
 108 144 111 136 114 134 c 0
 116 133 119 134 123 134 c 2
 126 134 l 1
 128 135 130 136 132 138 c 1
 132 170 l 1
 108 170 l 1x360c04
213 134 m 0
 216 134 222 134 222 143 c 2
 222 170 l 1
 204 170 l 1
 204 147 l 2x360c0005
 204 143 204 134 213 134 c 0
151 118 m 2
 151 118 152 117 158 114 c 1
 158 114 160 115 163 117 c 0
 164 117 l 0
 164 118 l 0
 165 118 166 118 166 117 c 2
 166 114 l 1
 161 104 160 104 159 101 c 1
 159 99 l 2
 159 98 158 98 158 98 c 2x300c0020
 157 97 157 97 157 98 c 0
 156 100 155 102 149 116 c 1
 149 117 l 2
 149 118 150 118 151 118 c 2
322 95 m 1x300c000010
 322 14 l 1
 305 14 l 1
 305 95 l 1
 322 95 l 1x300c000010
322 -4 m 1
 322 -81 l 1
 305 -81 l 1
 305 -4 l 1
 322 -4 l 1
322 -98 m 1
 322 -188 l 1xb00c000040
 250 -188 l 1
 250 -171 l 1x700c000040
 305 -171 l 1x700c000010
 305 -98 l 1
 322 -98 l 1
83 -171 m 1x700c08
 154 -171 l 1
 154 -188 l 1
 83 -188 l 1
 83 -171 l 1x700c08
167 -171 m 1x700c0010
 238 -171 l 1
 238 -188 l 1
 167 -188 l 1
 167 -171 l 1x700c0010
EndSplineSet
Validated: 33
EndChar

StartChar: P
Encoding: 80 80 15
Width: 321
VWidth: 800
Flags: W
HStem: -188 86<0 17 305 322> -188 17<17 70 83 154 167 238 250 305> -85 77<0 17 305 322> 14 81<0 17 305 322> 108 79<0 17 305 322> 126 8<61.9468 66 114.094 131.906 205.824 210> 170 8<45.2812 50 60 78 87 98 108 132 142 153 162 173 183 194 204 222 231 246 253.586 278 278.001 280.86> 200 17<107.758 111 111.001 113> 204 86<0 17 305 322> 228 9<106.464 130.053> 249 7<268 287.769> 274 8<63 74.9932 102 114.486 146.01 157.938 186 195.618 226 238 247 257.993> 306 77<0 17 305 322> 405 81<0 17 305 322> 498 90<0 17 305 322> 570 18<17 70 83 154 167 238 250 305>
VStem: 0 70<-188 -171 570 588> 0 17<-171 -102 -85 -8 10 90 108 187 204 290 306 383 401 481 498 570> 53 9<134.336 170 229.571 274> 75 10<134.417 170 203.875 273.926> 83 71<-188 -171 570 588> 98 10<135.019 170> 117 10<250.183 272.437> 127 15<193.23 201.967> 137 9<125.99 129 228.577 236 243.665 273> 153 9<125.477 170> 158 9<203.298 229 238 269.801> 167 71<-188 -171 570 588> 173 10<99.866 170 178 193 198 200> 194 10<134.857 170> 216 10<205.232 274> 222 9<134.872 170> 238 9<229.25 274> 250 72<-188 -171 570 588> 258 10<203.505 249 256 274> 305 17<-171 -98 -81 -4 14 95 112 191 209 294 311 387 405 486 502 570>
LayerCount: 2
Fore
SplineSet
0 481 m 1x300c40
 17 482 l 1
 17 401 l 1
 0 400 l 1
 0 481 l 1x300c40
0 383 m 1
 17 383 l 1
 17 306 l 1
 0 306 l 1
 0 383 l 1
0 290 m 1x308c40
 17 290 l 1
 17 204 l 1
 0 204 l 1
 0 290 l 1x308c40
0 187 m 1x380c40
 17 187 l 1
 17 108 l 1
 0 108 l 1
 0 187 l 1x380c40
0 90 m 1
 17 91 l 1
 17 10 l 1
 0 10 l 1
 0 90 l 1
0 -8 m 1
 17 -8 l 1
 17 -85 l 1
 0 -85 l 1
 0 -8 l 1
0 -102 m 1xb00c40
 17 -102 l 1xb00c40
 17 -171 l 1x700c40
 70 -171 l 1
 70 -188 l 1x700c80
 0 -188 l 1xb00c80
 0 -102 l 1xb00c40
0 588 m 1x300e80
 70 588 l 1
 70 570 l 1x300d80
 17 570 l 1x300d40
 17 498 l 1
 0 498 l 1x300e40
 0 528 0 558 0 588 c 1x300e80
83 588 m 1x300d08
 154 588 l 1
 154 570 l 1
 83 570 l 1
 83 588 l 1x300d08
167 588 m 1x300d0010
 238 588 l 1
 238 570 l 1
 167 570 l 1
 167 588 l 1x300d0010
250 588 m 1x300d000040
 322 588 l 1x300e000040
 322 502 l 1
 305 502 l 1
 305 570 l 1x300d000010
 250 570 l 1
 250 588 l 1x300d000040
322 486 m 1x300c000010
 322 405 l 1
 305 405 l 1
 305 486 l 1
 322 486 l 1x300c000010
322 387 m 1
 322 311 l 1
 305 310 l 1
 305 387 l 1
 322 387 l 1
322 294 m 1
 322 209 l 1
 305 208 l 1
 305 294 l 1
 322 294 l 1
132 280 m 2
 133 281 133 280 144 286 c 1
 144 287 l 1
 146 285 146 286 147 282 c 1
 156 282 l 1
 158 283 158 283 168 285 c 1
 168 276 l 1
 174 278 180 280 186 282 c 1
 191 282 l 2
 212 282 217 249 184 235 c 0
 180 234 167 229 167 229 c 2
 167 206 l 1
 160 203 161 203 158 202 c 1
 158 274 l 1
 146 274 l 1
 146 231 l 1
 143 229 140 229 137 228 c 1
 137 236 l 1
 135 235 134 234 132 233 c 0
 127 231 123 230 118 228 c 0
 112 228 97 228 91 240 c 1
 91 243 l 1
 99 245 100 246 100 246 c 0
 112 246 117 254 117 262 c 0
 117 267 115 275 102 275 c 1
 102 280 l 1
 105 280 107 282 108 282 c 2
 110 282 l 2
 112 282 127 282 127 262 c 0
 127 247 114 242 106 239 c 1
 113 237 113 237 114 237 c 0
 123 235 134 242 137 250 c 1
 137 273 l 2x305c06a0
 137 273 132 278 132 279 c 2
 132 280 l 2
48 280 m 2
 49 281 49 280 60 286 c 0
 63 282 l 2
 74 282 l 1
 76 283 76 283 86 285 c 1
 85 282 85 278 85 273 c 2
 85 206 l 1
 78 203 78 203 75 202 c 1
 75 274 l 1
 62 274 l 1
 62 231 l 1
 59 229 56 229 53 228 c 1
 53 273 l 1x305c30
 50 278 48 277 48 279 c 2
 48 280 l 2
211 281 m 0
 214 283 222 286 222 286 c 0x303c0001
 224 284 224 285 226 282 c 1
 257 282 l 1
 259 283 259 283 269 285 c 1
 269 283 268 280 268 276 c 2
 268 256 l 1
 270 256 l 2
 275 256 280 257 284 257 c 2
 289 257 l 1
 289 256 288 253 286 247 c 0
 285 247 284 248 282 248 c 0
 280 248 275 249 268 249 c 1
 268 206 l 1
 261 203 261 203 258 202 c 1
 258 274 l 1
 247 274 l 1
 247 231 l 1
 240 228 241 228 238 227 c 1
 238 274 l 1
 226 274 l 1
 226 206 l 1
 219 203 219 203 216 202 c 1
 216 273 l 1x303c0002a0
 211 278 211 277 211 279 c 0
 211 280 211 280 211 281 c 0
170 238 m 0
 195 242 197 262 197 262 c 0
 198 264 200 274 185 274 c 0
 179 274 169 269 167 267 c 1
 167 238 l 1x301c0020
 168 238 169 238 170 238 c 0
117 220 m 0x310c02
 118 220 117 221 118 221 c 0
 119 221 120 221 120 220 c 2
 120 218 l 2
 120 216 120 216 114 204 c 1x308c02
 114 202 l 2
 114 201 113 201 113 201 c 2
 112 200 111 200 111 200 c 0
 109 206 103 219 103 219 c 2
 103 220 l 2
 103 221 105 221 106 221 c 0
 106 221 107 220 112 217 c 0
 113 217 113 218 114 218 c 0
 116 218 115 220 117 220 c 0x310c02
173 193 m 2x368c0508
 169 198 l 2
 169 200 l 1
 170 200 l 1x330c0508
 175 202 179 203 183 204 c 1
 183 178 l 1
 278 178 l 1
 278 178 280 179 282 179 c 0
 284 179 284 178 284 178 c 2
 284 177 283 176 281 170 c 1
 278 171 276 171 274 171 c 0
 269 172 266 172 263 171 c 0
 261 171 250 167 250 158 c 2
 250 153 l 2
 250 153 252 129 281 134 c 1
 281 129 l 1
 278 129 276 126 274 126 c 0
 270 125 266 126 263 126 c 0
 240 126 233 157 246 170 c 1
 231 170 l 1
 231 141 l 1
 227 127 210 126 210 126 c 0
 196 126 194 138 194 142 c 2
 194 170 l 1
 183 170 l 1
 183 103 l 1
 180 101 177 100 173 99 c 1
 173 170 l 1
 162 170 l 1
 162 128 l 1
 159 126 157 126 153 125 c 1
 153 170 l 1
 142 170 l 1
 142 137 l 1x368c054d40
 144 135 144 133 144 133 c 2
 145 131 146 131 146 130 c 2x368c0080
 145 129 l 1
 145 128 l 1
 142 126 138 126 134 125 c 1
 134 126 133 126 133 127 c 2
 133 129 l 1
 130 127 119 125 114 125 c 0
 99 125 98 142 98 144 c 2
 98 170 l 1
 87 170 l 1
 87 141 l 1
 83 127 66 126 66 126 c 0
 57 124 50 132 50 142 c 2
 50 170 l 1
 31 170 l 2
 29 171 l 0
 29 174 29 175 42 186 c 1
 44 184 46 181 48 178 c 1
 132 178 l 1
 132 193 l 1
 127 198 127 197 127 198 c 0
 128 200 128 201 140 203 c 0
 141 203 141 204 141 204 c 1
 142 204 l 1
 142 178 l 1
 173 178 l 1
 173 193 l 2x368c0508
322 191 m 1x300c000010
 322 112 l 1
 305 112 l 1
 305 191 l 1
 322 191 l 1x300c000010
69 134 m 0x360c
 74 134 78 136 78 143 c 2
 78 170 l 1
 60 170 l 1
 60 161 60 154 60 145 c 0
 60 134 68 134 69 134 c 0x360c
108 170 m 1x360c04
 108 146 l 2
 108 144 111 136 114 134 c 0
 116 133 119 134 123 134 c 2
 126 134 l 1
 128 135 130 136 132 138 c 1
 132 170 l 1
 108 170 l 1x360c04
213 134 m 0
 216 134 222 134 222 143 c 2
 222 170 l 1
 204 170 l 1
 204 147 l 2x360c0005
 204 143 204 134 213 134 c 0
151 118 m 2
 151 118 152 117 158 114 c 1
 158 114 160 115 163 117 c 0
 164 117 l 0
 164 118 l 0
 165 118 166 118 166 117 c 2
 166 114 l 1
 161 104 160 104 159 101 c 1
 159 99 l 2
 159 98 158 98 158 98 c 2x300c0020
 157 97 157 97 157 98 c 0
 156 100 155 102 149 116 c 1
 149 117 l 2
 149 118 150 118 151 118 c 2
322 95 m 1x300c000010
 322 14 l 1
 305 14 l 1
 305 95 l 1
 322 95 l 1x300c000010
322 -4 m 1
 322 -81 l 1
 305 -81 l 1
 305 -4 l 1
 322 -4 l 1
322 -98 m 1
 322 -188 l 1xb00c000040
 250 -188 l 1
 250 -171 l 1x700c000040
 305 -171 l 1x700c000010
 305 -98 l 1
 322 -98 l 1
83 -171 m 1x700c08
 154 -171 l 1
 154 -188 l 1
 83 -188 l 1
 83 -171 l 1x700c08
167 -171 m 1x700c0010
 238 -171 l 1
 238 -188 l 1
 167 -188 l 1
 167 -171 l 1x700c0010
EndSplineSet
Validated: 33
EndChar

StartChar: Q
Encoding: 81 81 16
Width: 321
VWidth: 800
Flags: W
HStem: -188 86<0 17 305 322> -188 17<17 70 83 154 167 238 250 305> -85 77<0 17 305 322> 14 81<0 17 305 322> 108 79<0 17 305 322> 126 8<61.9468 66 114.094 131.906 205.824 210> 170 8<45.2812 50 60 78 87 98 108 132 142 153 162 173 183 194 204 222 231 246 253.586 278 278.001 280.86> 200 17<107.758 111 111.001 113> 204 86<0 17 305 322> 228 9<106.464 130.053> 249 7<268 287.769> 274 8<63 74.9932 102 114.486 146.01 157.938 186 195.618 226 238 247 257.993> 306 77<0 17 305 322> 405 81<0 17 305 322> 498 90<0 17 305 322> 570 18<17 70 83 154 167 238 250 305>
VStem: 0 70<-188 -171 570 588> 0 17<-171 -102 -85 -8 10 90 108 187 204 290 306 383 401 481 498 570> 53 9<134.336 170 229.571 274> 75 10<134.417 170 203.875 273.926> 83 71<-188 -171 570 588> 98 10<135.019 170> 117 10<250.183 272.437> 127 15<193.23 201.967> 137 9<125.99 129 228.577 236 243.665 273> 153 9<125.477 170> 158 9<203.298 229 238 269.801> 167 71<-188 -171 570 588> 173 10<99.866 170 178 193 198 200> 194 10<134.857 170> 216 10<205.232 274> 222 9<134.872 170> 238 9<229.25 274> 250 72<-188 -171 570 588> 258 10<203.505 249 256 274> 305 17<-171 -98 -81 -4 14 95 112 191 209 294 311 387 405 486 502 570>
LayerCount: 2
Fore
SplineSet
0 481 m 1x300c40
 17 482 l 1
 17 401 l 1
 0 400 l 1
 0 481 l 1x300c40
0 383 m 1
 17 383 l 1
 17 306 l 1
 0 306 l 1
 0 383 l 1
0 290 m 1x308c40
 17 290 l 1
 17 204 l 1
 0 204 l 1
 0 290 l 1x308c40
0 187 m 1x380c40
 17 187 l 1
 17 108 l 1
 0 108 l 1
 0 187 l 1x380c40
0 90 m 1
 17 91 l 1
 17 10 l 1
 0 10 l 1
 0 90 l 1
0 -8 m 1
 17 -8 l 1
 17 -85 l 1
 0 -85 l 1
 0 -8 l 1
0 -102 m 1xb00c40
 17 -102 l 1xb00c40
 17 -171 l 1x700c40
 70 -171 l 1
 70 -188 l 1x700c80
 0 -188 l 1xb00c80
 0 -102 l 1xb00c40
0 588 m 1x300e80
 70 588 l 1
 70 570 l 1x300d80
 17 570 l 1x300d40
 17 498 l 1
 0 498 l 1x300e40
 0 528 0 558 0 588 c 1x300e80
83 588 m 1x300d08
 154 588 l 1
 154 570 l 1
 83 570 l 1
 83 588 l 1x300d08
167 588 m 1x300d0010
 238 588 l 1
 238 570 l 1
 167 570 l 1
 167 588 l 1x300d0010
250 588 m 1x300d000040
 322 588 l 1x300e000040
 322 502 l 1
 305 502 l 1
 305 570 l 1x300d000010
 250 570 l 1
 250 588 l 1x300d000040
322 486 m 1x300c000010
 322 405 l 1
 305 405 l 1
 305 486 l 1
 322 486 l 1x300c000010
322 387 m 1
 322 311 l 1
 305 310 l 1
 305 387 l 1
 322 387 l 1
322 294 m 1
 322 209 l 1
 305 208 l 1
 305 294 l 1
 322 294 l 1
132 280 m 2
 133 281 133 280 144 286 c 1
 144 287 l 1
 146 285 146 286 147 282 c 1
 156 282 l 1
 158 283 158 283 168 285 c 1
 168 276 l 1
 174 278 180 280 186 282 c 1
 191 282 l 2
 212 282 217 249 184 235 c 0
 180 234 167 229 167 229 c 2
 167 206 l 1
 160 203 161 203 158 202 c 1
 158 274 l 1
 146 274 l 1
 146 231 l 1
 143 229 140 229 137 228 c 1
 137 236 l 1
 135 235 134 234 132 233 c 0
 127 231 123 230 118 228 c 0
 112 228 97 228 91 240 c 1
 91 243 l 1
 99 245 100 246 100 246 c 0
 112 246 117 254 117 262 c 0
 117 267 115 275 102 275 c 1
 102 280 l 1
 105 280 107 282 108 282 c 2
 110 282 l 2
 112 282 127 282 127 262 c 0
 127 247 114 242 106 239 c 1
 113 237 113 237 114 237 c 0
 123 235 134 242 137 250 c 1
 137 273 l 2x305c06a0
 137 273 132 278 132 279 c 2
 132 280 l 2
48 280 m 2
 49 281 49 280 60 286 c 0
 63 282 l 2
 74 282 l 1
 76 283 76 283 86 285 c 1
 85 282 85 278 85 273 c 2
 85 206 l 1
 78 203 78 203 75 202 c 1
 75 274 l 1
 62 274 l 1
 62 231 l 1
 59 229 56 229 53 228 c 1
 53 273 l 1x305c30
 50 278 48 277 48 279 c 2
 48 280 l 2
211 281 m 0
 214 283 222 286 222 286 c 0x303c0001
 224 284 224 285 226 282 c 1
 257 282 l 1
 259 283 259 283 269 285 c 1
 269 283 268 280 268 276 c 2
 268 256 l 1
 270 256 l 2
 275 256 280 257 284 257 c 2
 289 257 l 1
 289 256 288 253 286 247 c 0
 285 247 284 248 282 248 c 0
 280 248 275 249 268 249 c 1
 268 206 l 1
 261 203 261 203 258 202 c 1
 258 274 l 1
 247 274 l 1
 247 231 l 1
 240 228 241 228 238 227 c 1
 238 274 l 1
 226 274 l 1
 226 206 l 1
 219 203 219 203 216 202 c 1
 216 273 l 1x303c0002a0
 211 278 211 277 211 279 c 0
 211 280 211 280 211 281 c 0
170 238 m 0
 195 242 197 262 197 262 c 0
 198 264 200 274 185 274 c 0
 179 274 169 269 167 267 c 1
 167 238 l 1x301c0020
 168 238 169 238 170 238 c 0
117 220 m 0x310c02
 118 220 117 221 118 221 c 0
 119 221 120 221 120 220 c 2
 120 218 l 2
 120 216 120 216 114 204 c 1x308c02
 114 202 l 2
 114 201 113 201 113 201 c 2
 112 200 111 200 111 200 c 0
 109 206 103 219 103 219 c 2
 103 220 l 2
 103 221 105 221 106 221 c 0
 106 221 107 220 112 217 c 0
 113 217 113 218 114 218 c 0
 116 218 115 220 117 220 c 0x310c02
173 193 m 2x368c0508
 169 198 l 2
 169 200 l 1
 170 200 l 1x330c0508
 175 202 179 203 183 204 c 1
 183 178 l 1
 278 178 l 1
 278 178 280 179 282 179 c 0
 284 179 284 178 284 178 c 2
 284 177 283 176 281 170 c 1
 278 171 276 171 274 171 c 0
 269 172 266 172 263 171 c 0
 261 171 250 167 250 158 c 2
 250 153 l 2
 250 153 252 129 281 134 c 1
 281 129 l 1
 278 129 276 126 274 126 c 0
 270 125 266 126 263 126 c 0
 240 126 233 157 246 170 c 1
 231 170 l 1
 231 141 l 1
 227 127 210 126 210 126 c 0
 196 126 194 138 194 142 c 2
 194 170 l 1
 183 170 l 1
 183 103 l 1
 180 101 177 100 173 99 c 1
 173 170 l 1
 162 170 l 1
 162 128 l 1
 159 126 157 126 153 125 c 1
 153 170 l 1
 142 170 l 1
 142 137 l 1x368c054d40
 144 135 144 133 144 133 c 2
 145 131 146 131 146 130 c 2x368c0080
 145 129 l 1
 145 128 l 1
 142 126 138 126 134 125 c 1
 134 126 133 126 133 127 c 2
 133 129 l 1
 130 127 119 125 114 125 c 0
 99 125 98 142 98 144 c 2
 98 170 l 1
 87 170 l 1
 87 141 l 1
 83 127 66 126 66 126 c 0
 57 124 50 132 50 142 c 2
 50 170 l 1
 31 170 l 2
 29 171 l 0
 29 174 29 175 42 186 c 1
 44 184 46 181 48 178 c 1
 132 178 l 1
 132 193 l 1
 127 198 127 197 127 198 c 0
 128 200 128 201 140 203 c 0
 141 203 141 204 141 204 c 1
 142 204 l 1
 142 178 l 1
 173 178 l 1
 173 193 l 2x368c0508
322 191 m 1x300c000010
 322 112 l 1
 305 112 l 1
 305 191 l 1
 322 191 l 1x300c000010
69 134 m 0x360c
 74 134 78 136 78 143 c 2
 78 170 l 1
 60 170 l 1
 60 161 60 154 60 145 c 0
 60 134 68 134 69 134 c 0x360c
108 170 m 1x360c04
 108 146 l 2
 108 144 111 136 114 134 c 0
 116 133 119 134 123 134 c 2
 126 134 l 1
 128 135 130 136 132 138 c 1
 132 170 l 1
 108 170 l 1x360c04
213 134 m 0
 216 134 222 134 222 143 c 2
 222 170 l 1
 204 170 l 1
 204 147 l 2x360c0005
 204 143 204 134 213 134 c 0
151 118 m 2
 151 118 152 117 158 114 c 1
 158 114 160 115 163 117 c 0
 164 117 l 0
 164 118 l 0
 165 118 166 118 166 117 c 2
 166 114 l 1
 161 104 160 104 159 101 c 1
 159 99 l 2
 159 98 158 98 158 98 c 2x300c0020
 157 97 157 97 157 98 c 0
 156 100 155 102 149 116 c 1
 149 117 l 2
 149 118 150 118 151 118 c 2
322 95 m 1x300c000010
 322 14 l 1
 305 14 l 1
 305 95 l 1
 322 95 l 1x300c000010
322 -4 m 1
 322 -81 l 1
 305 -81 l 1
 305 -4 l 1
 322 -4 l 1
322 -98 m 1
 322 -188 l 1xb00c000040
 250 -188 l 1
 250 -171 l 1x700c000040
 305 -171 l 1x700c000010
 305 -98 l 1
 322 -98 l 1
83 -171 m 1x700c08
 154 -171 l 1
 154 -188 l 1
 83 -188 l 1
 83 -171 l 1x700c08
167 -171 m 1x700c0010
 238 -171 l 1
 238 -188 l 1
 167 -188 l 1
 167 -171 l 1x700c0010
EndSplineSet
Validated: 33
EndChar

StartChar: R
Encoding: 82 82 17
Width: 321
VWidth: 800
Flags: W
HStem: -188 86<0 17 305 322> -188 17<17 70 83 154 167 238 250 305> -85 77<0 17 305 322> 14 81<0 17 305 322> 108 79<0 17 305 322> 126 8<61.9468 66 114.094 131.906 205.824 210> 170 8<45.2812 50 60 78 87 98 108 132 142 153 162 173 183 194 204 222 231 246 253.586 278 278.001 280.86> 200 17<107.758 111 111.001 113> 204 86<0 17 305 322> 228 9<106.464 130.053> 249 7<268 287.769> 274 8<63 74.9932 102 114.486 146.01 157.938 186 195.618 226 238 247 257.993> 306 77<0 17 305 322> 405 81<0 17 305 322> 498 90<0 17 305 322> 570 18<17 70 83 154 167 238 250 305>
VStem: 0 70<-188 -171 570 588> 0 17<-171 -102 -85 -8 10 90 108 187 204 290 306 383 401 481 498 570> 53 9<134.336 170 229.571 274> 75 10<134.417 170 203.875 273.926> 83 71<-188 -171 570 588> 98 10<135.019 170> 117 10<250.183 272.437> 127 15<193.23 201.967> 137 9<125.99 129 228.577 236 243.665 273> 153 9<125.477 170> 158 9<203.298 229 238 269.801> 167 71<-188 -171 570 588> 173 10<99.866 170 178 193 198 200> 194 10<134.857 170> 216 10<205.232 274> 222 9<134.872 170> 238 9<229.25 274> 250 72<-188 -171 570 588> 258 10<203.505 249 256 274> 305 17<-171 -98 -81 -4 14 95 112 191 209 294 311 387 405 486 502 570>
LayerCount: 2
Fore
SplineSet
0 481 m 1x300c40
 17 482 l 1
 17 401 l 1
 0 400 l 1
 0 481 l 1x300c40
0 383 m 1
 17 383 l 1
 17 306 l 1
 0 306 l 1
 0 383 l 1
0 290 m 1x308c40
 17 290 l 1
 17 204 l 1
 0 204 l 1
 0 290 l 1x308c40
0 187 m 1x380c40
 17 187 l 1
 17 108 l 1
 0 108 l 1
 0 187 l 1x380c40
0 90 m 1
 17 91 l 1
 17 10 l 1
 0 10 l 1
 0 90 l 1
0 -8 m 1
 17 -8 l 1
 17 -85 l 1
 0 -85 l 1
 0 -8 l 1
0 -102 m 1xb00c40
 17 -102 l 1xb00c40
 17 -171 l 1x700c40
 70 -171 l 1
 70 -188 l 1x700c80
 0 -188 l 1xb00c80
 0 -102 l 1xb00c40
0 588 m 1x300e80
 70 588 l 1
 70 570 l 1x300d80
 17 570 l 1x300d40
 17 498 l 1
 0 498 l 1x300e40
 0 528 0 558 0 588 c 1x300e80
83 588 m 1x300d08
 154 588 l 1
 154 570 l 1
 83 570 l 1
 83 588 l 1x300d08
167 588 m 1x300d0010
 238 588 l 1
 238 570 l 1
 167 570 l 1
 167 588 l 1x300d0010
250 588 m 1x300d000040
 322 588 l 1x300e000040
 322 502 l 1
 305 502 l 1
 305 570 l 1x300d000010
 250 570 l 1
 250 588 l 1x300d000040
322 486 m 1x300c000010
 322 405 l 1
 305 405 l 1
 305 486 l 1
 322 486 l 1x300c000010
322 387 m 1
 322 311 l 1
 305 310 l 1
 305 387 l 1
 322 387 l 1
322 294 m 1
 322 209 l 1
 305 208 l 1
 305 294 l 1
 322 294 l 1
132 280 m 2
 133 281 133 280 144 286 c 1
 144 287 l 1
 146 285 146 286 147 282 c 1
 156 282 l 1
 158 283 158 283 168 285 c 1
 168 276 l 1
 174 278 180 280 186 282 c 1
 191 282 l 2
 212 282 217 249 184 235 c 0
 180 234 167 229 167 229 c 2
 167 206 l 1
 160 203 161 203 158 202 c 1
 158 274 l 1
 146 274 l 1
 146 231 l 1
 143 229 140 229 137 228 c 1
 137 236 l 1
 135 235 134 234 132 233 c 0
 127 231 123 230 118 228 c 0
 112 228 97 228 91 240 c 1
 91 243 l 1
 99 245 100 246 100 246 c 0
 112 246 117 254 117 262 c 0
 117 267 115 275 102 275 c 1
 102 280 l 1
 105 280 107 282 108 282 c 2
 110 282 l 2
 112 282 127 282 127 262 c 0
 127 247 114 242 106 239 c 1
 113 237 113 237 114 237 c 0
 123 235 134 242 137 250 c 1
 137 273 l 2x305c06a0
 137 273 132 278 132 279 c 2
 132 280 l 2
48 280 m 2
 49 281 49 280 60 286 c 0
 63 282 l 2
 74 282 l 1
 76 283 76 283 86 285 c 1
 85 282 85 278 85 273 c 2
 85 206 l 1
 78 203 78 203 75 202 c 1
 75 274 l 1
 62 274 l 1
 62 231 l 1
 59 229 56 229 53 228 c 1
 53 273 l 1x305c30
 50 278 48 277 48 279 c 2
 48 280 l 2
211 281 m 0
 214 283 222 286 222 286 c 0x303c0001
 224 284 224 285 226 282 c 1
 257 282 l 1
 259 283 259 283 269 285 c 1
 269 283 268 280 268 276 c 2
 268 256 l 1
 270 256 l 2
 275 256 280 257 284 257 c 2
 289 257 l 1
 289 256 288 253 286 247 c 0
 285 247 284 248 282 248 c 0
 280 248 275 249 268 249 c 1
 268 206 l 1
 261 203 261 203 258 202 c 1
 258 274 l 1
 247 274 l 1
 247 231 l 1
 240 228 241 228 238 227 c 1
 238 274 l 1
 226 274 l 1
 226 206 l 1
 219 203 219 203 216 202 c 1
 216 273 l 1x303c0002a0
 211 278 211 277 211 279 c 0
 211 280 211 280 211 281 c 0
170 238 m 0
 195 242 197 262 197 262 c 0
 198 264 200 274 185 274 c 0
 179 274 169 269 167 267 c 1
 167 238 l 1x301c0020
 168 238 169 238 170 238 c 0
117 220 m 0x310c02
 118 220 117 221 118 221 c 0
 119 221 120 221 120 220 c 2
 120 218 l 2
 120 216 120 216 114 204 c 1x308c02
 114 202 l 2
 114 201 113 201 113 201 c 2
 112 200 111 200 111 200 c 0
 109 206 103 219 103 219 c 2
 103 220 l 2
 103 221 105 221 106 221 c 0
 106 221 107 220 112 217 c 0
 113 217 113 218 114 218 c 0
 116 218 115 220 117 220 c 0x310c02
173 193 m 2x368c0508
 169 198 l 2
 169 200 l 1
 170 200 l 1x330c0508
 175 202 179 203 183 204 c 1
 183 178 l 1
 278 178 l 1
 278 178 280 179 282 179 c 0
 284 179 284 178 284 178 c 2
 284 177 283 176 281 170 c 1
 278 171 276 171 274 171 c 0
 269 172 266 172 263 171 c 0
 261 171 250 167 250 158 c 2
 250 153 l 2
 250 153 252 129 281 134 c 1
 281 129 l 1
 278 129 276 126 274 126 c 0
 270 125 266 126 263 126 c 0
 240 126 233 157 246 170 c 1
 231 170 l 1
 231 141 l 1
 227 127 210 126 210 126 c 0
 196 126 194 138 194 142 c 2
 194 170 l 1
 183 170 l 1
 183 103 l 1
 180 101 177 100 173 99 c 1
 173 170 l 1
 162 170 l 1
 162 128 l 1
 159 126 157 126 153 125 c 1
 153 170 l 1
 142 170 l 1
 142 137 l 1x368c054d40
 144 135 144 133 144 133 c 2
 145 131 146 131 146 130 c 2x368c0080
 145 129 l 1
 145 128 l 1
 142 126 138 126 134 125 c 1
 134 126 133 126 133 127 c 2
 133 129 l 1
 130 127 119 125 114 125 c 0
 99 125 98 142 98 144 c 2
 98 170 l 1
 87 170 l 1
 87 141 l 1
 83 127 66 126 66 126 c 0
 57 124 50 132 50 142 c 2
 50 170 l 1
 31 170 l 2
 29 171 l 0
 29 174 29 175 42 186 c 1
 44 184 46 181 48 178 c 1
 132 178 l 1
 132 193 l 1
 127 198 127 197 127 198 c 0
 128 200 128 201 140 203 c 0
 141 203 141 204 141 204 c 1
 142 204 l 1
 142 178 l 1
 173 178 l 1
 173 193 l 2x368c0508
322 191 m 1x300c000010
 322 112 l 1
 305 112 l 1
 305 191 l 1
 322 191 l 1x300c000010
69 134 m 0x360c
 74 134 78 136 78 143 c 2
 78 170 l 1
 60 170 l 1
 60 161 60 154 60 145 c 0
 60 134 68 134 69 134 c 0x360c
108 170 m 1x360c04
 108 146 l 2
 108 144 111 136 114 134 c 0
 116 133 119 134 123 134 c 2
 126 134 l 1
 128 135 130 136 132 138 c 1
 132 170 l 1
 108 170 l 1x360c04
213 134 m 0
 216 134 222 134 222 143 c 2
 222 170 l 1
 204 170 l 1
 204 147 l 2x360c0005
 204 143 204 134 213 134 c 0
151 118 m 2
 151 118 152 117 158 114 c 1
 158 114 160 115 163 117 c 0
 164 117 l 0
 164 118 l 0
 165 118 166 118 166 117 c 2
 166 114 l 1
 161 104 160 104 159 101 c 1
 159 99 l 2
 159 98 158 98 158 98 c 2x300c0020
 157 97 157 97 157 98 c 0
 156 100 155 102 149 116 c 1
 149 117 l 2
 149 118 150 118 151 118 c 2
322 95 m 1x300c000010
 322 14 l 1
 305 14 l 1
 305 95 l 1
 322 95 l 1x300c000010
322 -4 m 1
 322 -81 l 1
 305 -81 l 1
 305 -4 l 1
 322 -4 l 1
322 -98 m 1
 322 -188 l 1xb00c000040
 250 -188 l 1
 250 -171 l 1x700c000040
 305 -171 l 1x700c000010
 305 -98 l 1
 322 -98 l 1
83 -171 m 1x700c08
 154 -171 l 1
 154 -188 l 1
 83 -188 l 1
 83 -171 l 1x700c08
167 -171 m 1x700c0010
 238 -171 l 1
 238 -188 l 1
 167 -188 l 1
 167 -171 l 1x700c0010
EndSplineSet
Validated: 33
EndChar

StartChar: S
Encoding: 83 83 18
Width: 321
VWidth: 800
Flags: W
HStem: -188 86<0 17 305 322> -188 17<17 70 83 154 167 238 250 305> -85 77<0 17 305 322> 14 81<0 17 305 322> 108 79<0 17 305 322> 126 8<61.9468 66 114.094 131.906 205.824 210> 170 8<45.2812 50 60 78 87 98 108 132 142 153 162 173 183 194 204 222 231 246 253.586 278 278.001 280.86> 200 17<107.758 111 111.001 113> 204 86<0 17 305 322> 228 9<106.464 130.053> 249 7<268 287.769> 274 8<63 74.9932 102 114.486 146.01 157.938 186 195.618 226 238 247 257.993> 306 77<0 17 305 322> 405 81<0 17 305 322> 498 90<0 17 305 322> 570 18<17 70 83 154 167 238 250 305>
VStem: 0 70<-188 -171 570 588> 0 17<-171 -102 -85 -8 10 90 108 187 204 290 306 383 401 481 498 570> 53 9<134.336 170 229.571 274> 75 10<134.417 170 203.875 273.926> 83 71<-188 -171 570 588> 98 10<135.019 170> 117 10<250.183 272.437> 127 15<193.23 201.967> 137 9<125.99 129 228.577 236 243.665 273> 153 9<125.477 170> 158 9<203.298 229 238 269.801> 167 71<-188 -171 570 588> 173 10<99.866 170 178 193 198 200> 194 10<134.857 170> 216 10<205.232 274> 222 9<134.872 170> 238 9<229.25 274> 250 72<-188 -171 570 588> 258 10<203.505 249 256 274> 305 17<-171 -98 -81 -4 14 95 112 191 209 294 311 387 405 486 502 570>
LayerCount: 2
Fore
SplineSet
0 481 m 1x300c40
 17 482 l 1
 17 401 l 1
 0 400 l 1
 0 481 l 1x300c40
0 383 m 1
 17 383 l 1
 17 306 l 1
 0 306 l 1
 0 383 l 1
0 290 m 1x308c40
 17 290 l 1
 17 204 l 1
 0 204 l 1
 0 290 l 1x308c40
0 187 m 1x380c40
 17 187 l 1
 17 108 l 1
 0 108 l 1
 0 187 l 1x380c40
0 90 m 1
 17 91 l 1
 17 10 l 1
 0 10 l 1
 0 90 l 1
0 -8 m 1
 17 -8 l 1
 17 -85 l 1
 0 -85 l 1
 0 -8 l 1
0 -102 m 1xb00c40
 17 -102 l 1xb00c40
 17 -171 l 1x700c40
 70 -171 l 1
 70 -188 l 1x700c80
 0 -188 l 1xb00c80
 0 -102 l 1xb00c40
0 588 m 1x300e80
 70 588 l 1
 70 570 l 1x300d80
 17 570 l 1x300d40
 17 498 l 1
 0 498 l 1x300e40
 0 528 0 558 0 588 c 1x300e80
83 588 m 1x300d08
 154 588 l 1
 154 570 l 1
 83 570 l 1
 83 588 l 1x300d08
167 588 m 1x300d0010
 238 588 l 1
 238 570 l 1
 167 570 l 1
 167 588 l 1x300d0010
250 588 m 1x300d000040
 322 588 l 1x300e000040
 322 502 l 1
 305 502 l 1
 305 570 l 1x300d000010
 250 570 l 1
 250 588 l 1x300d000040
322 486 m 1x300c000010
 322 405 l 1
 305 405 l 1
 305 486 l 1
 322 486 l 1x300c000010
322 387 m 1
 322 311 l 1
 305 310 l 1
 305 387 l 1
 322 387 l 1
322 294 m 1
 322 209 l 1
 305 208 l 1
 305 294 l 1
 322 294 l 1
132 280 m 2
 133 281 133 280 144 286 c 1
 144 287 l 1
 146 285 146 286 147 282 c 1
 156 282 l 1
 158 283 158 283 168 285 c 1
 168 276 l 1
 174 278 180 280 186 282 c 1
 191 282 l 2
 212 282 217 249 184 235 c 0
 180 234 167 229 167 229 c 2
 167 206 l 1
 160 203 161 203 158 202 c 1
 158 274 l 1
 146 274 l 1
 146 231 l 1
 143 229 140 229 137 228 c 1
 137 236 l 1
 135 235 134 234 132 233 c 0
 127 231 123 230 118 228 c 0
 112 228 97 228 91 240 c 1
 91 243 l 1
 99 245 100 246 100 246 c 0
 112 246 117 254 117 262 c 0
 117 267 115 275 102 275 c 1
 102 280 l 1
 105 280 107 282 108 282 c 2
 110 282 l 2
 112 282 127 282 127 262 c 0
 127 247 114 242 106 239 c 1
 113 237 113 237 114 237 c 0
 123 235 134 242 137 250 c 1
 137 273 l 2x305c06a0
 137 273 132 278 132 279 c 2
 132 280 l 2
48 280 m 2
 49 281 49 280 60 286 c 0
 63 282 l 2
 74 282 l 1
 76 283 76 283 86 285 c 1
 85 282 85 278 85 273 c 2
 85 206 l 1
 78 203 78 203 75 202 c 1
 75 274 l 1
 62 274 l 1
 62 231 l 1
 59 229 56 229 53 228 c 1
 53 273 l 1x305c30
 50 278 48 277 48 279 c 2
 48 280 l 2
211 281 m 0
 214 283 222 286 222 286 c 0x303c0001
 224 284 224 285 226 282 c 1
 257 282 l 1
 259 283 259 283 269 285 c 1
 269 283 268 280 268 276 c 2
 268 256 l 1
 270 256 l 2
 275 256 280 257 284 257 c 2
 289 257 l 1
 289 256 288 253 286 247 c 0
 285 247 284 248 282 248 c 0
 280 248 275 249 268 249 c 1
 268 206 l 1
 261 203 261 203 258 202 c 1
 258 274 l 1
 247 274 l 1
 247 231 l 1
 240 228 241 228 238 227 c 1
 238 274 l 1
 226 274 l 1
 226 206 l 1
 219 203 219 203 216 202 c 1
 216 273 l 1x303c0002a0
 211 278 211 277 211 279 c 0
 211 280 211 280 211 281 c 0
170 238 m 0
 195 242 197 262 197 262 c 0
 198 264 200 274 185 274 c 0
 179 274 169 269 167 267 c 1
 167 238 l 1x301c0020
 168 238 169 238 170 238 c 0
117 220 m 0x310c02
 118 220 117 221 118 221 c 0
 119 221 120 221 120 220 c 2
 120 218 l 2
 120 216 120 216 114 204 c 1x308c02
 114 202 l 2
 114 201 113 201 113 201 c 2
 112 200 111 200 111 200 c 0
 109 206 103 219 103 219 c 2
 103 220 l 2
 103 221 105 221 106 221 c 0
 106 221 107 220 112 217 c 0
 113 217 113 218 114 218 c 0
 116 218 115 220 117 220 c 0x310c02
173 193 m 2x368c0508
 169 198 l 2
 169 200 l 1
 170 200 l 1x330c0508
 175 202 179 203 183 204 c 1
 183 178 l 1
 278 178 l 1
 278 178 280 179 282 179 c 0
 284 179 284 178 284 178 c 2
 284 177 283 176 281 170 c 1
 278 171 276 171 274 171 c 0
 269 172 266 172 263 171 c 0
 261 171 250 167 250 158 c 2
 250 153 l 2
 250 153 252 129 281 134 c 1
 281 129 l 1
 278 129 276 126 274 126 c 0
 270 125 266 126 263 126 c 0
 240 126 233 157 246 170 c 1
 231 170 l 1
 231 141 l 1
 227 127 210 126 210 126 c 0
 196 126 194 138 194 142 c 2
 194 170 l 1
 183 170 l 1
 183 103 l 1
 180 101 177 100 173 99 c 1
 173 170 l 1
 162 170 l 1
 162 128 l 1
 159 126 157 126 153 125 c 1
 153 170 l 1
 142 170 l 1
 142 137 l 1x368c054d40
 144 135 144 133 144 133 c 2
 145 131 146 131 146 130 c 2x368c0080
 145 129 l 1
 145 128 l 1
 142 126 138 126 134 125 c 1
 134 126 133 126 133 127 c 2
 133 129 l 1
 130 127 119 125 114 125 c 0
 99 125 98 142 98 144 c 2
 98 170 l 1
 87 170 l 1
 87 141 l 1
 83 127 66 126 66 126 c 0
 57 124 50 132 50 142 c 2
 50 170 l 1
 31 170 l 2
 29 171 l 0
 29 174 29 175 42 186 c 1
 44 184 46 181 48 178 c 1
 132 178 l 1
 132 193 l 1
 127 198 127 197 127 198 c 0
 128 200 128 201 140 203 c 0
 141 203 141 204 141 204 c 1
 142 204 l 1
 142 178 l 1
 173 178 l 1
 173 193 l 2x368c0508
322 191 m 1x300c000010
 322 112 l 1
 305 112 l 1
 305 191 l 1
 322 191 l 1x300c000010
69 134 m 0x360c
 74 134 78 136 78 143 c 2
 78 170 l 1
 60 170 l 1
 60 161 60 154 60 145 c 0
 60 134 68 134 69 134 c 0x360c
108 170 m 1x360c04
 108 146 l 2
 108 144 111 136 114 134 c 0
 116 133 119 134 123 134 c 2
 126 134 l 1
 128 135 130 136 132 138 c 1
 132 170 l 1
 108 170 l 1x360c04
213 134 m 0
 216 134 222 134 222 143 c 2
 222 170 l 1
 204 170 l 1
 204 147 l 2x360c0005
 204 143 204 134 213 134 c 0
151 118 m 2
 151 118 152 117 158 114 c 1
 158 114 160 115 163 117 c 0
 164 117 l 0
 164 118 l 0
 165 118 166 118 166 117 c 2
 166 114 l 1
 161 104 160 104 159 101 c 1
 159 99 l 2
 159 98 158 98 158 98 c 2x300c0020
 157 97 157 97 157 98 c 0
 156 100 155 102 149 116 c 1
 149 117 l 2
 149 118 150 118 151 118 c 2
322 95 m 1x300c000010
 322 14 l 1
 305 14 l 1
 305 95 l 1
 322 95 l 1x300c000010
322 -4 m 1
 322 -81 l 1
 305 -81 l 1
 305 -4 l 1
 322 -4 l 1
322 -98 m 1
 322 -188 l 1xb00c000040
 250 -188 l 1
 250 -171 l 1x700c000040
 305 -171 l 1x700c000010
 305 -98 l 1
 322 -98 l 1
83 -171 m 1x700c08
 154 -171 l 1
 154 -188 l 1
 83 -188 l 1
 83 -171 l 1x700c08
167 -171 m 1x700c0010
 238 -171 l 1
 238 -188 l 1
 167 -188 l 1
 167 -171 l 1x700c0010
EndSplineSet
Validated: 33
EndChar

StartChar: T
Encoding: 84 84 19
Width: 321
VWidth: 800
Flags: W
HStem: -188 86<0 17 305 322> -188 17<17 70 83 154 167 238 250 305> -85 77<0 17 305 322> 14 81<0 17 305 322> 108 79<0 17 305 322> 126 8<61.9468 66 114.094 131.906 205.824 210> 170 8<45.2812 50 60 78 87 98 108 132 142 153 162 173 183 194 204 222 231 246 253.586 278 278.001 280.86> 200 17<107.758 111 111.001 113> 204 86<0 17 305 322> 228 9<106.464 130.053> 249 7<268 287.769> 274 8<63 74.9932 102 114.486 146.01 157.938 186 195.618 226 238 247 257.993> 306 77<0 17 305 322> 405 81<0 17 305 322> 498 90<0 17 305 322> 570 18<17 70 83 154 167 238 250 305>
VStem: 0 70<-188 -171 570 588> 0 17<-171 -102 -85 -8 10 90 108 187 204 290 306 383 401 481 498 570> 53 9<134.336 170 229.571 274> 75 10<134.417 170 203.875 273.926> 83 71<-188 -171 570 588> 98 10<135.019 170> 117 10<250.183 272.437> 127 15<193.23 201.967> 137 9<125.99 129 228.577 236 243.665 273> 153 9<125.477 170> 158 9<203.298 229 238 269.801> 167 71<-188 -171 570 588> 173 10<99.866 170 178 193 198 200> 194 10<134.857 170> 216 10<205.232 274> 222 9<134.872 170> 238 9<229.25 274> 250 72<-188 -171 570 588> 258 10<203.505 249 256 274> 305 17<-171 -98 -81 -4 14 95 112 191 209 294 311 387 405 486 502 570>
LayerCount: 2
Fore
SplineSet
0 481 m 1x300c40
 17 482 l 1
 17 401 l 1
 0 400 l 1
 0 481 l 1x300c40
0 383 m 1
 17 383 l 1
 17 306 l 1
 0 306 l 1
 0 383 l 1
0 290 m 1x308c40
 17 290 l 1
 17 204 l 1
 0 204 l 1
 0 290 l 1x308c40
0 187 m 1x380c40
 17 187 l 1
 17 108 l 1
 0 108 l 1
 0 187 l 1x380c40
0 90 m 1
 17 91 l 1
 17 10 l 1
 0 10 l 1
 0 90 l 1
0 -8 m 1
 17 -8 l 1
 17 -85 l 1
 0 -85 l 1
 0 -8 l 1
0 -102 m 1xb00c40
 17 -102 l 1xb00c40
 17 -171 l 1x700c40
 70 -171 l 1
 70 -188 l 1x700c80
 0 -188 l 1xb00c80
 0 -102 l 1xb00c40
0 588 m 1x300e80
 70 588 l 1
 70 570 l 1x300d80
 17 570 l 1x300d40
 17 498 l 1
 0 498 l 1x300e40
 0 528 0 558 0 588 c 1x300e80
83 588 m 1x300d08
 154 588 l 1
 154 570 l 1
 83 570 l 1
 83 588 l 1x300d08
167 588 m 1x300d0010
 238 588 l 1
 238 570 l 1
 167 570 l 1
 167 588 l 1x300d0010
250 588 m 1x300d000040
 322 588 l 1x300e000040
 322 502 l 1
 305 502 l 1
 305 570 l 1x300d000010
 250 570 l 1
 250 588 l 1x300d000040
322 486 m 1x300c000010
 322 405 l 1
 305 405 l 1
 305 486 l 1
 322 486 l 1x300c000010
322 387 m 1
 322 311 l 1
 305 310 l 1
 305 387 l 1
 322 387 l 1
322 294 m 1
 322 209 l 1
 305 208 l 1
 305 294 l 1
 322 294 l 1
132 280 m 2
 133 281 133 280 144 286 c 1
 144 287 l 1
 146 285 146 286 147 282 c 1
 156 282 l 1
 158 283 158 283 168 285 c 1
 168 276 l 1
 174 278 180 280 186 282 c 1
 191 282 l 2
 212 282 217 249 184 235 c 0
 180 234 167 229 167 229 c 2
 167 206 l 1
 160 203 161 203 158 202 c 1
 158 274 l 1
 146 274 l 1
 146 231 l 1
 143 229 140 229 137 228 c 1
 137 236 l 1
 135 235 134 234 132 233 c 0
 127 231 123 230 118 228 c 0
 112 228 97 228 91 240 c 1
 91 243 l 1
 99 245 100 246 100 246 c 0
 112 246 117 254 117 262 c 0
 117 267 115 275 102 275 c 1
 102 280 l 1
 105 280 107 282 108 282 c 2
 110 282 l 2
 112 282 127 282 127 262 c 0
 127 247 114 242 106 239 c 1
 113 237 113 237 114 237 c 0
 123 235 134 242 137 250 c 1
 137 273 l 2x305c06a0
 137 273 132 278 132 279 c 2
 132 280 l 2
48 280 m 2
 49 281 49 280 60 286 c 0
 63 282 l 2
 74 282 l 1
 76 283 76 283 86 285 c 1
 85 282 85 278 85 273 c 2
 85 206 l 1
 78 203 78 203 75 202 c 1
 75 274 l 1
 62 274 l 1
 62 231 l 1
 59 229 56 229 53 228 c 1
 53 273 l 1x305c30
 50 278 48 277 48 279 c 2
 48 280 l 2
211 281 m 0
 214 283 222 286 222 286 c 0x303c0001
 224 284 224 285 226 282 c 1
 257 282 l 1
 259 283 259 283 269 285 c 1
 269 283 268 280 268 276 c 2
 268 256 l 1
 270 256 l 2
 275 256 280 257 284 257 c 2
 289 257 l 1
 289 256 288 253 286 247 c 0
 285 247 284 248 282 248 c 0
 280 248 275 249 268 249 c 1
 268 206 l 1
 261 203 261 203 258 202 c 1
 258 274 l 1
 247 274 l 1
 247 231 l 1
 240 228 241 228 238 227 c 1
 238 274 l 1
 226 274 l 1
 226 206 l 1
 219 203 219 203 216 202 c 1
 216 273 l 1x303c0002a0
 211 278 211 277 211 279 c 0
 211 280 211 280 211 281 c 0
170 238 m 0
 195 242 197 262 197 262 c 0
 198 264 200 274 185 274 c 0
 179 274 169 269 167 267 c 1
 167 238 l 1x301c0020
 168 238 169 238 170 238 c 0
117 220 m 0x310c02
 118 220 117 221 118 221 c 0
 119 221 120 221 120 220 c 2
 120 218 l 2
 120 216 120 216 114 204 c 1x308c02
 114 202 l 2
 114 201 113 201 113 201 c 2
 112 200 111 200 111 200 c 0
 109 206 103 219 103 219 c 2
 103 220 l 2
 103 221 105 221 106 221 c 0
 106 221 107 220 112 217 c 0
 113 217 113 218 114 218 c 0
 116 218 115 220 117 220 c 0x310c02
173 193 m 2x368c0508
 169 198 l 2
 169 200 l 1
 170 200 l 1x330c0508
 175 202 179 203 183 204 c 1
 183 178 l 1
 278 178 l 1
 278 178 280 179 282 179 c 0
 284 179 284 178 284 178 c 2
 284 177 283 176 281 170 c 1
 278 171 276 171 274 171 c 0
 269 172 266 172 263 171 c 0
 261 171 250 167 250 158 c 2
 250 153 l 2
 250 153 252 129 281 134 c 1
 281 129 l 1
 278 129 276 126 274 126 c 0
 270 125 266 126 263 126 c 0
 240 126 233 157 246 170 c 1
 231 170 l 1
 231 141 l 1
 227 127 210 126 210 126 c 0
 196 126 194 138 194 142 c 2
 194 170 l 1
 183 170 l 1
 183 103 l 1
 180 101 177 100 173 99 c 1
 173 170 l 1
 162 170 l 1
 162 128 l 1
 159 126 157 126 153 125 c 1
 153 170 l 1
 142 170 l 1
 142 137 l 1x368c054d40
 144 135 144 133 144 133 c 2
 145 131 146 131 146 130 c 2x368c0080
 145 129 l 1
 145 128 l 1
 142 126 138 126 134 125 c 1
 134 126 133 126 133 127 c 2
 133 129 l 1
 130 127 119 125 114 125 c 0
 99 125 98 142 98 144 c 2
 98 170 l 1
 87 170 l 1
 87 141 l 1
 83 127 66 126 66 126 c 0
 57 124 50 132 50 142 c 2
 50 170 l 1
 31 170 l 2
 29 171 l 0
 29 174 29 175 42 186 c 1
 44 184 46 181 48 178 c 1
 132 178 l 1
 132 193 l 1
 127 198 127 197 127 198 c 0
 128 200 128 201 140 203 c 0
 141 203 141 204 141 204 c 1
 142 204 l 1
 142 178 l 1
 173 178 l 1
 173 193 l 2x368c0508
322 191 m 1x300c000010
 322 112 l 1
 305 112 l 1
 305 191 l 1
 322 191 l 1x300c000010
69 134 m 0x360c
 74 134 78 136 78 143 c 2
 78 170 l 1
 60 170 l 1
 60 161 60 154 60 145 c 0
 60 134 68 134 69 134 c 0x360c
108 170 m 1x360c04
 108 146 l 2
 108 144 111 136 114 134 c 0
 116 133 119 134 123 134 c 2
 126 134 l 1
 128 135 130 136 132 138 c 1
 132 170 l 1
 108 170 l 1x360c04
213 134 m 0
 216 134 222 134 222 143 c 2
 222 170 l 1
 204 170 l 1
 204 147 l 2x360c0005
 204 143 204 134 213 134 c 0
151 118 m 2
 151 118 152 117 158 114 c 1
 158 114 160 115 163 117 c 0
 164 117 l 0
 164 118 l 0
 165 118 166 118 166 117 c 2
 166 114 l 1
 161 104 160 104 159 101 c 1
 159 99 l 2
 159 98 158 98 158 98 c 2x300c0020
 157 97 157 97 157 98 c 0
 156 100 155 102 149 116 c 1
 149 117 l 2
 149 118 150 118 151 118 c 2
322 95 m 1x300c000010
 322 14 l 1
 305 14 l 1
 305 95 l 1
 322 95 l 1x300c000010
322 -4 m 1
 322 -81 l 1
 305 -81 l 1
 305 -4 l 1
 322 -4 l 1
322 -98 m 1
 322 -188 l 1xb00c000040
 250 -188 l 1
 250 -171 l 1x700c000040
 305 -171 l 1x700c000010
 305 -98 l 1
 322 -98 l 1
83 -171 m 1x700c08
 154 -171 l 1
 154 -188 l 1
 83 -188 l 1
 83 -171 l 1x700c08
167 -171 m 1x700c0010
 238 -171 l 1
 238 -188 l 1
 167 -188 l 1
 167 -171 l 1x700c0010
EndSplineSet
Validated: 33
EndChar

StartChar: U
Encoding: 85 85 20
Width: 321
VWidth: 800
Flags: W
HStem: -188 86<0 17 305 322> -188 17<17 70 83 154 167 238 250 305> -85 77<0 17 305 322> 14 81<0 17 305 322> 108 79<0 17 305 322> 126 8<61.9468 66 114.094 131.906 205.824 210> 170 8<45.2812 50 60 78 87 98 108 132 142 153 162 173 183 194 204 222 231 246 253.586 278 278.001 280.86> 200 17<107.758 111 111.001 113> 204 86<0 17 305 322> 228 9<106.464 130.053> 249 7<268 287.769> 274 8<63 74.9932 102 114.486 146.01 157.938 186 195.618 226 238 247 257.993> 306 77<0 17 305 322> 405 81<0 17 305 322> 498 90<0 17 305 322> 570 18<17 70 83 154 167 238 250 305>
VStem: 0 70<-188 -171 570 588> 0 17<-171 -102 -85 -8 10 90 108 187 204 290 306 383 401 481 498 570> 53 9<134.336 170 229.571 274> 75 10<134.417 170 203.875 273.926> 83 71<-188 -171 570 588> 98 10<135.019 170> 117 10<250.183 272.437> 127 15<193.23 201.967> 137 9<125.99 129 228.577 236 243.665 273> 153 9<125.477 170> 158 9<203.298 229 238 269.801> 167 71<-188 -171 570 588> 173 10<99.866 170 178 193 198 200> 194 10<134.857 170> 216 10<205.232 274> 222 9<134.872 170> 238 9<229.25 274> 250 72<-188 -171 570 588> 258 10<203.505 249 256 274> 305 17<-171 -98 -81 -4 14 95 112 191 209 294 311 387 405 486 502 570>
LayerCount: 2
Fore
SplineSet
0 481 m 1x300c40
 17 482 l 1
 17 401 l 1
 0 400 l 1
 0 481 l 1x300c40
0 383 m 1
 17 383 l 1
 17 306 l 1
 0 306 l 1
 0 383 l 1
0 290 m 1x308c40
 17 290 l 1
 17 204 l 1
 0 204 l 1
 0 290 l 1x308c40
0 187 m 1x380c40
 17 187 l 1
 17 108 l 1
 0 108 l 1
 0 187 l 1x380c40
0 90 m 1
 17 91 l 1
 17 10 l 1
 0 10 l 1
 0 90 l 1
0 -8 m 1
 17 -8 l 1
 17 -85 l 1
 0 -85 l 1
 0 -8 l 1
0 -102 m 1xb00c40
 17 -102 l 1xb00c40
 17 -171 l 1x700c40
 70 -171 l 1
 70 -188 l 1x700c80
 0 -188 l 1xb00c80
 0 -102 l 1xb00c40
0 588 m 1x300e80
 70 588 l 1
 70 570 l 1x300d80
 17 570 l 1x300d40
 17 498 l 1
 0 498 l 1x300e40
 0 528 0 558 0 588 c 1x300e80
83 588 m 1x300d08
 154 588 l 1
 154 570 l 1
 83 570 l 1
 83 588 l 1x300d08
167 588 m 1x300d0010
 238 588 l 1
 238 570 l 1
 167 570 l 1
 167 588 l 1x300d0010
250 588 m 1x300d000040
 322 588 l 1x300e000040
 322 502 l 1
 305 502 l 1
 305 570 l 1x300d000010
 250 570 l 1
 250 588 l 1x300d000040
322 486 m 1x300c000010
 322 405 l 1
 305 405 l 1
 305 486 l 1
 322 486 l 1x300c000010
322 387 m 1
 322 311 l 1
 305 310 l 1
 305 387 l 1
 322 387 l 1
322 294 m 1
 322 209 l 1
 305 208 l 1
 305 294 l 1
 322 294 l 1
132 280 m 2
 133 281 133 280 144 286 c 1
 144 287 l 1
 146 285 146 286 147 282 c 1
 156 282 l 1
 158 283 158 283 168 285 c 1
 168 276 l 1
 174 278 180 280 186 282 c 1
 191 282 l 2
 212 282 217 249 184 235 c 0
 180 234 167 229 167 229 c 2
 167 206 l 1
 160 203 161 203 158 202 c 1
 158 274 l 1
 146 274 l 1
 146 231 l 1
 143 229 140 229 137 228 c 1
 137 236 l 1
 135 235 134 234 132 233 c 0
 127 231 123 230 118 228 c 0
 112 228 97 228 91 240 c 1
 91 243 l 1
 99 245 100 246 100 246 c 0
 112 246 117 254 117 262 c 0
 117 267 115 275 102 275 c 1
 102 280 l 1
 105 280 107 282 108 282 c 2
 110 282 l 2
 112 282 127 282 127 262 c 0
 127 247 114 242 106 239 c 1
 113 237 113 237 114 237 c 0
 123 235 134 242 137 250 c 1
 137 273 l 2x305c06a0
 137 273 132 278 132 279 c 2
 132 280 l 2
48 280 m 2
 49 281 49 280 60 286 c 0
 63 282 l 2
 74 282 l 1
 76 283 76 283 86 285 c 1
 85 282 85 278 85 273 c 2
 85 206 l 1
 78 203 78 203 75 202 c 1
 75 274 l 1
 62 274 l 1
 62 231 l 1
 59 229 56 229 53 228 c 1
 53 273 l 1x305c30
 50 278 48 277 48 279 c 2
 48 280 l 2
211 281 m 0
 214 283 222 286 222 286 c 0x303c0001
 224 284 224 285 226 282 c 1
 257 282 l 1
 259 283 259 283 269 285 c 1
 269 283 268 280 268 276 c 2
 268 256 l 1
 270 256 l 2
 275 256 280 257 284 257 c 2
 289 257 l 1
 289 256 288 253 286 247 c 0
 285 247 284 248 282 248 c 0
 280 248 275 249 268 249 c 1
 268 206 l 1
 261 203 261 203 258 202 c 1
 258 274 l 1
 247 274 l 1
 247 231 l 1
 240 228 241 228 238 227 c 1
 238 274 l 1
 226 274 l 1
 226 206 l 1
 219 203 219 203 216 202 c 1
 216 273 l 1x303c0002a0
 211 278 211 277 211 279 c 0
 211 280 211 280 211 281 c 0
170 238 m 0
 195 242 197 262 197 262 c 0
 198 264 200 274 185 274 c 0
 179 274 169 269 167 267 c 1
 167 238 l 1x301c0020
 168 238 169 238 170 238 c 0
117 220 m 0x310c02
 118 220 117 221 118 221 c 0
 119 221 120 221 120 220 c 2
 120 218 l 2
 120 216 120 216 114 204 c 1x308c02
 114 202 l 2
 114 201 113 201 113 201 c 2
 112 200 111 200 111 200 c 0
 109 206 103 219 103 219 c 2
 103 220 l 2
 103 221 105 221 106 221 c 0
 106 221 107 220 112 217 c 0
 113 217 113 218 114 218 c 0
 116 218 115 220 117 220 c 0x310c02
173 193 m 2x368c0508
 169 198 l 2
 169 200 l 1
 170 200 l 1x330c0508
 175 202 179 203 183 204 c 1
 183 178 l 1
 278 178 l 1
 278 178 280 179 282 179 c 0
 284 179 284 178 284 178 c 2
 284 177 283 176 281 170 c 1
 278 171 276 171 274 171 c 0
 269 172 266 172 263 171 c 0
 261 171 250 167 250 158 c 2
 250 153 l 2
 250 153 252 129 281 134 c 1
 281 129 l 1
 278 129 276 126 274 126 c 0
 270 125 266 126 263 126 c 0
 240 126 233 157 246 170 c 1
 231 170 l 1
 231 141 l 1
 227 127 210 126 210 126 c 0
 196 126 194 138 194 142 c 2
 194 170 l 1
 183 170 l 1
 183 103 l 1
 180 101 177 100 173 99 c 1
 173 170 l 1
 162 170 l 1
 162 128 l 1
 159 126 157 126 153 125 c 1
 153 170 l 1
 142 170 l 1
 142 137 l 1x368c054d40
 144 135 144 133 144 133 c 2
 145 131 146 131 146 130 c 2x368c0080
 145 129 l 1
 145 128 l 1
 142 126 138 126 134 125 c 1
 134 126 133 126 133 127 c 2
 133 129 l 1
 130 127 119 125 114 125 c 0
 99 125 98 142 98 144 c 2
 98 170 l 1
 87 170 l 1
 87 141 l 1
 83 127 66 126 66 126 c 0
 57 124 50 132 50 142 c 2
 50 170 l 1
 31 170 l 2
 29 171 l 0
 29 174 29 175 42 186 c 1
 44 184 46 181 48 178 c 1
 132 178 l 1
 132 193 l 1
 127 198 127 197 127 198 c 0
 128 200 128 201 140 203 c 0
 141 203 141 204 141 204 c 1
 142 204 l 1
 142 178 l 1
 173 178 l 1
 173 193 l 2x368c0508
322 191 m 1x300c000010
 322 112 l 1
 305 112 l 1
 305 191 l 1
 322 191 l 1x300c000010
69 134 m 0x360c
 74 134 78 136 78 143 c 2
 78 170 l 1
 60 170 l 1
 60 161 60 154 60 145 c 0
 60 134 68 134 69 134 c 0x360c
108 170 m 1x360c04
 108 146 l 2
 108 144 111 136 114 134 c 0
 116 133 119 134 123 134 c 2
 126 134 l 1
 128 135 130 136 132 138 c 1
 132 170 l 1
 108 170 l 1x360c04
213 134 m 0
 216 134 222 134 222 143 c 2
 222 170 l 1
 204 170 l 1
 204 147 l 2x360c0005
 204 143 204 134 213 134 c 0
151 118 m 2
 151 118 152 117 158 114 c 1
 158 114 160 115 163 117 c 0
 164 117 l 0
 164 118 l 0
 165 118 166 118 166 117 c 2
 166 114 l 1
 161 104 160 104 159 101 c 1
 159 99 l 2
 159 98 158 98 158 98 c 2x300c0020
 157 97 157 97 157 98 c 0
 156 100 155 102 149 116 c 1
 149 117 l 2
 149 118 150 118 151 118 c 2
322 95 m 1x300c000010
 322 14 l 1
 305 14 l 1
 305 95 l 1
 322 95 l 1x300c000010
322 -4 m 1
 322 -81 l 1
 305 -81 l 1
 305 -4 l 1
 322 -4 l 1
322 -98 m 1
 322 -188 l 1xb00c000040
 250 -188 l 1
 250 -171 l 1x700c000040
 305 -171 l 1x700c000010
 305 -98 l 1
 322 -98 l 1
83 -171 m 1x700c08
 154 -171 l 1
 154 -188 l 1
 83 -188 l 1
 83 -171 l 1x700c08
167 -171 m 1x700c0010
 238 -171 l 1
 238 -188 l 1
 167 -188 l 1
 167 -171 l 1x700c0010
EndSplineSet
Validated: 33
EndChar

StartChar: V
Encoding: 86 86 21
Width: 321
VWidth: 800
Flags: W
HStem: -188 86<0 17 305 322> -188 17<17 70 83 154 167 238 250 305> -85 77<0 17 305 322> 14 81<0 17 305 322> 108 79<0 17 305 322> 126 8<61.9468 66 114.094 131.906 205.824 210> 170 8<45.2812 50 60 78 87 98 108 132 142 153 162 173 183 194 204 222 231 246 253.586 278 278.001 280.86> 200 17<107.758 111 111.001 113> 204 86<0 17 305 322> 228 9<106.464 130.053> 249 7<268 287.769> 274 8<63 74.9932 102 114.486 146.01 157.938 186 195.618 226 238 247 257.993> 306 77<0 17 305 322> 405 81<0 17 305 322> 498 90<0 17 305 322> 570 18<17 70 83 154 167 238 250 305>
VStem: 0 70<-188 -171 570 588> 0 17<-171 -102 -85 -8 10 90 108 187 204 290 306 383 401 481 498 570> 53 9<134.336 170 229.571 274> 75 10<134.417 170 203.875 273.926> 83 71<-188 -171 570 588> 98 10<135.019 170> 117 10<250.183 272.437> 127 15<193.23 201.967> 137 9<125.99 129 228.577 236 243.665 273> 153 9<125.477 170> 158 9<203.298 229 238 269.801> 167 71<-188 -171 570 588> 173 10<99.866 170 178 193 198 200> 194 10<134.857 170> 216 10<205.232 274> 222 9<134.872 170> 238 9<229.25 274> 250 72<-188 -171 570 588> 258 10<203.505 249 256 274> 305 17<-171 -98 -81 -4 14 95 112 191 209 294 311 387 405 486 502 570>
LayerCount: 2
Fore
SplineSet
0 481 m 1x300c40
 17 482 l 1
 17 401 l 1
 0 400 l 1
 0 481 l 1x300c40
0 383 m 1
 17 383 l 1
 17 306 l 1
 0 306 l 1
 0 383 l 1
0 290 m 1x308c40
 17 290 l 1
 17 204 l 1
 0 204 l 1
 0 290 l 1x308c40
0 187 m 1x380c40
 17 187 l 1
 17 108 l 1
 0 108 l 1
 0 187 l 1x380c40
0 90 m 1
 17 91 l 1
 17 10 l 1
 0 10 l 1
 0 90 l 1
0 -8 m 1
 17 -8 l 1
 17 -85 l 1
 0 -85 l 1
 0 -8 l 1
0 -102 m 1xb00c40
 17 -102 l 1xb00c40
 17 -171 l 1x700c40
 70 -171 l 1
 70 -188 l 1x700c80
 0 -188 l 1xb00c80
 0 -102 l 1xb00c40
0 588 m 1x300e80
 70 588 l 1
 70 570 l 1x300d80
 17 570 l 1x300d40
 17 498 l 1
 0 498 l 1x300e40
 0 528 0 558 0 588 c 1x300e80
83 588 m 1x300d08
 154 588 l 1
 154 570 l 1
 83 570 l 1
 83 588 l 1x300d08
167 588 m 1x300d0010
 238 588 l 1
 238 570 l 1
 167 570 l 1
 167 588 l 1x300d0010
250 588 m 1x300d000040
 322 588 l 1x300e000040
 322 502 l 1
 305 502 l 1
 305 570 l 1x300d000010
 250 570 l 1
 250 588 l 1x300d000040
322 486 m 1x300c000010
 322 405 l 1
 305 405 l 1
 305 486 l 1
 322 486 l 1x300c000010
322 387 m 1
 322 311 l 1
 305 310 l 1
 305 387 l 1
 322 387 l 1
322 294 m 1
 322 209 l 1
 305 208 l 1
 305 294 l 1
 322 294 l 1
132 280 m 2
 133 281 133 280 144 286 c 1
 144 287 l 1
 146 285 146 286 147 282 c 1
 156 282 l 1
 158 283 158 283 168 285 c 1
 168 276 l 1
 174 278 180 280 186 282 c 1
 191 282 l 2
 212 282 217 249 184 235 c 0
 180 234 167 229 167 229 c 2
 167 206 l 1
 160 203 161 203 158 202 c 1
 158 274 l 1
 146 274 l 1
 146 231 l 1
 143 229 140 229 137 228 c 1
 137 236 l 1
 135 235 134 234 132 233 c 0
 127 231 123 230 118 228 c 0
 112 228 97 228 91 240 c 1
 91 243 l 1
 99 245 100 246 100 246 c 0
 112 246 117 254 117 262 c 0
 117 267 115 275 102 275 c 1
 102 280 l 1
 105 280 107 282 108 282 c 2
 110 282 l 2
 112 282 127 282 127 262 c 0
 127 247 114 242 106 239 c 1
 113 237 113 237 114 237 c 0
 123 235 134 242 137 250 c 1
 137 273 l 2x305c06a0
 137 273 132 278 132 279 c 2
 132 280 l 2
48 280 m 2
 49 281 49 280 60 286 c 0
 63 282 l 2
 74 282 l 1
 76 283 76 283 86 285 c 1
 85 282 85 278 85 273 c 2
 85 206 l 1
 78 203 78 203 75 202 c 1
 75 274 l 1
 62 274 l 1
 62 231 l 1
 59 229 56 229 53 228 c 1
 53 273 l 1x305c30
 50 278 48 277 48 279 c 2
 48 280 l 2
211 281 m 0
 214 283 222 286 222 286 c 0x303c0001
 224 284 224 285 226 282 c 1
 257 282 l 1
 259 283 259 283 269 285 c 1
 269 283 268 280 268 276 c 2
 268 256 l 1
 270 256 l 2
 275 256 280 257 284 257 c 2
 289 257 l 1
 289 256 288 253 286 247 c 0
 285 247 284 248 282 248 c 0
 280 248 275 249 268 249 c 1
 268 206 l 1
 261 203 261 203 258 202 c 1
 258 274 l 1
 247 274 l 1
 247 231 l 1
 240 228 241 228 238 227 c 1
 238 274 l 1
 226 274 l 1
 226 206 l 1
 219 203 219 203 216 202 c 1
 216 273 l 1x303c0002a0
 211 278 211 277 211 279 c 0
 211 280 211 280 211 281 c 0
170 238 m 0
 195 242 197 262 197 262 c 0
 198 264 200 274 185 274 c 0
 179 274 169 269 167 267 c 1
 167 238 l 1x301c0020
 168 238 169 238 170 238 c 0
117 220 m 0x310c02
 118 220 117 221 118 221 c 0
 119 221 120 221 120 220 c 2
 120 218 l 2
 120 216 120 216 114 204 c 1x308c02
 114 202 l 2
 114 201 113 201 113 201 c 2
 112 200 111 200 111 200 c 0
 109 206 103 219 103 219 c 2
 103 220 l 2
 103 221 105 221 106 221 c 0
 106 221 107 220 112 217 c 0
 113 217 113 218 114 218 c 0
 116 218 115 220 117 220 c 0x310c02
173 193 m 2x368c0508
 169 198 l 2
 169 200 l 1
 170 200 l 1x330c0508
 175 202 179 203 183 204 c 1
 183 178 l 1
 278 178 l 1
 278 178 280 179 282 179 c 0
 284 179 284 178 284 178 c 2
 284 177 283 176 281 170 c 1
 278 171 276 171 274 171 c 0
 269 172 266 172 263 171 c 0
 261 171 250 167 250 158 c 2
 250 153 l 2
 250 153 252 129 281 134 c 1
 281 129 l 1
 278 129 276 126 274 126 c 0
 270 125 266 126 263 126 c 0
 240 126 233 157 246 170 c 1
 231 170 l 1
 231 141 l 1
 227 127 210 126 210 126 c 0
 196 126 194 138 194 142 c 2
 194 170 l 1
 183 170 l 1
 183 103 l 1
 180 101 177 100 173 99 c 1
 173 170 l 1
 162 170 l 1
 162 128 l 1
 159 126 157 126 153 125 c 1
 153 170 l 1
 142 170 l 1
 142 137 l 1x368c054d40
 144 135 144 133 144 133 c 2
 145 131 146 131 146 130 c 2x368c0080
 145 129 l 1
 145 128 l 1
 142 126 138 126 134 125 c 1
 134 126 133 126 133 127 c 2
 133 129 l 1
 130 127 119 125 114 125 c 0
 99 125 98 142 98 144 c 2
 98 170 l 1
 87 170 l 1
 87 141 l 1
 83 127 66 126 66 126 c 0
 57 124 50 132 50 142 c 2
 50 170 l 1
 31 170 l 2
 29 171 l 0
 29 174 29 175 42 186 c 1
 44 184 46 181 48 178 c 1
 132 178 l 1
 132 193 l 1
 127 198 127 197 127 198 c 0
 128 200 128 201 140 203 c 0
 141 203 141 204 141 204 c 1
 142 204 l 1
 142 178 l 1
 173 178 l 1
 173 193 l 2x368c0508
322 191 m 1x300c000010
 322 112 l 1
 305 112 l 1
 305 191 l 1
 322 191 l 1x300c000010
69 134 m 0x360c
 74 134 78 136 78 143 c 2
 78 170 l 1
 60 170 l 1
 60 161 60 154 60 145 c 0
 60 134 68 134 69 134 c 0x360c
108 170 m 1x360c04
 108 146 l 2
 108 144 111 136 114 134 c 0
 116 133 119 134 123 134 c 2
 126 134 l 1
 128 135 130 136 132 138 c 1
 132 170 l 1
 108 170 l 1x360c04
213 134 m 0
 216 134 222 134 222 143 c 2
 222 170 l 1
 204 170 l 1
 204 147 l 2x360c0005
 204 143 204 134 213 134 c 0
151 118 m 2
 151 118 152 117 158 114 c 1
 158 114 160 115 163 117 c 0
 164 117 l 0
 164 118 l 0
 165 118 166 118 166 117 c 2
 166 114 l 1
 161 104 160 104 159 101 c 1
 159 99 l 2
 159 98 158 98 158 98 c 2x300c0020
 157 97 157 97 157 98 c 0
 156 100 155 102 149 116 c 1
 149 117 l 2
 149 118 150 118 151 118 c 2
322 95 m 1x300c000010
 322 14 l 1
 305 14 l 1
 305 95 l 1
 322 95 l 1x300c000010
322 -4 m 1
 322 -81 l 1
 305 -81 l 1
 305 -4 l 1
 322 -4 l 1
322 -98 m 1
 322 -188 l 1xb00c000040
 250 -188 l 1
 250 -171 l 1x700c000040
 305 -171 l 1x700c000010
 305 -98 l 1
 322 -98 l 1
83 -171 m 1x700c08
 154 -171 l 1
 154 -188 l 1
 83 -188 l 1
 83 -171 l 1x700c08
167 -171 m 1x700c0010
 238 -171 l 1
 238 -188 l 1
 167 -188 l 1
 167 -171 l 1x700c0010
EndSplineSet
Validated: 33
EndChar

StartChar: W
Encoding: 87 87 22
Width: 321
VWidth: 800
Flags: W
HStem: -188 86<0 17 305 322> -188 17<17 70 83 154 167 238 250 305> -85 77<0 17 305 322> 14 81<0 17 305 322> 108 79<0 17 305 322> 126 8<61.9468 66 114.094 131.906 205.824 210> 170 8<45.2812 50 60 78 87 98 108 132 142 153 162 173 183 194 204 222 231 246 253.586 278 278.001 280.86> 200 17<107.758 111 111.001 113> 204 86<0 17 305 322> 228 9<106.464 130.053> 249 7<268 287.769> 274 8<63 74.9932 102 114.486 146.01 157.938 186 195.618 226 238 247 257.993> 306 77<0 17 305 322> 405 81<0 17 305 322> 498 90<0 17 305 322> 570 18<17 70 83 154 167 238 250 305>
VStem: 0 70<-188 -171 570 588> 0 17<-171 -102 -85 -8 10 90 108 187 204 290 306 383 401 481 498 570> 53 9<134.336 170 229.571 274> 75 10<134.417 170 203.875 273.926> 83 71<-188 -171 570 588> 98 10<135.019 170> 117 10<250.183 272.437> 127 15<193.23 201.967> 137 9<125.99 129 228.577 236 243.665 273> 153 9<125.477 170> 158 9<203.298 229 238 269.801> 167 71<-188 -171 570 588> 173 10<99.866 170 178 193 198 200> 194 10<134.857 170> 216 10<205.232 274> 222 9<134.872 170> 238 9<229.25 274> 250 72<-188 -171 570 588> 258 10<203.505 249 256 274> 305 17<-171 -98 -81 -4 14 95 112 191 209 294 311 387 405 486 502 570>
LayerCount: 2
Fore
SplineSet
0 481 m 1x300c40
 17 482 l 1
 17 401 l 1
 0 400 l 1
 0 481 l 1x300c40
0 383 m 1
 17 383 l 1
 17 306 l 1
 0 306 l 1
 0 383 l 1
0 290 m 1x308c40
 17 290 l 1
 17 204 l 1
 0 204 l 1
 0 290 l 1x308c40
0 187 m 1x380c40
 17 187 l 1
 17 108 l 1
 0 108 l 1
 0 187 l 1x380c40
0 90 m 1
 17 91 l 1
 17 10 l 1
 0 10 l 1
 0 90 l 1
0 -8 m 1
 17 -8 l 1
 17 -85 l 1
 0 -85 l 1
 0 -8 l 1
0 -102 m 1xb00c40
 17 -102 l 1xb00c40
 17 -171 l 1x700c40
 70 -171 l 1
 70 -188 l 1x700c80
 0 -188 l 1xb00c80
 0 -102 l 1xb00c40
0 588 m 1x300e80
 70 588 l 1
 70 570 l 1x300d80
 17 570 l 1x300d40
 17 498 l 1
 0 498 l 1x300e40
 0 528 0 558 0 588 c 1x300e80
83 588 m 1x300d08
 154 588 l 1
 154 570 l 1
 83 570 l 1
 83 588 l 1x300d08
167 588 m 1x300d0010
 238 588 l 1
 238 570 l 1
 167 570 l 1
 167 588 l 1x300d0010
250 588 m 1x300d000040
 322 588 l 1x300e000040
 322 502 l 1
 305 502 l 1
 305 570 l 1x300d000010
 250 570 l 1
 250 588 l 1x300d000040
322 486 m 1x300c000010
 322 405 l 1
 305 405 l 1
 305 486 l 1
 322 486 l 1x300c000010
322 387 m 1
 322 311 l 1
 305 310 l 1
 305 387 l 1
 322 387 l 1
322 294 m 1
 322 209 l 1
 305 208 l 1
 305 294 l 1
 322 294 l 1
132 280 m 2
 133 281 133 280 144 286 c 1
 144 287 l 1
 146 285 146 286 147 282 c 1
 156 282 l 1
 158 283 158 283 168 285 c 1
 168 276 l 1
 174 278 180 280 186 282 c 1
 191 282 l 2
 212 282 217 249 184 235 c 0
 180 234 167 229 167 229 c 2
 167 206 l 1
 160 203 161 203 158 202 c 1
 158 274 l 1
 146 274 l 1
 146 231 l 1
 143 229 140 229 137 228 c 1
 137 236 l 1
 135 235 134 234 132 233 c 0
 127 231 123 230 118 228 c 0
 112 228 97 228 91 240 c 1
 91 243 l 1
 99 245 100 246 100 246 c 0
 112 246 117 254 117 262 c 0
 117 267 115 275 102 275 c 1
 102 280 l 1
 105 280 107 282 108 282 c 2
 110 282 l 2
 112 282 127 282 127 262 c 0
 127 247 114 242 106 239 c 1
 113 237 113 237 114 237 c 0
 123 235 134 242 137 250 c 1
 137 273 l 2x305c06a0
 137 273 132 278 132 279 c 2
 132 280 l 2
48 280 m 2
 49 281 49 280 60 286 c 0
 63 282 l 2
 74 282 l 1
 76 283 76 283 86 285 c 1
 85 282 85 278 85 273 c 2
 85 206 l 1
 78 203 78 203 75 202 c 1
 75 274 l 1
 62 274 l 1
 62 231 l 1
 59 229 56 229 53 228 c 1
 53 273 l 1x305c30
 50 278 48 277 48 279 c 2
 48 280 l 2
211 281 m 0
 214 283 222 286 222 286 c 0x303c0001
 224 284 224 285 226 282 c 1
 257 282 l 1
 259 283 259 283 269 285 c 1
 269 283 268 280 268 276 c 2
 268 256 l 1
 270 256 l 2
 275 256 280 257 284 257 c 2
 289 257 l 1
 289 256 288 253 286 247 c 0
 285 247 284 248 282 248 c 0
 280 248 275 249 268 249 c 1
 268 206 l 1
 261 203 261 203 258 202 c 1
 258 274 l 1
 247 274 l 1
 247 231 l 1
 240 228 241 228 238 227 c 1
 238 274 l 1
 226 274 l 1
 226 206 l 1
 219 203 219 203 216 202 c 1
 216 273 l 1x303c0002a0
 211 278 211 277 211 279 c 0
 211 280 211 280 211 281 c 0
170 238 m 0
 195 242 197 262 197 262 c 0
 198 264 200 274 185 274 c 0
 179 274 169 269 167 267 c 1
 167 238 l 1x301c0020
 168 238 169 238 170 238 c 0
117 220 m 0x310c02
 118 220 117 221 118 221 c 0
 119 221 120 221 120 220 c 2
 120 218 l 2
 120 216 120 216 114 204 c 1x308c02
 114 202 l 2
 114 201 113 201 113 201 c 2
 112 200 111 200 111 200 c 0
 109 206 103 219 103 219 c 2
 103 220 l 2
 103 221 105 221 106 221 c 0
 106 221 107 220 112 217 c 0
 113 217 113 218 114 218 c 0
 116 218 115 220 117 220 c 0x310c02
173 193 m 2x368c0508
 169 198 l 2
 169 200 l 1
 170 200 l 1x330c0508
 175 202 179 203 183 204 c 1
 183 178 l 1
 278 178 l 1
 278 178 280 179 282 179 c 0
 284 179 284 178 284 178 c 2
 284 177 283 176 281 170 c 1
 278 171 276 171 274 171 c 0
 269 172 266 172 263 171 c 0
 261 171 250 167 250 158 c 2
 250 153 l 2
 250 153 252 129 281 134 c 1
 281 129 l 1
 278 129 276 126 274 126 c 0
 270 125 266 126 263 126 c 0
 240 126 233 157 246 170 c 1
 231 170 l 1
 231 141 l 1
 227 127 210 126 210 126 c 0
 196 126 194 138 194 142 c 2
 194 170 l 1
 183 170 l 1
 183 103 l 1
 180 101 177 100 173 99 c 1
 173 170 l 1
 162 170 l 1
 162 128 l 1
 159 126 157 126 153 125 c 1
 153 170 l 1
 142 170 l 1
 142 137 l 1x368c054d40
 144 135 144 133 144 133 c 2
 145 131 146 131 146 130 c 2x368c0080
 145 129 l 1
 145 128 l 1
 142 126 138 126 134 125 c 1
 134 126 133 126 133 127 c 2
 133 129 l 1
 130 127 119 125 114 125 c 0
 99 125 98 142 98 144 c 2
 98 170 l 1
 87 170 l 1
 87 141 l 1
 83 127 66 126 66 126 c 0
 57 124 50 132 50 142 c 2
 50 170 l 1
 31 170 l 2
 29 171 l 0
 29 174 29 175 42 186 c 1
 44 184 46 181 48 178 c 1
 132 178 l 1
 132 193 l 1
 127 198 127 197 127 198 c 0
 128 200 128 201 140 203 c 0
 141 203 141 204 141 204 c 1
 142 204 l 1
 142 178 l 1
 173 178 l 1
 173 193 l 2x368c0508
322 191 m 1x300c000010
 322 112 l 1
 305 112 l 1
 305 191 l 1
 322 191 l 1x300c000010
69 134 m 0x360c
 74 134 78 136 78 143 c 2
 78 170 l 1
 60 170 l 1
 60 161 60 154 60 145 c 0
 60 134 68 134 69 134 c 0x360c
108 170 m 1x360c04
 108 146 l 2
 108 144 111 136 114 134 c 0
 116 133 119 134 123 134 c 2
 126 134 l 1
 128 135 130 136 132 138 c 1
 132 170 l 1
 108 170 l 1x360c04
213 134 m 0
 216 134 222 134 222 143 c 2
 222 170 l 1
 204 170 l 1
 204 147 l 2x360c0005
 204 143 204 134 213 134 c 0
151 118 m 2
 151 118 152 117 158 114 c 1
 158 114 160 115 163 117 c 0
 164 117 l 0
 164 118 l 0
 165 118 166 118 166 117 c 2
 166 114 l 1
 161 104 160 104 159 101 c 1
 159 99 l 2
 159 98 158 98 158 98 c 2x300c0020
 157 97 157 97 157 98 c 0
 156 100 155 102 149 116 c 1
 149 117 l 2
 149 118 150 118 151 118 c 2
322 95 m 1x300c000010
 322 14 l 1
 305 14 l 1
 305 95 l 1
 322 95 l 1x300c000010
322 -4 m 1
 322 -81 l 1
 305 -81 l 1
 305 -4 l 1
 322 -4 l 1
322 -98 m 1
 322 -188 l 1xb00c000040
 250 -188 l 1
 250 -171 l 1x700c000040
 305 -171 l 1x700c000010
 305 -98 l 1
 322 -98 l 1
83 -171 m 1x700c08
 154 -171 l 1
 154 -188 l 1
 83 -188 l 1
 83 -171 l 1x700c08
167 -171 m 1x700c0010
 238 -171 l 1
 238 -188 l 1
 167 -188 l 1
 167 -171 l 1x700c0010
EndSplineSet
Validated: 33
EndChar

StartChar: X
Encoding: 88 88 23
Width: 321
VWidth: 800
Flags: W
HStem: -188 86<0 17 305 322> -188 17<17 70 83 154 167 238 250 305> -85 77<0 17 305 322> 14 81<0 17 305 322> 108 79<0 17 305 322> 126 8<61.9468 66 114.094 131.906 205.824 210> 170 8<45.2812 50 60 78 87 98 108 132 142 153 162 173 183 194 204 222 231 246 253.586 278 278.001 280.86> 200 17<107.758 111 111.001 113> 204 86<0 17 305 322> 228 9<106.464 130.053> 249 7<268 287.769> 274 8<63 74.9932 102 114.486 146.01 157.938 186 195.618 226 238 247 257.993> 306 77<0 17 305 322> 405 81<0 17 305 322> 498 90<0 17 305 322> 570 18<17 70 83 154 167 238 250 305>
VStem: 0 70<-188 -171 570 588> 0 17<-171 -102 -85 -8 10 90 108 187 204 290 306 383 401 481 498 570> 53 9<134.336 170 229.571 274> 75 10<134.417 170 203.875 273.926> 83 71<-188 -171 570 588> 98 10<135.019 170> 117 10<250.183 272.437> 127 15<193.23 201.967> 137 9<125.99 129 228.577 236 243.665 273> 153 9<125.477 170> 158 9<203.298 229 238 269.801> 167 71<-188 -171 570 588> 173 10<99.866 170 178 193 198 200> 194 10<134.857 170> 216 10<205.232 274> 222 9<134.872 170> 238 9<229.25 274> 250 72<-188 -171 570 588> 258 10<203.505 249 256 274> 305 17<-171 -98 -81 -4 14 95 112 191 209 294 311 387 405 486 502 570>
LayerCount: 2
Fore
SplineSet
0 481 m 1x300c40
 17 482 l 1
 17 401 l 1
 0 400 l 1
 0 481 l 1x300c40
0 383 m 1
 17 383 l 1
 17 306 l 1
 0 306 l 1
 0 383 l 1
0 290 m 1x308c40
 17 290 l 1
 17 204 l 1
 0 204 l 1
 0 290 l 1x308c40
0 187 m 1x380c40
 17 187 l 1
 17 108 l 1
 0 108 l 1
 0 187 l 1x380c40
0 90 m 1
 17 91 l 1
 17 10 l 1
 0 10 l 1
 0 90 l 1
0 -8 m 1
 17 -8 l 1
 17 -85 l 1
 0 -85 l 1
 0 -8 l 1
0 -102 m 1xb00c40
 17 -102 l 1xb00c40
 17 -171 l 1x700c40
 70 -171 l 1
 70 -188 l 1x700c80
 0 -188 l 1xb00c80
 0 -102 l 1xb00c40
0 588 m 1x300e80
 70 588 l 1
 70 570 l 1x300d80
 17 570 l 1x300d40
 17 498 l 1
 0 498 l 1x300e40
 0 528 0 558 0 588 c 1x300e80
83 588 m 1x300d08
 154 588 l 1
 154 570 l 1
 83 570 l 1
 83 588 l 1x300d08
167 588 m 1x300d0010
 238 588 l 1
 238 570 l 1
 167 570 l 1
 167 588 l 1x300d0010
250 588 m 1x300d000040
 322 588 l 1x300e000040
 322 502 l 1
 305 502 l 1
 305 570 l 1x300d000010
 250 570 l 1
 250 588 l 1x300d000040
322 486 m 1x300c000010
 322 405 l 1
 305 405 l 1
 305 486 l 1
 322 486 l 1x300c000010
322 387 m 1
 322 311 l 1
 305 310 l 1
 305 387 l 1
 322 387 l 1
322 294 m 1
 322 209 l 1
 305 208 l 1
 305 294 l 1
 322 294 l 1
132 280 m 2
 133 281 133 280 144 286 c 1
 144 287 l 1
 146 285 146 286 147 282 c 1
 156 282 l 1
 158 283 158 283 168 285 c 1
 168 276 l 1
 174 278 180 280 186 282 c 1
 191 282 l 2
 212 282 217 249 184 235 c 0
 180 234 167 229 167 229 c 2
 167 206 l 1
 160 203 161 203 158 202 c 1
 158 274 l 1
 146 274 l 1
 146 231 l 1
 143 229 140 229 137 228 c 1
 137 236 l 1
 135 235 134 234 132 233 c 0
 127 231 123 230 118 228 c 0
 112 228 97 228 91 240 c 1
 91 243 l 1
 99 245 100 246 100 246 c 0
 112 246 117 254 117 262 c 0
 117 267 115 275 102 275 c 1
 102 280 l 1
 105 280 107 282 108 282 c 2
 110 282 l 2
 112 282 127 282 127 262 c 0
 127 247 114 242 106 239 c 1
 113 237 113 237 114 237 c 0
 123 235 134 242 137 250 c 1
 137 273 l 2x305c06a0
 137 273 132 278 132 279 c 2
 132 280 l 2
48 280 m 2
 49 281 49 280 60 286 c 0
 63 282 l 2
 74 282 l 1
 76 283 76 283 86 285 c 1
 85 282 85 278 85 273 c 2
 85 206 l 1
 78 203 78 203 75 202 c 1
 75 274 l 1
 62 274 l 1
 62 231 l 1
 59 229 56 229 53 228 c 1
 53 273 l 1x305c30
 50 278 48 277 48 279 c 2
 48 280 l 2
211 281 m 0
 214 283 222 286 222 286 c 0x303c0001
 224 284 224 285 226 282 c 1
 257 282 l 1
 259 283 259 283 269 285 c 1
 269 283 268 280 268 276 c 2
 268 256 l 1
 270 256 l 2
 275 256 280 257 284 257 c 2
 289 257 l 1
 289 256 288 253 286 247 c 0
 285 247 284 248 282 248 c 0
 280 248 275 249 268 249 c 1
 268 206 l 1
 261 203 261 203 258 202 c 1
 258 274 l 1
 247 274 l 1
 247 231 l 1
 240 228 241 228 238 227 c 1
 238 274 l 1
 226 274 l 1
 226 206 l 1
 219 203 219 203 216 202 c 1
 216 273 l 1x303c0002a0
 211 278 211 277 211 279 c 0
 211 280 211 280 211 281 c 0
170 238 m 0
 195 242 197 262 197 262 c 0
 198 264 200 274 185 274 c 0
 179 274 169 269 167 267 c 1
 167 238 l 1x301c0020
 168 238 169 238 170 238 c 0
117 220 m 0x310c02
 118 220 117 221 118 221 c 0
 119 221 120 221 120 220 c 2
 120 218 l 2
 120 216 120 216 114 204 c 1x308c02
 114 202 l 2
 114 201 113 201 113 201 c 2
 112 200 111 200 111 200 c 0
 109 206 103 219 103 219 c 2
 103 220 l 2
 103 221 105 221 106 221 c 0
 106 221 107 220 112 217 c 0
 113 217 113 218 114 218 c 0
 116 218 115 220 117 220 c 0x310c02
173 193 m 2x368c0508
 169 198 l 2
 169 200 l 1
 170 200 l 1x330c0508
 175 202 179 203 183 204 c 1
 183 178 l 1
 278 178 l 1
 278 178 280 179 282 179 c 0
 284 179 284 178 284 178 c 2
 284 177 283 176 281 170 c 1
 278 171 276 171 274 171 c 0
 269 172 266 172 263 171 c 0
 261 171 250 167 250 158 c 2
 250 153 l 2
 250 153 252 129 281 134 c 1
 281 129 l 1
 278 129 276 126 274 126 c 0
 270 125 266 126 263 126 c 0
 240 126 233 157 246 170 c 1
 231 170 l 1
 231 141 l 1
 227 127 210 126 210 126 c 0
 196 126 194 138 194 142 c 2
 194 170 l 1
 183 170 l 1
 183 103 l 1
 180 101 177 100 173 99 c 1
 173 170 l 1
 162 170 l 1
 162 128 l 1
 159 126 157 126 153 125 c 1
 153 170 l 1
 142 170 l 1
 142 137 l 1x368c054d40
 144 135 144 133 144 133 c 2
 145 131 146 131 146 130 c 2x368c0080
 145 129 l 1
 145 128 l 1
 142 126 138 126 134 125 c 1
 134 126 133 126 133 127 c 2
 133 129 l 1
 130 127 119 125 114 125 c 0
 99 125 98 142 98 144 c 2
 98 170 l 1
 87 170 l 1
 87 141 l 1
 83 127 66 126 66 126 c 0
 57 124 50 132 50 142 c 2
 50 170 l 1
 31 170 l 2
 29 171 l 0
 29 174 29 175 42 186 c 1
 44 184 46 181 48 178 c 1
 132 178 l 1
 132 193 l 1
 127 198 127 197 127 198 c 0
 128 200 128 201 140 203 c 0
 141 203 141 204 141 204 c 1
 142 204 l 1
 142 178 l 1
 173 178 l 1
 173 193 l 2x368c0508
322 191 m 1x300c000010
 322 112 l 1
 305 112 l 1
 305 191 l 1
 322 191 l 1x300c000010
69 134 m 0x360c
 74 134 78 136 78 143 c 2
 78 170 l 1
 60 170 l 1
 60 161 60 154 60 145 c 0
 60 134 68 134 69 134 c 0x360c
108 170 m 1x360c04
 108 146 l 2
 108 144 111 136 114 134 c 0
 116 133 119 134 123 134 c 2
 126 134 l 1
 128 135 130 136 132 138 c 1
 132 170 l 1
 108 170 l 1x360c04
213 134 m 0
 216 134 222 134 222 143 c 2
 222 170 l 1
 204 170 l 1
 204 147 l 2x360c0005
 204 143 204 134 213 134 c 0
151 118 m 2
 151 118 152 117 158 114 c 1
 158 114 160 115 163 117 c 0
 164 117 l 0
 164 118 l 0
 165 118 166 118 166 117 c 2
 166 114 l 1
 161 104 160 104 159 101 c 1
 159 99 l 2
 159 98 158 98 158 98 c 2x300c0020
 157 97 157 97 157 98 c 0
 156 100 155 102 149 116 c 1
 149 117 l 2
 149 118 150 118 151 118 c 2
322 95 m 1x300c000010
 322 14 l 1
 305 14 l 1
 305 95 l 1
 322 95 l 1x300c000010
322 -4 m 1
 322 -81 l 1
 305 -81 l 1
 305 -4 l 1
 322 -4 l 1
322 -98 m 1
 322 -188 l 1xb00c000040
 250 -188 l 1
 250 -171 l 1x700c000040
 305 -171 l 1x700c000010
 305 -98 l 1
 322 -98 l 1
83 -171 m 1x700c08
 154 -171 l 1
 154 -188 l 1
 83 -188 l 1
 83 -171 l 1x700c08
167 -171 m 1x700c0010
 238 -171 l 1
 238 -188 l 1
 167 -188 l 1
 167 -171 l 1x700c0010
EndSplineSet
Validated: 33
EndChar

StartChar: Y
Encoding: 89 89 24
Width: 321
VWidth: 800
Flags: W
HStem: -188 86<0 17 305 322> -188 17<17 70 83 154 167 238 250 305> -85 77<0 17 305 322> 14 81<0 17 305 322> 108 79<0 17 305 322> 126 8<61.9468 66 114.094 131.906 205.824 210> 170 8<45.2812 50 60 78 87 98 108 132 142 153 162 173 183 194 204 222 231 246 253.586 278 278.001 280.86> 200 17<107.758 111 111.001 113> 204 86<0 17 305 322> 228 9<106.464 130.053> 249 7<268 287.769> 274 8<63 74.9932 102 114.486 146.01 157.938 186 195.618 226 238 247 257.993> 306 77<0 17 305 322> 405 81<0 17 305 322> 498 90<0 17 305 322> 570 18<17 70 83 154 167 238 250 305>
VStem: 0 70<-188 -171 570 588> 0 17<-171 -102 -85 -8 10 90 108 187 204 290 306 383 401 481 498 570> 53 9<134.336 170 229.571 274> 75 10<134.417 170 203.875 273.926> 83 71<-188 -171 570 588> 98 10<135.019 170> 117 10<250.183 272.437> 127 15<193.23 201.967> 137 9<125.99 129 228.577 236 243.665 273> 153 9<125.477 170> 158 9<203.298 229 238 269.801> 167 71<-188 -171 570 588> 173 10<99.866 170 178 193 198 200> 194 10<134.857 170> 216 10<205.232 274> 222 9<134.872 170> 238 9<229.25 274> 250 72<-188 -171 570 588> 258 10<203.505 249 256 274> 305 17<-171 -98 -81 -4 14 95 112 191 209 294 311 387 405 486 502 570>
LayerCount: 2
Fore
SplineSet
0 481 m 1x300c40
 17 482 l 1
 17 401 l 1
 0 400 l 1
 0 481 l 1x300c40
0 383 m 1
 17 383 l 1
 17 306 l 1
 0 306 l 1
 0 383 l 1
0 290 m 1x308c40
 17 290 l 1
 17 204 l 1
 0 204 l 1
 0 290 l 1x308c40
0 187 m 1x380c40
 17 187 l 1
 17 108 l 1
 0 108 l 1
 0 187 l 1x380c40
0 90 m 1
 17 91 l 1
 17 10 l 1
 0 10 l 1
 0 90 l 1
0 -8 m 1
 17 -8 l 1
 17 -85 l 1
 0 -85 l 1
 0 -8 l 1
0 -102 m 1xb00c40
 17 -102 l 1xb00c40
 17 -171 l 1x700c40
 70 -171 l 1
 70 -188 l 1x700c80
 0 -188 l 1xb00c80
 0 -102 l 1xb00c40
0 588 m 1x300e80
 70 588 l 1
 70 570 l 1x300d80
 17 570 l 1x300d40
 17 498 l 1
 0 498 l 1x300e40
 0 528 0 558 0 588 c 1x300e80
83 588 m 1x300d08
 154 588 l 1
 154 570 l 1
 83 570 l 1
 83 588 l 1x300d08
167 588 m 1x300d0010
 238 588 l 1
 238 570 l 1
 167 570 l 1
 167 588 l 1x300d0010
250 588 m 1x300d000040
 322 588 l 1x300e000040
 322 502 l 1
 305 502 l 1
 305 570 l 1x300d000010
 250 570 l 1
 250 588 l 1x300d000040
322 486 m 1x300c000010
 322 405 l 1
 305 405 l 1
 305 486 l 1
 322 486 l 1x300c000010
322 387 m 1
 322 311 l 1
 305 310 l 1
 305 387 l 1
 322 387 l 1
322 294 m 1
 322 209 l 1
 305 208 l 1
 305 294 l 1
 322 294 l 1
132 280 m 2
 133 281 133 280 144 286 c 1
 144 287 l 1
 146 285 146 286 147 282 c 1
 156 282 l 1
 158 283 158 283 168 285 c 1
 168 276 l 1
 174 278 180 280 186 282 c 1
 191 282 l 2
 212 282 217 249 184 235 c 0
 180 234 167 229 167 229 c 2
 167 206 l 1
 160 203 161 203 158 202 c 1
 158 274 l 1
 146 274 l 1
 146 231 l 1
 143 229 140 229 137 228 c 1
 137 236 l 1
 135 235 134 234 132 233 c 0
 127 231 123 230 118 228 c 0
 112 228 97 228 91 240 c 1
 91 243 l 1
 99 245 100 246 100 246 c 0
 112 246 117 254 117 262 c 0
 117 267 115 275 102 275 c 1
 102 280 l 1
 105 280 107 282 108 282 c 2
 110 282 l 2
 112 282 127 282 127 262 c 0
 127 247 114 242 106 239 c 1
 113 237 113 237 114 237 c 0
 123 235 134 242 137 250 c 1
 137 273 l 2x305c06a0
 137 273 132 278 132 279 c 2
 132 280 l 2
48 280 m 2
 49 281 49 280 60 286 c 0
 63 282 l 2
 74 282 l 1
 76 283 76 283 86 285 c 1
 85 282 85 278 85 273 c 2
 85 206 l 1
 78 203 78 203 75 202 c 1
 75 274 l 1
 62 274 l 1
 62 231 l 1
 59 229 56 229 53 228 c 1
 53 273 l 1x305c30
 50 278 48 277 48 279 c 2
 48 280 l 2
211 281 m 0
 214 283 222 286 222 286 c 0x303c0001
 224 284 224 285 226 282 c 1
 257 282 l 1
 259 283 259 283 269 285 c 1
 269 283 268 280 268 276 c 2
 268 256 l 1
 270 256 l 2
 275 256 280 257 284 257 c 2
 289 257 l 1
 289 256 288 253 286 247 c 0
 285 247 284 248 282 248 c 0
 280 248 275 249 268 249 c 1
 268 206 l 1
 261 203 261 203 258 202 c 1
 258 274 l 1
 247 274 l 1
 247 231 l 1
 240 228 241 228 238 227 c 1
 238 274 l 1
 226 274 l 1
 226 206 l 1
 219 203 219 203 216 202 c 1
 216 273 l 1x303c0002a0
 211 278 211 277 211 279 c 0
 211 280 211 280 211 281 c 0
170 238 m 0
 195 242 197 262 197 262 c 0
 198 264 200 274 185 274 c 0
 179 274 169 269 167 267 c 1
 167 238 l 1x301c0020
 168 238 169 238 170 238 c 0
117 220 m 0x310c02
 118 220 117 221 118 221 c 0
 119 221 120 221 120 220 c 2
 120 218 l 2
 120 216 120 216 114 204 c 1x308c02
 114 202 l 2
 114 201 113 201 113 201 c 2
 112 200 111 200 111 200 c 0
 109 206 103 219 103 219 c 2
 103 220 l 2
 103 221 105 221 106 221 c 0
 106 221 107 220 112 217 c 0
 113 217 113 218 114 218 c 0
 116 218 115 220 117 220 c 0x310c02
173 193 m 2x368c0508
 169 198 l 2
 169 200 l 1
 170 200 l 1x330c0508
 175 202 179 203 183 204 c 1
 183 178 l 1
 278 178 l 1
 278 178 280 179 282 179 c 0
 284 179 284 178 284 178 c 2
 284 177 283 176 281 170 c 1
 278 171 276 171 274 171 c 0
 269 172 266 172 263 171 c 0
 261 171 250 167 250 158 c 2
 250 153 l 2
 250 153 252 129 281 134 c 1
 281 129 l 1
 278 129 276 126 274 126 c 0
 270 125 266 126 263 126 c 0
 240 126 233 157 246 170 c 1
 231 170 l 1
 231 141 l 1
 227 127 210 126 210 126 c 0
 196 126 194 138 194 142 c 2
 194 170 l 1
 183 170 l 1
 183 103 l 1
 180 101 177 100 173 99 c 1
 173 170 l 1
 162 170 l 1
 162 128 l 1
 159 126 157 126 153 125 c 1
 153 170 l 1
 142 170 l 1
 142 137 l 1x368c054d40
 144 135 144 133 144 133 c 2
 145 131 146 131 146 130 c 2x368c0080
 145 129 l 1
 145 128 l 1
 142 126 138 126 134 125 c 1
 134 126 133 126 133 127 c 2
 133 129 l 1
 130 127 119 125 114 125 c 0
 99 125 98 142 98 144 c 2
 98 170 l 1
 87 170 l 1
 87 141 l 1
 83 127 66 126 66 126 c 0
 57 124 50 132 50 142 c 2
 50 170 l 1
 31 170 l 2
 29 171 l 0
 29 174 29 175 42 186 c 1
 44 184 46 181 48 178 c 1
 132 178 l 1
 132 193 l 1
 127 198 127 197 127 198 c 0
 128 200 128 201 140 203 c 0
 141 203 141 204 141 204 c 1
 142 204 l 1
 142 178 l 1
 173 178 l 1
 173 193 l 2x368c0508
322 191 m 1x300c000010
 322 112 l 1
 305 112 l 1
 305 191 l 1
 322 191 l 1x300c000010
69 134 m 0x360c
 74 134 78 136 78 143 c 2
 78 170 l 1
 60 170 l 1
 60 161 60 154 60 145 c 0
 60 134 68 134 69 134 c 0x360c
108 170 m 1x360c04
 108 146 l 2
 108 144 111 136 114 134 c 0
 116 133 119 134 123 134 c 2
 126 134 l 1
 128 135 130 136 132 138 c 1
 132 170 l 1
 108 170 l 1x360c04
213 134 m 0
 216 134 222 134 222 143 c 2
 222 170 l 1
 204 170 l 1
 204 147 l 2x360c0005
 204 143 204 134 213 134 c 0
151 118 m 2
 151 118 152 117 158 114 c 1
 158 114 160 115 163 117 c 0
 164 117 l 0
 164 118 l 0
 165 118 166 118 166 117 c 2
 166 114 l 1
 161 104 160 104 159 101 c 1
 159 99 l 2
 159 98 158 98 158 98 c 2x300c0020
 157 97 157 97 157 98 c 0
 156 100 155 102 149 116 c 1
 149 117 l 2
 149 118 150 118 151 118 c 2
322 95 m 1x300c000010
 322 14 l 1
 305 14 l 1
 305 95 l 1
 322 95 l 1x300c000010
322 -4 m 1
 322 -81 l 1
 305 -81 l 1
 305 -4 l 1
 322 -4 l 1
322 -98 m 1
 322 -188 l 1xb00c000040
 250 -188 l 1
 250 -171 l 1x700c000040
 305 -171 l 1x700c000010
 305 -98 l 1
 322 -98 l 1
83 -171 m 1x700c08
 154 -171 l 1
 154 -188 l 1
 83 -188 l 1
 83 -171 l 1x700c08
167 -171 m 1x700c0010
 238 -171 l 1
 238 -188 l 1
 167 -188 l 1
 167 -171 l 1x700c0010
EndSplineSet
Validated: 33
EndChar

StartChar: Z
Encoding: 90 90 25
Width: 321
VWidth: 800
Flags: W
HStem: -188 86<0 17 305 322> -188 17<17 70 83 154 167 238 250 305> -85 77<0 17 305 322> 14 81<0 17 305 322> 108 79<0 17 305 322> 126 8<61.9468 66 114.094 131.906 205.824 210> 170 8<45.2812 50 60 78 87 98 108 132 142 153 162 173 183 194 204 222 231 246 253.586 278 278.001 280.86> 200 17<107.758 111 111.001 113> 204 86<0 17 305 322> 228 9<106.464 130.053> 249 7<268 287.769> 274 8<63 74.9932 102 114.486 146.01 157.938 186 195.618 226 238 247 257.993> 306 77<0 17 305 322> 405 81<0 17 305 322> 498 90<0 17 305 322> 570 18<17 70 83 154 167 238 250 305>
VStem: 0 70<-188 -171 570 588> 0 17<-171 -102 -85 -8 10 90 108 187 204 290 306 383 401 481 498 570> 53 9<134.336 170 229.571 274> 75 10<134.417 170 203.875 273.926> 83 71<-188 -171 570 588> 98 10<135.019 170> 117 10<250.183 272.437> 127 15<193.23 201.967> 137 9<125.99 129 228.577 236 243.665 273> 153 9<125.477 170> 158 9<203.298 229 238 269.801> 167 71<-188 -171 570 588> 173 10<99.866 170 178 193 198 200> 194 10<134.857 170> 216 10<205.232 274> 222 9<134.872 170> 238 9<229.25 274> 250 72<-188 -171 570 588> 258 10<203.505 249 256 274> 305 17<-171 -98 -81 -4 14 95 112 191 209 294 311 387 405 486 502 570>
LayerCount: 2
Fore
SplineSet
0 481 m 1x300c40
 17 482 l 1
 17 401 l 1
 0 400 l 1
 0 481 l 1x300c40
0 383 m 1
 17 383 l 1
 17 306 l 1
 0 306 l 1
 0 383 l 1
0 290 m 1x308c40
 17 290 l 1
 17 204 l 1
 0 204 l 1
 0 290 l 1x308c40
0 187 m 1x380c40
 17 187 l 1
 17 108 l 1
 0 108 l 1
 0 187 l 1x380c40
0 90 m 1
 17 91 l 1
 17 10 l 1
 0 10 l 1
 0 90 l 1
0 -8 m 1
 17 -8 l 1
 17 -85 l 1
 0 -85 l 1
 0 -8 l 1
0 -102 m 1xb00c40
 17 -102 l 1xb00c40
 17 -171 l 1x700c40
 70 -171 l 1
 70 -188 l 1x700c80
 0 -188 l 1xb00c80
 0 -102 l 1xb00c40
0 588 m 1x300e80
 70 588 l 1
 70 570 l 1x300d80
 17 570 l 1x300d40
 17 498 l 1
 0 498 l 1x300e40
 0 528 0 558 0 588 c 1x300e80
83 588 m 1x300d08
 154 588 l 1
 154 570 l 1
 83 570 l 1
 83 588 l 1x300d08
167 588 m 1x300d0010
 238 588 l 1
 238 570 l 1
 167 570 l 1
 167 588 l 1x300d0010
250 588 m 1x300d000040
 322 588 l 1x300e000040
 322 502 l 1
 305 502 l 1
 305 570 l 1x300d000010
 250 570 l 1
 250 588 l 1x300d000040
322 486 m 1x300c000010
 322 405 l 1
 305 405 l 1
 305 486 l 1
 322 486 l 1x300c000010
322 387 m 1
 322 311 l 1
 305 310 l 1
 305 387 l 1
 322 387 l 1
322 294 m 1
 322 209 l 1
 305 208 l 1
 305 294 l 1
 322 294 l 1
132 280 m 2
 133 281 133 280 144 286 c 1
 144 287 l 1
 146 285 146 286 147 282 c 1
 156 282 l 1
 158 283 158 283 168 285 c 1
 168 276 l 1
 174 278 180 280 186 282 c 1
 191 282 l 2
 212 282 217 249 184 235 c 0
 180 234 167 229 167 229 c 2
 167 206 l 1
 160 203 161 203 158 202 c 1
 158 274 l 1
 146 274 l 1
 146 231 l 1
 143 229 140 229 137 228 c 1
 137 236 l 1
 135 235 134 234 132 233 c 0
 127 231 123 230 118 228 c 0
 112 228 97 228 91 240 c 1
 91 243 l 1
 99 245 100 246 100 246 c 0
 112 246 117 254 117 262 c 0
 117 267 115 275 102 275 c 1
 102 280 l 1
 105 280 107 282 108 282 c 2
 110 282 l 2
 112 282 127 282 127 262 c 0
 127 247 114 242 106 239 c 1
 113 237 113 237 114 237 c 0
 123 235 134 242 137 250 c 1
 137 273 l 2x305c06a0
 137 273 132 278 132 279 c 2
 132 280 l 2
48 280 m 2
 49 281 49 280 60 286 c 0
 63 282 l 2
 74 282 l 1
 76 283 76 283 86 285 c 1
 85 282 85 278 85 273 c 2
 85 206 l 1
 78 203 78 203 75 202 c 1
 75 274 l 1
 62 274 l 1
 62 231 l 1
 59 229 56 229 53 228 c 1
 53 273 l 1x305c30
 50 278 48 277 48 279 c 2
 48 280 l 2
211 281 m 0
 214 283 222 286 222 286 c 0x303c0001
 224 284 224 285 226 282 c 1
 257 282 l 1
 259 283 259 283 269 285 c 1
 269 283 268 280 268 276 c 2
 268 256 l 1
 270 256 l 2
 275 256 280 257 284 257 c 2
 289 257 l 1
 289 256 288 253 286 247 c 0
 285 247 284 248 282 248 c 0
 280 248 275 249 268 249 c 1
 268 206 l 1
 261 203 261 203 258 202 c 1
 258 274 l 1
 247 274 l 1
 247 231 l 1
 240 228 241 228 238 227 c 1
 238 274 l 1
 226 274 l 1
 226 206 l 1
 219 203 219 203 216 202 c 1
 216 273 l 1x303c0002a0
 211 278 211 277 211 279 c 0
 211 280 211 280 211 281 c 0
170 238 m 0
 195 242 197 262 197 262 c 0
 198 264 200 274 185 274 c 0
 179 274 169 269 167 267 c 1
 167 238 l 1x301c0020
 168 238 169 238 170 238 c 0
117 220 m 0x310c02
 118 220 117 221 118 221 c 0
 119 221 120 221 120 220 c 2
 120 218 l 2
 120 216 120 216 114 204 c 1x308c02
 114 202 l 2
 114 201 113 201 113 201 c 2
 112 200 111 200 111 200 c 0
 109 206 103 219 103 219 c 2
 103 220 l 2
 103 221 105 221 106 221 c 0
 106 221 107 220 112 217 c 0
 113 217 113 218 114 218 c 0
 116 218 115 220 117 220 c 0x310c02
173 193 m 2x368c0508
 169 198 l 2
 169 200 l 1
 170 200 l 1x330c0508
 175 202 179 203 183 204 c 1
 183 178 l 1
 278 178 l 1
 278 178 280 179 282 179 c 0
 284 179 284 178 284 178 c 2
 284 177 283 176 281 170 c 1
 278 171 276 171 274 171 c 0
 269 172 266 172 263 171 c 0
 261 171 250 167 250 158 c 2
 250 153 l 2
 250 153 252 129 281 134 c 1
 281 129 l 1
 278 129 276 126 274 126 c 0
 270 125 266 126 263 126 c 0
 240 126 233 157 246 170 c 1
 231 170 l 1
 231 141 l 1
 227 127 210 126 210 126 c 0
 196 126 194 138 194 142 c 2
 194 170 l 1
 183 170 l 1
 183 103 l 1
 180 101 177 100 173 99 c 1
 173 170 l 1
 162 170 l 1
 162 128 l 1
 159 126 157 126 153 125 c 1
 153 170 l 1
 142 170 l 1
 142 137 l 1x368c054d40
 144 135 144 133 144 133 c 2
 145 131 146 131 146 130 c 2x368c0080
 145 129 l 1
 145 128 l 1
 142 126 138 126 134 125 c 1
 134 126 133 126 133 127 c 2
 133 129 l 1
 130 127 119 125 114 125 c 0
 99 125 98 142 98 144 c 2
 98 170 l 1
 87 170 l 1
 87 141 l 1
 83 127 66 126 66 126 c 0
 57 124 50 132 50 142 c 2
 50 170 l 1
 31 170 l 2
 29 171 l 0
 29 174 29 175 42 186 c 1
 44 184 46 181 48 178 c 1
 132 178 l 1
 132 193 l 1
 127 198 127 197 127 198 c 0
 128 200 128 201 140 203 c 0
 141 203 141 204 141 204 c 1
 142 204 l 1
 142 178 l 1
 173 178 l 1
 173 193 l 2x368c0508
322 191 m 1x300c000010
 322 112 l 1
 305 112 l 1
 305 191 l 1
 322 191 l 1x300c000010
69 134 m 0x360c
 74 134 78 136 78 143 c 2
 78 170 l 1
 60 170 l 1
 60 161 60 154 60 145 c 0
 60 134 68 134 69 134 c 0x360c
108 170 m 1x360c04
 108 146 l 2
 108 144 111 136 114 134 c 0
 116 133 119 134 123 134 c 2
 126 134 l 1
 128 135 130 136 132 138 c 1
 132 170 l 1
 108 170 l 1x360c04
213 134 m 0
 216 134 222 134 222 143 c 2
 222 170 l 1
 204 170 l 1
 204 147 l 2x360c0005
 204 143 204 134 213 134 c 0
151 118 m 2
 151 118 152 117 158 114 c 1
 158 114 160 115 163 117 c 0
 164 117 l 0
 164 118 l 0
 165 118 166 118 166 117 c 2
 166 114 l 1
 161 104 160 104 159 101 c 1
 159 99 l 2
 159 98 158 98 158 98 c 2x300c0020
 157 97 157 97 157 98 c 0
 156 100 155 102 149 116 c 1
 149 117 l 2
 149 118 150 118 151 118 c 2
322 95 m 1x300c000010
 322 14 l 1
 305 14 l 1
 305 95 l 1
 322 95 l 1x300c000010
322 -4 m 1
 322 -81 l 1
 305 -81 l 1
 305 -4 l 1
 322 -4 l 1
322 -98 m 1
 322 -188 l 1xb00c000040
 250 -188 l 1
 250 -171 l 1x700c000040
 305 -171 l 1x700c000010
 305 -98 l 1
 322 -98 l 1
83 -171 m 1x700c08
 154 -171 l 1
 154 -188 l 1
 83 -188 l 1
 83 -171 l 1x700c08
167 -171 m 1x700c0010
 238 -171 l 1
 238 -188 l 1
 167 -188 l 1
 167 -171 l 1x700c0010
EndSplineSet
Validated: 33
EndChar

StartChar: a
Encoding: 97 97 26
Width: 815
VWidth: 800
Flags: W
HStem: -21.2556 45.2498<366.183 507.065> 366.66 35.8916<186.136 237.954 319.215 541.368 622.63 765.485> 448.165 20G<115.034 147.811> 518.56 106.453<403.613 488.918>
VStem: 237.954 81.2607<73.0044 366.66> 393.038 106.454<529.134 614.439> 541.368 81.2617<55.293 366.66>
LayerCount: 2
Fore
SplineSet
499.4921875 571.786132812 m 0
 499.4921875 542.389648438 475.661132812 518.559570312 446.264648438 518.559570312 c 0
 416.869140625 518.559570312 393.038085938 542.389648438 393.038085938 571.786132812 c 0
 393.038085938 601.182617188 416.869140625 625.012695312 446.264648438 625.012695312 c 0
 475.661132812 625.012695312 499.4921875 601.182617188 499.4921875 571.786132812 c 0
131.006835938 468.165039062 m 1
 186.135742188 402.551757812 l 1
 677.66015625 402.551757812 l 2
 701.104492188 402.551757812 768.673828125 407.661132812 784.731445312 408.877929688 c 1
 766.45703125 355.954101562 l 1
 746.15625 361.459960938 698.256835938 366.66015625 677.173828125 366.66015625 c 2
 622.629882812 366.66015625 l 1
 622.629882812 55.29296875 l 1
 656.471679688 9.5205078125 l 1
 630.872070312 -3.1044921875 592.397460938 -13.958984375 559.095703125 -19.5166015625 c 1
 548.265661347 15.4374731213 l 1
 528.158694091 7.785733655 494.498393708 -4.41260690673 476.719726562 -9.17578125 c 0
 446.400722483 -17.2997213573 418.311622268 -21.2556356606 392.847606909 -21.2556356606 c 0
 296.680597736 -21.2556356606 237.954101562 35.1659541058 237.954101562 136.583984375 c 2
 237.954101562 366.66015625 l 1
 32.619140625 366.66015625 l 2
 18.849609375 366.66015625 16.5498046875 370.599609375 25.794921875 379.228515625 c 0
 52.2666015625 403.93359375 99.060546875 443.1796875 131.006835938 468.165039062 c 1
541.368164062 62.6745658782 m 1
 541.368164062 366.66015625 l 1
 319.21484375 366.66015625 l 1
 319.21484375 160.138671875 l 2
 319.21484375 77.666015625 357.21875 23.994140625 440.641601562 23.994140625 c 0
 473.682336572 23.994140625 498.83301228 27.2683791327 541.368164062 62.6745658782 c 1
EndSplineSet
Validated: 524289
EndChar

StartChar: b
Encoding: 98 98 27
Width: 547
VWidth: 800
Flags: W
HStem: -0 36<136 497.042> 195 35<136 457.041> 367 36<141 490.041> 428 20G<99.5 125.444>
VStem: 54 82<-37.3453 0 36 195 230 356>
LayerCount: 2
Fore
SplineSet
476 237 m 1
 458 184 l 1
 438 190 389 195 368 195 c 2
 136 195 l 1
 136 36 l 1
 409 36 l 2
 432 36 500 41 516 42 c 1
 498 -11 l 1
 478 -5 430 0 409 0 c 2
 136 -0 l 1
 136 -34 l 1
 114 -46 81 -57 54 -63 c 1
 54 356 l 1
 13 401 l 1
 36 414 86 438 113 448 c 1
 141 403 l 1
 402 403 l 2
 425 403 493 408 509 409 c 1
 491 356 l 1
 471 362 422 367 401 367 c 2
 136 367 l 1
 136 230 l 1
 369 230 l 2
 392 230 460 236 476 237 c 1
EndSplineSet
Validated: 1
EndChar

StartChar: c
Encoding: 99 99 28
Width: 471
VWidth: 800
Flags: W
HStem: 58 20<198 251.257> 366 36<140 335.547> 413 20G<404 421> 426 20G<100.5 125.818>
VStem: 54 81<-207.345 354> 337 81<72.5735 364.967>
LayerCount: 2
Fore
SplineSet
114 446 m 1xdc
 140 402 l 1
 319 402 l 1
 355 415 386 425 422 433 c 1xec
 420 415 418 370 418 332 c 2
 418 78 l 2
 418 19 403 -4 305 -14 c 1
 290 40 269 49 198 58 c 1
 198 78 l 1
 241 76 287 72 310 72 c 0
 329 72 337 78 337 94 c 2
 337 366 l 1
 334 366 l 1
 135 366 l 1
 135 -204 l 1
 113 -216 81 -227 54 -233 c 1
 54 354 l 1
 13 398 l 1
 36 411 87 436 114 446 c 1xdc
EndSplineSet
Validated: 1
EndChar

StartChar: d
Encoding: 100 100 29
Width: 551
VWidth: 800
Flags: W
HStem: -10 40<209.004 357.437> 377 34<195.047 347.12> 434 20G<62.5714 148.5>
VStem: 34 83<121.405 286.929> 429 90<122.036 305.371>
LayerCount: 2
Fore
SplineSet
124 454 m 1
 173 429 245 411 312 411 c 2
 346 411 l 2
 432 411 519 348 519 234 c 0
 519 114 461 41 375 11 c 0
 340 -1 284 -10 249 -10 c 0
 123 -10 34 74 34 183 c 0
 34 281 78 349 159 379 c 1
 124 382 70 397 38 410 c 1
 38 426 l 1
 124 454 l 1
246 377 m 0
 173 377 117 293 117 214 c 0
 117 76 225 30 285 30 c 0
 360 30 429 83 429 214 c 0
 429 351 336 377 246 377 c 0
EndSplineSet
Validated: 1
EndChar

StartChar: e
Encoding: 101 101 30
Width: 600
VWidth: 800
Flags: W
HStem: 155.644 35.8916<201.913 285.216 366.477 555.184> 366.66 35.8926<225.274 284.636> 412.688 20G<352.486 369.573> 448.166 20G<154.173 186.95>
VStem: 285.216 81.2607<-207.307 155.644 191.535 366.429>
LayerCount: 2
Fore
SplineSet
170.145507812 468.166015625 m 1
 225.274414062 402.552734375 l 1
 268.016601562 402.552734375 l 1
 304.359375 415.452148438 334.366210938 424.4140625 370.60546875 432.688476562 c 1
 368.541015625 415.484375 366.4765625 369.188476562 366.4765625 331.711914062 c 2
 366.4765625 191.53515625 l 1
 467.358398438 191.53515625 l 2
 490.802734375 191.53515625 558.375976562 196.64453125 574.43359375 197.861328125 c 1
 556.155273438 144.9375 l 1
 535.852539062 150.443359375 487.955078125 155.643554688 466.872070312 155.643554688 c 2
 366.4765625 155.643554688 l 1
 366.4765625 -204.016601562 l 1
 344.7421875 -215.749023438 312.302734375 -227.295898438 285.215820312 -233.053710938 c 1
 285.215820312 155.643554688 l 1
 48.396484375 155.643554688 l 2
 34.626953125 155.643554688 32.3271484375 159.583007812 41.572265625 168.211914062 c 0
 68.04296875 192.916992188 114.838867188 232.163085938 146.784179688 257.1484375 c 1
 201.913085938 191.53515625 l 1
 285.215820312 191.53515625 l 1
 285.215820312 366.66015625 l 1
 71.7578125 366.66015625 l 2
 57.98828125 366.66015625 55.6884765625 370.600585938 64.93359375 379.229492188 c 0
 91.404296875 403.93359375 138.200195312 443.180664062 170.145507812 468.166015625 c 1
EndSplineSet
Validated: 524289
EndChar

StartChar: f
Encoding: 102 102 31
Width: 529
VWidth: 800
Flags: W
HStem: 371 41<242.432 384.71> 596 20G<118.5 135>
VStem: 54 81<38 322.243 358 549> 418 84<192.131 340.079>
LayerCount: 2
Fore
SplineSet
315 371 m 0
 241 371 159 330 135 306 c 1
 135 38 l 1
 266 43 418 132 418 270 c 0
 418 352 365 371 315 371 c 0
135 616 m 1
 135 358 l 1
 221 388 287 406 335 411 c 0
 344 412 353 412 362 412 c 0
 443 412 502 372 502 282 c 0
 502 157 387 78 286 38 c 0
 217 11 117 -13 54 -21 c 1
 54 549 l 1
 18 589 l 1
 49 599 102 611 135 616 c 1
EndSplineSet
Validated: 1
EndChar

StartChar: g
Encoding: 103 103 32
Width: 471
VWidth: 800
Flags: W
HStem: 58 20<198 251.257> 366 36<140 335.547> 413 20G<404 421> 426 20G<100.5 125.818> 518 107<200.315 285.685>
VStem: 54 81<-207.345 354> 190 106<528.676 614.685> 337 81<72.5735 364.967>
LayerCount: 2
Fore
SplineSet
114 446 m 1xdf
 140 402 l 1
 319 402 l 1
 355 415 386 425 422 433 c 1xef
 420 415 418 370 418 332 c 2
 418 78 l 2
 418 19 403 -4 305 -14 c 1
 290 40 269 49 198 58 c 1
 198 78 l 1
 217 77 238 75 256 74 c 0
 278 72 296 72 306 72 c 0
 329 72 337 78 337 94 c 2
 337 366 l 1
 334 366 l 1
 135 366 l 1
 135 -204 l 1
 113 -216 81 -227 54 -233 c 1
 54 354 l 1
 13 398 l 1
 36 411 87 436 114 446 c 1xdf
296 572 m 0
 296 542 273 518 243 518 c 0
 213 518 190 542 190 572 c 0
 190 602 213 625 243 625 c 0
 273 625 296 602 296 572 c 0
EndSplineSet
Validated: 1
EndChar

StartChar: h
Encoding: 104 104 33
Width: 529
VWidth: 800
Flags: W
HStem: -238 107<209.315 295.324> 371 41<242.432 384.71> 596 20G<118.5 135>
VStem: 54 81<38 322.243 358 549> 199 107<-227.324 -141.315> 418 84<192.131 340.079>
LayerCount: 2
Fore
SplineSet
315 371 m 0
 241 371 159 330 135 306 c 1
 135 38 l 1
 266 43 418 132 418 270 c 0
 418 352 365 371 315 371 c 0
135 616 m 1
 135 358 l 1
 221 388 287 406 335 411 c 0
 344 412 353 412 362 412 c 0
 443 412 502 372 502 282 c 0
 502 157 387 78 286 38 c 0
 217 11 117 -13 54 -21 c 1
 54 549 l 1
 18 589 l 1
 49 599 102 611 135 616 c 1
306 -184 m 0
 306 -214 282 -238 252 -238 c 0
 222 -238 199 -214 199 -184 c 0
 199 -154 222 -131 252 -131 c 0
 282 -131 306 -154 306 -184 c 0
EndSplineSet
Validated: 1
EndChar

StartChar: i
Encoding: 105 105 34
Width: 366
VWidth: 800
Flags: W
HStem: -154 20<54 125.976> 366 36<157 228.865> 413 20G<298 315> 433 20G<100 130.863>
VStem: 106 60<-21.3223 244> 230 82<-138.429 364.967>
LayerCount: 2
Fore
SplineSet
166 294 m 1xcc
 166 -18 l 1
 150 -27 126 -35 106 -39 c 1
 106 244 l 1
 80 274 l 1
 103 281 142 291 166 294 c 1xcc
114 453 m 1xdc
 157 402 l 1
 214 402 l 1
 250 415 280 425 316 433 c 1
 314 415 312 370 312 332 c 2
 312 -133 l 2
 312 -192 297 -216 199 -226 c 1
 199 -225 199 -225 199 -224 c 0
 185 -171 184 -170 54 -154 c 1
 54 -134 l 1
 58 -134 62 -134 66 -134 c 0
 112 -136 186 -140 202 -140 c 0
 224 -140 230 -134 230 -118 c 2
 230 366 l 1
 38 366 l 2
 32 366 29 368 29 371 c 0
 29 375 33 382 44 392 c 0
 57 404 86 431 114 453 c 1xdc
EndSplineSet
Validated: 1
EndChar

StartChar: j
Encoding: 106 106 35
Width: 599
VWidth: 800
Flags: W
HStem: 366.66 35.8926<201.916 285.215 366.477 555.187> 448.166 20G<130.815 163.592>
VStem: 285.215 81.2617<-207.308 366.66>
LayerCount: 2
Fore
SplineSet
146.788085938 468.166015625 m 1
 201.916015625 402.552734375 l 1
 467.362304688 402.552734375 l 2
 490.805664062 402.552734375 558.37890625 407.662109375 574.4375 408.87890625 c 1
 556.159179688 355.955078125 l 1
 535.856445312 361.4609375 487.958984375 366.66015625 466.875976562 366.66015625 c 2
 366.4765625 366.66015625 l 1
 366.4765625 -204.017578125 l 1
 344.743164062 -215.750976562 312.301757812 -227.296875 285.21484375 -233.0546875 c 1
 285.21484375 366.66015625 l 1
 48.3994140625 366.66015625 l 2
 34.6298828125 366.66015625 32.330078125 370.600585938 41.5751953125 379.229492188 c 0
 68.046875 403.93359375 114.841796875 443.180664062 146.788085938 468.166015625 c 1
EndSplineSet
Validated: 524289
EndChar

StartChar: k
Encoding: 107 107 36
Width: 189
VWidth: 800
Flags: W
HStem: 413 20G<118.5 135> 523 97<-1.00208 77.6635 111.998 190.002>
VStem: -10 97<532.336 611.002> 54 81<4.65466 366> 103 96<531.648 611.668>
LayerCount: 2
Fore
SplineSet
135 433 m 1xd0
 135 8 l 1
 113 -4 81 -15 54 -21 c 1
 54 366 l 1
 18 406 l 1
 49 416 102 428 135 433 c 1xd0
199 572 m 0xc8
 199 546 177 523 151 523 c 0
 125 523 103 546 103 572 c 0
 103 598 125 620 151 620 c 0
 177 620 199 598 199 572 c 0xc8
87 572 m 0xe0
 87 546 64 523 38 523 c 0
 12 523 -10 546 -10 572 c 0
 -10 598 12 620 38 620 c 0
 64 620 87 598 87 572 c 0xe0
EndSplineSet
Validated: 1
EndChar

StartChar: l
Encoding: 108 108 37
Width: 189
VWidth: 800
Flags: W
HStem: 413 20G<118.5 135>
VStem: 54 81<4.65466 366>
LayerCount: 2
Fore
SplineSet
95 -254 m 0
 93 -254 92 -252 84 -236 c 0
 74 -214 43 -150 25 -108 c 1
 37 -108 l 1
 95 -137 l 1
 153 -108 l 1
 165 -108 l 1
 147 -150 116 -214 106 -236 c 0
 98 -252 97 -254 95 -254 c 0
135 433 m 1
 135 8 l 1
 113 -4 81 -15 54 -21 c 1
 54 366 l 1
 18 406 l 1
 49 416 102 428 135 433 c 1
EndSplineSet
Validated: 1
EndChar

StartChar: m
Encoding: 109 109 38
Width: 189
VWidth: 800
Flags: W
HStem: -238 107<52.3149 137.685> 413 20G<118.5 135>
VStem: 42 106<-227.324 -141.315> 54 81<4.65466 366>
LayerCount: 2
Fore
SplineSet
148 -184 m 0xe0
 148 -214 125 -238 95 -238 c 0
 65 -238 42 -214 42 -184 c 0
 42 -154 65 -131 95 -131 c 0
 125 -131 148 -154 148 -184 c 0xe0
135 433 m 1xd0
 135 8 l 1
 113 -4 81 -15 54 -21 c 1
 54 366 l 1
 18 406 l 1
 49 416 102 428 135 433 c 1xd0
EndSplineSet
Validated: 1
EndChar

StartChar: n
Encoding: 110 110 39
Width: 189
VWidth: 800
Flags: W
HStem: 413 20G<118.5 135>
VStem: 54 81<-207.345 366>
LayerCount: 2
Fore
SplineSet
18 406 m 1
 49 416 102 428 135 433 c 1
 135 -204 l 1
 113 -216 81 -227 54 -233 c 1
 54 366 l 1
 18 406 l 1
EndSplineSet
Validated: 1
EndChar

StartChar: o
Encoding: 111 111 40
Width: 463
VWidth: 800
Flags: W
HStem: 165 106<141.676 227.685> 366 36<181 326.547> 413 20G<395 412> 448 20G<110 142.667>
VStem: 131 107<175.315 260.685> 328 81<4.65466 364.967>
LayerCount: 2
Fore
SplineSet
238 218 m 0
 238 188 215 165 185 165 c 0
 155 165 131 188 131 218 c 0
 131 248 155 271 185 271 c 0
 215 271 238 248 238 218 c 0
126 468 m 1
 181 402 l 1
 310 402 l 1
 346 415 377 425 413 433 c 1
 411 415 409 370 409 332 c 2
 409 8 l 1
 387 -4 355 -15 328 -21 c 1
 328 366 l 1
 27 366 l 2
 21 366 16 367 16 370 c 0
 16 373 20 380 30 389 c 0
 47 404 94 443 126 468 c 1
EndSplineSet
Validated: 1
EndChar

StartChar: p
Encoding: 112 112 41
Width: 422
VWidth: 800
Flags: W
HStem: 366 36<141 286.547> 413 20G<355 372> 429 20G<100.5 125.489>
VStem: 54 81<4.65466 356> 287 82<-207.345 364.967>
LayerCount: 2
Fore
SplineSet
135 366 m 1xd8
 135 8 l 1
 113 -4 81 -15 54 -21 c 1
 54 356 l 1
 13 401 l 1
 36 414 87 439 114 449 c 1xb8
 141 402 l 1
 270 402 l 1
 306 415 337 425 373 433 c 1
 371 415 369 370 369 332 c 2
 369 -204 l 1
 347 -216 314 -227 287 -233 c 1
 287 366 l 1
 135 366 l 1xd8
EndSplineSet
Validated: 1
EndChar

